<?xml version="1.0" encoding="utf-8"?>
<!-- Generator: Adobe Illustrator 19.0.0, SVG Export Plug-In . SVG Version: 6.00 Build 0)  -->
<svg version="1.1" xmlns="http://www.w3.org/2000/svg" xmlns:xlink="http://www.w3.org/1999/xlink" x="0px" y="0px"
	 viewBox="0 0 750 500" style="enable-background:new 0 0 750 500;" xml:space="preserve">
<style type="text/css">
	.st0{opacity:0;fill:#DBDBFF;}
	.st1{clip-path:url(#SVGID_2_);}
	.st2{fill:#FFFFFF;}
	.st3{fill:none;stroke:#FFFFFF;stroke-linecap:round;stroke-linejoin:round;stroke-miterlimit:10;stroke-dasharray:8;}
	.st4{fill:#1A0E90;}
	.st5{fill:#4145E7;}
	.st6{fill:#4AB7D6;}
	.st7{fill:#0F0854;}
	.st8{fill:#A9ECF4;}
	.st9{fill:url(#SVGID_3_);}
	.st10{fill:#FF8C00;}
	.st11{fill:#FFD000;}
	.st12{fill:#FFAA00;}
	.st13{fill:none;stroke:#FFD000;stroke-width:2;stroke-miterlimit:10;}
	.st14{fill:#F5937C;}
	.st15{fill:#FFE4DE;}
	.st16{fill:#9698ED;}
	.st17{fill:#3AB53D;}
	.st18{fill:none;stroke:#FFFFFF;stroke-linecap:round;stroke-linejoin:round;stroke-miterlimit:10;stroke-dasharray:6;}
	.st19{fill:none;stroke:#4145E7;stroke-miterlimit:10;}
</style>
<g id="BACKGROUND">
	<rect class="st0" width="750" height="500"/>
</g>
<g id="OBJECTS">
	<g>
		<defs>
			<rect id="SVGID_1_" width="750" height="500"/>
		</defs>
		<clipPath id="SVGID_2_">
			<use xlink:href="#SVGID_1_"  style="overflow:visible;"/>
		</clipPath>
		<g class="st1">
			<path class="st2" d="M642.4,458.8H85c-19.7,0-37.6-11.4-46-29.3c-5.3-11.3-9-23.1-9.8-35.2c-1.5-23.2,6.7-47.7,24.9-62.2
				c16-12.7,37.1-16.3,56.6-22.3c19.5-5.9,40.1-16.5,47-35.8c9.9-27.6-12.8-55.1-20.5-83.4c-9-33,4.8-71,33-90.4s68.6-18.9,96.3,1.2
				c17.9,13,29.7,32.4,43.2,50c13.4,17.5,30.4,34.4,52.1,38.5c28.8,5.4,56.2-13.2,79.6-30.8s50.5-36.4,79.5-31.4
				c18.3,3.1,34.3,16,42.6,32.5c8.4,16.6,9.4,36.3,4.4,54.2c-4.1,14.8-12.1,28.3-17.1,42.9c-4.9,14.6-6.4,31.7,2.1,44.5
				c10.6,16.2,26.6,26.5,45.4,31.4c18.7,4.9,38.5,6.9,55.7,15.8c17.3,9.1,30.9,25.2,36.8,43.8c0.2,0.6,0.4,1.2,0.5,1.8
				C700.6,426.8,675.9,458.8,642.4,458.8z"/>
			<path class="st3" d="M652.9,449H95.5c-19.7,0-37.6-11.4-46-29.3c-5.3-11.3-9-23.1-9.8-35.2c-1.5-23.2,6.7-47.7,24.9-62.2
				c16-12.7,37.1-16.3,56.6-22.3c19.5-5.9,40.1-16.5,47-35.8c9.9-27.6-12.8-55.1-20.5-83.4c-9-33,4.8-71,33-90.4
				c28.2-19.4,68.6-18.9,96.3,1.2c17.9,13,29.7,32.4,43.2,50c13.4,17.5,30.4,34.4,52.1,38.5c28.8,5.4,56.2-13.2,79.6-30.8
				c23.5-17.6,50.5-36.4,79.5-31.4c18.3,3.1,34.3,16,42.6,32.5c8.4,16.6,9.4,36.3,4.4,54.2c-4.1,14.8-12.1,28.3-17.1,42.9
				c-4.9,14.6-6.4,31.7,2.1,44.5c10.6,16.2,26.6,26.5,45.4,31.4c18.7,4.9,38.5,6.9,55.7,15.8c17.3,9.1,30.9,25.2,36.8,43.8
				c0.2,0.6,0.4,1.2,0.5,1.8C711.1,417.1,686.4,449,652.9,449z"/>
		</g>
		<g class="st1">
			<g>
				<path class="st4" d="M273,190.9c-0.9-8.9-8.9-16.1-17.8-16.1l-131.2-7.3l-10.6,10.7c-0.6,0.5-1.2,1.1-1.7,1.7l-0.2,0.2l0,0
					c-2.3,2.8-3.4,6.6-3,10.7l26.8,251.8c0.9,8.9,8.9,16.1,17.8,16.1h132.4c4,0,7.5-1.5,10.1-3.9l0,0l13-13.1L273,190.9z"/>
				<path class="st5" d="M297.3,446.9H164.9c-8.9,0-16.9-7.2-17.8-16.1L120.3,179c-0.9-8.9,5.5-16.1,14.4-16.1h132.4
					c8.9,0,16.9,7.2,17.8,16.1l26.8,251.8C312.6,439.7,306.2,446.9,297.3,446.9z"/>
				<path class="st6" d="M164.9,437.5c-4.1,0-8-3.6-8.5-7.7L129.6,178c-0.2-1.7,0.2-3.1,1.2-4.1c0.9-1,2.3-1.6,3.9-1.6h132.4
					c4.1,0,8,3.6,8.5,7.7l26.8,251.8c0.2,1.7-0.2,3.1-1.2,4.1c-0.9,1-2.3,1.6-3.9,1.6H164.9z"/>
				<circle class="st2" cx="201.5" cy="167.5" r="2.4"/>
				<path class="st7" d="M236.8,455.6h-17.1c-1.3,0-2.3-1-2.3-2.3l0,0c0-1.3,1-2.3,2.3-2.3h17.1c1.3,0,2.3,1,2.3,2.3l0,0
					C239,454.6,238,455.6,236.8,455.6z"/>
			</g>
			<g>
				<g>
					<path class="st8" d="M167.9,406.5l-8.3-73.6c-0.6-5.1,3.7-9.5,9.1-9.5h102.7c4.7,0,8.6,3.3,9.1,7.7l8.3,73.6
						c0.6,5.1-3.7,9.5-9.1,9.5H177C172.3,414.2,168.4,410.9,167.9,406.5z"/>
					<g>
						<path class="st8" d="M177.5,428.2c-0.7-0.4-1.3-0.9-1.7-1.6c-0.5-0.7-0.7-1.6-0.9-2.6c-0.1-1-0.1-1.8,0.2-2.6
							c0.3-0.7,0.7-1.3,1.3-1.6c0.6-0.4,1.3-0.6,2.1-0.6c0.8,0,1.5,0.2,2.2,0.6c0.7,0.4,1.3,0.9,1.7,1.6c0.5,0.7,0.7,1.6,0.9,2.6
							c0.1,1,0.1,1.8-0.2,2.6c-0.3,0.7-0.7,1.3-1.3,1.6c-0.6,0.4-1.3,0.6-2.1,0.6C179,428.8,178.2,428.6,177.5,428.2z M180.5,426
							c0.2-0.4,0.3-1.1,0.1-2c-0.1-0.9-0.3-1.6-0.7-2c-0.3-0.4-0.7-0.6-1.2-0.6c-0.5,0-0.8,0.2-1,0.6c-0.2,0.4-0.3,1.1-0.1,2
							c0.1,0.9,0.3,1.6,0.7,2c0.3,0.4,0.7,0.6,1.2,0.6C179.9,426.6,180.3,426.4,180.5,426z"/>
						<path class="st8" d="M186.8,428.2c-0.7-0.4-1.3-0.9-1.7-1.6c-0.5-0.7-0.7-1.6-0.9-2.6c-0.1-1-0.1-1.8,0.2-2.6
							c0.3-0.7,0.7-1.3,1.3-1.6c0.6-0.4,1.3-0.6,2.1-0.6c0.8,0,1.5,0.2,2.2,0.6c0.7,0.4,1.3,0.9,1.7,1.6c0.5,0.7,0.7,1.6,0.9,2.6
							c0.1,1,0.1,1.8-0.2,2.6c-0.3,0.7-0.7,1.3-1.3,1.6c-0.6,0.4-1.3,0.6-2.1,0.6C188.2,428.8,187.5,428.6,186.8,428.2z
							 M189.7,426.1c0.2-0.4,0.3-1.1,0.1-2c-0.1-0.9-0.3-1.6-0.7-2c-0.3-0.4-0.7-0.6-1.2-0.6c-0.5,0-0.8,0.2-1,0.6
							c-0.2,0.4-0.3,1.1-0.1,2c0.1,0.9,0.3,1.6,0.7,2c0.3,0.4,0.7,0.6,1.2,0.6C189.2,426.7,189.5,426.5,189.7,426.1z"/>
						<path class="st8" d="M196.1,428.3c-0.7-0.4-1.3-0.9-1.7-1.6c-0.5-0.7-0.7-1.6-0.9-2.6c-0.1-1-0.1-1.8,0.2-2.6
							c0.3-0.7,0.7-1.3,1.3-1.6c0.6-0.4,1.3-0.6,2.1-0.6c0.8,0,1.5,0.2,2.2,0.6c0.7,0.4,1.3,0.9,1.7,1.6c0.5,0.7,0.7,1.6,0.9,2.6
							c0.1,1,0.1,1.8-0.2,2.6c-0.3,0.7-0.7,1.3-1.3,1.6c-0.6,0.4-1.3,0.6-2.1,0.6C197.5,428.8,196.7,428.6,196.1,428.3z M199,426.1
							c0.2-0.4,0.3-1.1,0.1-2c-0.1-0.9-0.3-1.6-0.7-2c-0.3-0.4-0.7-0.6-1.2-0.6c-0.5,0-0.8,0.2-1,0.6c-0.2,0.4-0.3,1.1-0.1,2
							c0.1,0.9,0.3,1.6,0.7,2c0.3,0.4,0.7,0.6,1.2,0.6C198.5,426.7,198.8,426.5,199,426.1z"/>
						<path class="st8" d="M209.3,428.3c-0.7-0.4-1.3-0.9-1.7-1.6c-0.5-0.7-0.7-1.6-0.9-2.6c-0.1-1-0.1-1.8,0.2-2.6
							c0.3-0.7,0.7-1.3,1.3-1.6c0.6-0.4,1.3-0.6,2.1-0.6c0.8,0,1.5,0.2,2.2,0.6c0.7,0.4,1.3,0.9,1.7,1.6c0.5,0.7,0.7,1.6,0.9,2.6
							c0.1,1,0.1,1.8-0.2,2.6c-0.3,0.7-0.7,1.3-1.3,1.6c-0.6,0.4-1.3,0.6-2.1,0.6C210.7,428.9,209.9,428.7,209.3,428.3z
							 M212.2,426.1c0.2-0.4,0.3-1.1,0.1-2c-0.1-0.9-0.3-1.6-0.7-2c-0.3-0.4-0.7-0.6-1.2-0.6c-0.5,0-0.8,0.2-1,0.6
							c-0.2,0.4-0.3,1.1-0.1,2c0.1,0.9,0.3,1.6,0.7,2c0.3,0.4,0.7,0.6,1.2,0.6C211.7,426.8,212,426.6,212.2,426.1z"/>
						<path class="st8" d="M219.3,419.6l1.3,9.1l-2.7,0l-1-7.1l-1.8,0l-0.3-2L219.3,419.6z"/>
						<path class="st8" d="M229,426.7l0.3,2.1l-7.4,0l-0.2-1.6l3.1-3.2c0.3-0.3,0.5-0.6,0.6-0.8c0.1-0.2,0.1-0.4,0.1-0.7
							c0-0.3-0.2-0.5-0.4-0.7c-0.2-0.2-0.5-0.3-0.9-0.3c-0.4,0-0.7,0.1-0.9,0.2c-0.3,0.2-0.5,0.4-0.6,0.7l-2.1-1.1
							c0.3-0.6,0.7-1.1,1.4-1.4c0.6-0.3,1.4-0.5,2.3-0.5c0.7,0,1.4,0.1,2,0.3c0.6,0.2,1.1,0.6,1.4,1c0.4,0.4,0.6,0.9,0.7,1.5
							c0.1,0.5,0,1-0.1,1.4c-0.2,0.4-0.5,0.9-1.1,1.5l-1.6,1.6L229,426.7z"/>
						<path class="st8" d="M235.9,428.4c-0.7-0.4-1.3-0.9-1.7-1.6c-0.5-0.7-0.7-1.6-0.9-2.6c-0.1-1-0.1-1.8,0.2-2.6
							c0.3-0.7,0.7-1.3,1.3-1.6c0.6-0.4,1.3-0.6,2.1-0.6c0.8,0,1.5,0.2,2.2,0.6c0.7,0.4,1.3,0.9,1.7,1.6c0.5,0.7,0.7,1.6,0.9,2.6
							c0.1,1,0.1,1.8-0.2,2.6c-0.3,0.7-0.7,1.3-1.3,1.6c-0.6,0.4-1.3,0.6-2.1,0.6C237.4,429,236.6,428.8,235.9,428.4z M238.9,426.3
							c0.2-0.4,0.3-1.1,0.1-2c-0.1-0.9-0.3-1.6-0.7-2c-0.3-0.4-0.7-0.6-1.2-0.6c-0.5,0-0.8,0.2-1,0.6c-0.2,0.4-0.3,1.1-0.1,2
							c0.1,0.9,0.3,1.6,0.7,2c0.3,0.4,0.7,0.6,1.2,0.6C238.4,426.9,238.7,426.7,238.9,426.3z"/>
						<path class="st8" d="M246,419.7l1.3,9.1l-2.7,0l-1-7.1l-1.8,0l-0.3-2L246,419.7z"/>
						<path class="st8" d="M254.4,423.9c0.7,0.5,1.1,1.2,1.2,2.1c0.1,0.6,0,1.1-0.2,1.6s-0.6,0.9-1.2,1.1c-0.6,0.3-1.3,0.4-2.2,0.4
							c-0.7,0-1.3-0.1-2-0.2c-0.7-0.2-1.3-0.4-1.8-0.7l0.7-1.9c0.4,0.2,0.9,0.4,1.3,0.6c0.5,0.1,0.9,0.2,1.4,0.2
							c0.5,0,0.8-0.1,1.1-0.3c0.3-0.2,0.4-0.4,0.3-0.7c0-0.3-0.2-0.5-0.5-0.7c-0.3-0.2-0.8-0.2-1.5-0.2l-2.6,0l-0.3-5.3l6,0l0.3,2
							l-3.8,0l0.1,1.3l0.6,0C252.7,423.1,253.7,423.3,254.4,423.9z"/>
						<path class="st8" d="M269.5,427.2l-1.4,0l0.2,1.8l-2.6,0l-0.2-1.8l-5,0l-0.2-1.7l3.5-5.7l2.8,0l-3.1,5.3l1.9,0l-0.2-1.6l2.5,0
							l0.2,1.6l1.4,0L269.5,427.2z"/>
						<path class="st8" d="M276.2,419.9l0.2,1.6l-2.3,7.5l-2.9,0l2.2-7.1l-2.5,0l0.2,1.4l-2.3,0l-0.5-3.5L276.2,419.9z"/>
						<path class="st8" d="M285.3,425.1c0.3,0.4,0.5,0.8,0.5,1.2c0.1,0.6,0,1.1-0.3,1.5c-0.3,0.4-0.7,0.8-1.3,1
							c-0.6,0.2-1.3,0.3-2.1,0.3c-0.8,0-1.5-0.1-2.2-0.4c-0.7-0.2-1.2-0.6-1.6-1c-0.4-0.4-0.6-0.9-0.7-1.5c-0.1-0.5,0-0.9,0.2-1.2
							c0.2-0.4,0.5-0.7,0.9-0.9c-0.4-0.2-0.6-0.5-0.9-0.8c-0.2-0.3-0.4-0.7-0.4-1c-0.1-0.5,0-1,0.3-1.4c0.3-0.4,0.7-0.7,1.2-0.9
							c0.5-0.2,1.2-0.3,1.9-0.3c0.7,0,1.4,0.1,2,0.3c0.6,0.2,1.1,0.5,1.5,0.9c0.4,0.4,0.6,0.9,0.7,1.4c0.1,0.4,0,0.7-0.1,1
							c-0.1,0.3-0.3,0.6-0.6,0.8C284.7,424.5,285.1,424.8,285.3,425.1z M280.3,421.8c-0.2,0.2-0.3,0.4-0.2,0.7
							c0,0.3,0.2,0.5,0.4,0.7c0.2,0.2,0.5,0.3,0.9,0.3c0.3,0,0.6-0.1,0.8-0.3c0.2-0.2,0.3-0.4,0.2-0.7c0-0.3-0.2-0.5-0.4-0.7
							c-0.2-0.2-0.5-0.3-0.9-0.3C280.8,421.5,280.5,421.6,280.3,421.8z M282.9,427.1c0.2-0.2,0.3-0.5,0.3-0.8c0-0.3-0.2-0.6-0.5-0.8
							c-0.3-0.2-0.6-0.3-1.1-0.3c-0.4,0-0.8,0.1-1,0.3c-0.2,0.2-0.3,0.5-0.3,0.8c0,0.3,0.2,0.6,0.5,0.8c0.3,0.2,0.6,0.3,1.1,0.3
							C282.3,427.4,282.7,427.3,282.9,427.1z"/>
					</g>
				</g>
				<path class="st8" d="M259.4,192.2H148.4c-2.9,0-5.3-2.2-5.6-5l0,0c-0.4-3.4,2.3-6.3,5.6-6.3h110.9c2.9,0,5.3,2.2,5.6,5l0,0
					C265.4,189.2,262.8,192.2,259.4,192.2z"/>
				<path class="st8" d="M261.4,208.3H150.5c-2.9,0-5.3-2.2-5.6-5l0,0c-0.4-3.4,2.3-6.3,5.6-6.3h110.9c2.9,0,5.3,2.2,5.6,5v0
					C267.4,205.4,264.8,208.3,261.4,208.3z"/>
			</g>
			<linearGradient id="SVGID_3_" gradientUnits="userSpaceOnUse" x1="118.302" y1="327.0615" x2="622.3933" y2="141.3812">
				<stop  offset="0" style="stop-color:#4AB7D6;stop-opacity:0.6"/>
				<stop  offset="1" style="stop-color:#FFFFFF;stop-opacity:0"/>
			</linearGradient>
			<path class="st9" d="M301.2,435.9c-0.9,1-2.3,1.6-3.9,1.6H164.9c-4.1,0-8-3.6-8.5-7.7L129.6,178c-0.2-1.7,0.2-3.1,1.2-4.1L524-85
				l183.6,457.7L301.2,435.9z"/>
			<g>
				<g>
					<path class="st10" d="M252.4,263.5c4.1,23.6-11.7,43.9-35.3,45.3c-23.6,1.4-46.1-16.7-50.2-40.3c-4.1-23.6,11.7-43.9,35.3-45.3
						C225.8,221.8,248.3,239.8,252.4,263.5z"/>
					<path class="st11" d="M257.1,258.8c4.1,23.6-11.7,43.9-35.3,45.3c-23.6,1.4-46.1-16.7-50.2-40.3c-4.1-23.6,11.7-43.9,35.3-45.3
						S252.9,235.2,257.1,258.8z"/>
					<path class="st12" d="M220.5,296.8c-19.5,1.1-38.2-13.8-41.6-33.4c-3.4-19.5,9.7-36.4,29.2-37.5c19.5-1.1,38.2,13.8,41.6,33.4
						C253.1,278.8,240,295.6,220.5,296.8z"/>
					<path class="st10" d="M249.7,259.3c3.4,19.5-9.7,36.4-29.2,37.5c-0.9,0.1-1.8,0.1-2.7,0.1c18-2.4,29.8-18.6,26.6-37.2
						c-3.3-18.6-20.4-33.1-38.9-33.4c0.9-0.1,1.7-0.2,2.6-0.2C227.6,224.8,246.3,239.7,249.7,259.3z"/>
				</g>
				<path class="st10" d="M232.7,269c-0.3-1.9-1-3.4-2.2-4.7c-1.2-1.2-2.6-2.2-4.4-2.7c0,0,0,0,0,0c0,0,0,0,0.1-0.1c0,0,0,0,0.1-0.1
					c0,0,0,0,0.1-0.1c0,0,0,0,0.1-0.1c0,0,0,0,0.1-0.1c0,0,0,0,0.1-0.1c0,0,0,0,0.1-0.1c0,0,0,0,0.1-0.1c0,0,0,0,0.1-0.1
					c0.8-0.6,1.4-1.4,1.8-2.3c0.6-1.2,0.7-2.5,0.5-4c-0.4-2.5-1.7-4.4-4-5.8c-1.8-1.1-4.1-1.7-6.9-1.9l-0.6-3.9l-5.2,0.1l0,0.1
					l-0.1,0l0,0.1l-0.1,0l0,0.1l-0.1,0l0,0.1l-0.1,0l0,0.1l-0.1,0l0,0.1l-0.1,0l0,0.1l-0.1,0l0,0.1l-0.1,0l0,0.1l-0.1,0l0,0.1
					l-0.1,0l0,0.1l-0.1,0l0,0.1l-0.1,0l0,0.1l-0.1,0l0,0.1l-0.1,0l0,0.1l-0.1,0l0,0.1l-0.1,0l0,0.1l-0.1,0l0,0.1l-0.1,0l0,0.1
					l-0.1,0l0,0.1l-0.1,0l0,0.1l-0.1,0l0,0.1l-0.1,0l0,0.1l-0.1,0l0,0.1l-0.1,0l0,0.1l-0.1,0l0,0.1l-0.1,0l0,0.1l-0.1,0l0,0.1
					l-0.1,0l0,0.1l-0.1,0l0,0.1l-0.1,0l0,0.1l-0.1,0l0.3,1.8l-0.3,0l-0.5-3.8l-5.2,0.1l0,0.1l-0.1,0l0,0.1l-0.1,0l0,0.1l-0.1,0
					l0,0.1l-0.1,0l0,0.1l-0.1,0l0,0.1l-0.1,0l0,0.1l-0.1,0l0,0.1l-0.1,0l0,0.1l-0.1,0l0,0.1l-0.1,0l0,0.1l-0.1,0l0,0.1l-0.1,0l0,0.1
					l-0.1,0l0,0.1l-0.1,0l0,0.1l-0.1,0l0,0.1l-0.1,0l0,0.1l-0.1,0l0,0.1l-0.1,0l0,0.1l-0.1,0l0,0.1l-0.1,0l0,0.1l-0.1,0l0,0.1
					l-0.1,0l0,0.1l-0.1,0l0,0.1l-0.1,0l0,0.1l-0.1,0l0,0.1l-0.1,0l0,0.1l-0.1,0l0,0.1l-0.1,0l0,0.1l-0.1,0l0,0.1l-0.1,0l0,0.1
					l-0.1,0l0.3,1.8l-6.7,0.2l0,0.1l-0.1,0l0,0.1l-0.1,0l0,0.1l-0.1,0l0,0.1l-0.1,0l0,0.1l-0.1,0l0,0.1l-0.1,0l0,0.1l-0.1,0l0,0.1
					l-0.1,0l0,0.1l-0.1,0l0,0.1l-0.1,0l0,0.1l-0.1,0l0,0.1l-0.1,0l0,0.1l-0.1,0l0,0.1l-0.1,0l0,0.1l-0.1,0l0,0.1l-0.1,0l0,0.1
					l-0.1,0l0,0.1l-0.1,0l0,0.1l-0.1,0l0,0.1l-0.1,0l0,0.1l-0.1,0l0,0.1l-0.1,0l0,0.1l-0.1,0l0,0.1l-0.1,0l0,0.1l-0.1,0l0,0.1
					l-0.1,0l0,0.1l-0.1,0l0,0.1l-0.1,0l0,0.1l-0.1,0l0,0.1l-0.1,0l0,0.1l-0.1,0l0.7,4.9l4.2-0.1l2.7,19.2l-1.5,0l0,0.1l-0.1,0l0,0.1
					l-0.1,0l0,0.1l-0.1,0l0,0.1l-0.1,0l0,0.1l-0.1,0l0,0.1l-0.1,0l0,0.1l-0.1,0l0,0.1l-0.1,0l0,0.1l-0.1,0l0,0.1l-0.1,0l0,0.1
					l-0.1,0l0,0.1l-0.1,0l0,0.1l-0.1,0l0,0.1l-0.1,0l0,0.1l-0.1,0l0,0.1l-0.1,0l0,0.1l-0.1,0l0,0.1l-0.1,0l0,0.1l-0.1,0l0,0.1
					l-0.1,0l0,0.1l-0.1,0l0,0.1l-0.1,0l0,0.1l-0.1,0l0,0.1l-0.1,0l0,0.1l-0.1,0l0,0.1l-0.1,0l0,0.1l-0.1,0l0,0.1l-0.1,0l0,0.1
					l-0.1,0l0,0.1l-0.1,0l0,0.1l-0.1,0l0.7,4.9l9.3-0.2l0.6,4.1l5.2-0.1l0-0.1l0.1,0l0-0.1l0.1,0l0-0.1l0.1,0l0-0.1l0.1,0l0-0.1
					l0.1,0l0-0.1l0.1,0l0-0.1l0.1,0l0-0.1l0.1,0l0-0.1l0.1,0l0-0.1l0.1,0l0-0.1l0.1,0l0-0.1l0.1,0l0-0.1l0.1,0l0-0.1l0.1,0l0-0.1
					l0.1,0l0-0.1l0.1,0l0-0.1l0.1,0l0-0.1l0.1,0l0-0.1l0.1,0l0-0.1l0.1,0l0-0.1l0.1,0l0-0.1l0.1,0l0-0.1l0.1,0l0-0.1l0.1,0l0-0.1
					l0.1,0l0-0.1l0.1,0l0-0.1l0.1,0l0-0.1l0.1,0l0-0.1l0.1,0l0-0.1l0.1,0l0-0.1l0.1,0L215,280l0.3,0l0.6,4.1l5.2-0.1l0-0.1l0.1,0
					l0-0.1l0.1,0l0-0.1l0.1,0l0-0.1l0.1,0l0-0.1l0.1,0l0-0.1l0.1,0l0-0.1l0.1,0l0-0.1l0.1,0l0-0.1l0.1,0l0-0.1l0.1,0l0-0.1l0.1,0
					l0-0.1l0.1,0l0-0.1l0.1,0l0-0.1l0.1,0l0-0.1l0.1,0l0-0.1l0.1,0l0-0.1l0.1,0l0-0.1l0.1,0l0-0.1l0.1,0l0-0.1l0.1,0l0-0.1l0.1,0
					l0-0.1l0.1,0l0-0.1l0.1,0l0-0.1l0.1,0l0-0.1l0.1,0l0-0.1l0.1,0l0-0.1l0.1,0l0-0.1l0.1,0l0-0.1l0.1,0l0-0.1l0.1,0l0-0.1l0.1,0
					l-0.4-2.5c2.1-0.4,3.8-1.1,5-2c0.2-0.2,0.5-0.4,0.7-0.6c0,0,0.1,0,0.1-0.1c0,0,0.1,0,0.1-0.1c0,0,0.1,0,0.1-0.1
					c0,0,0.1,0,0.1-0.1c0,0,0.1,0,0.1-0.1c0,0,0.1,0,0.1-0.1c0,0,0.1,0,0.1-0.1c0,0,0.1,0,0.1-0.1c0,0,0.1,0,0.1-0.1
					c0,0,0.1,0,0.1-0.1c0,0,0.1,0,0.1-0.1c0,0,0.1,0,0.1-0.1c0,0,0.1,0,0.1-0.1c0,0,0.1,0,0.1-0.1c0,0,0.1,0,0.1-0.1
					c0,0,0.1,0,0.1-0.1c0,0,0.1,0,0.1-0.1c0,0,0.1,0,0.1-0.1c0,0,0.1,0,0.1-0.1c0,0,0.1,0,0.1-0.1c0,0,0.1,0,0.1-0.1
					c0,0,0.1,0,0.1-0.1c0,0,0.1,0,0.1-0.1c0,0,0.1,0,0.1-0.1c0,0,0.1,0,0.1-0.1c0,0,0.1,0,0.1-0.1c0,0,0.1,0,0.1-0.1
					c0,0,0.1,0,0.1-0.1c0,0,0.1,0,0.1-0.1c0,0,0.1,0,0.1-0.1C232.5,273.4,233.1,271.4,232.7,269z M213.3,255.3
					c2.9-0.1,4.6,0.9,4.9,2.9c0,0.3,0,0.6,0,0.9c-0.5,0.1-1,0.2-1.7,0.2l-6,0.2l-0.6-4L213.3,255.3z M211.6,267.4l4.7-0.1
					c3.1-0.1,4.8,0.9,5.1,3c0.1,0.4,0,0.7,0,1c-0.5,0.1-1.1,0.2-1.8,0.2l-7.4,0.2L211.6,267.4z"/>
				<path class="st11" d="M230.5,264.3c-1.2-1.3-2.7-2.2-4.6-2.8c1.2-0.7,2.1-1.7,2.7-2.8c0.6-1.2,0.7-2.5,0.5-4
					c-0.4-2.5-1.7-4.4-4-5.8c-1.8-1.1-4.1-1.7-6.9-1.9l-0.6-3.9l-5.2,0.1l0.5,3.8l-2.9,0.1l-0.5-3.8l-5.2,0.1l0.5,3.8l-9.3,0.2
					l0.7,4.9l4.2-0.1l3,21.2l-4.2,0.1l0.7,4.9l9.3-0.2l0.6,4.1l5.2-0.1l-0.6-4.1l2.9-0.1l0.6,4.1l5.2-0.1l-0.6-4.2
					c3.4-0.3,5.9-1,7.6-2.4c2-1.5,2.8-3.7,2.4-6.4C232.5,267.2,231.7,265.6,230.5,264.3z M209.6,253.4l6-0.2
					c2.9-0.1,4.6,0.9,4.9,2.9c0.3,2-1.1,3-4,3.1l-6,0.2L209.6,253.4z M219.5,271.5l-7.4,0.2l-0.9-6.3l7.4-0.2c3.1-0.1,4.8,0.9,5.1,3
					C224,270.4,222.6,271.5,219.5,271.5z"/>
			</g>
			<g>
				<g>
					<path class="st12" d="M342.3,149.7c20.6-11.8,46.9-4.7,58.7,15.9c11.8,20.6,4.7,46.9-15.9,58.7l-8.7,5l-1-1.7l-40.8-71.2
						l-1-1.7L342.3,149.7z"/>
					<circle class="st11" cx="354.1" cy="192.5" r="43"/>
					<path class="st12" d="M371.8,223.4c17-9.8,22.9-31.6,13.2-48.6s-31.6-22.9-48.6-13.2c-17,9.8-22.9,31.6-13.2,48.6
						C333,227.3,354.8,233.2,371.8,223.4z"/>
					<path class="st10" d="M323.2,210.3c9.8,17,31.6,22.9,48.6,13.2c0.8-0.4,1.5-0.9,2.3-1.4c-16.6,8-36.9,1.8-46.2-14.4
						c-9.3-16.2-4.4-36.8,10.9-47.2c-0.8,0.4-1.6,0.8-2.4,1.2C319.3,171.4,313.4,193.2,323.2,210.3z"/>
				</g>
				<g>
					<path class="st10" d="M372,184.7c-1.6-0.7-3.4-0.8-5.3-0.5c0.9-1.3,1.3-2.7,1.4-4.1c0-1.4-0.3-2.8-1.1-4.2
						c-1.3-2.3-3.3-3.5-5.9-3.8c-2.1-0.2-4.4,0.3-7.1,1.5l-2-3.5l-15.9,9.1l2,3.4l-8.4,4.8l2.6,4.5l3.8-2.2l11.1,19.3l-3.8,2.2
						l2.6,4.5l8.4-4.8l2.2,3.8l15.9-9.1l-2.2-3.8c3-1.9,5-4,6.1-6.1c1.2-2.5,1.1-5-0.3-7.4C374.9,186.6,373.6,185.4,372,184.7z
						 M344.6,186.7l5.5-3.1c2.7-1.5,4.5-1.4,5.6,0.4c1,1.8,0.2,3.5-2.5,5.1l-5.5,3.1L344.6,186.7z M360.8,199.5l-6.7,3.8l-3.3-5.7
						l6.7-3.8c2.8-1.6,4.7-1.4,5.8,0.5C364.5,196.2,363.6,197.9,360.8,199.5z"/>
					<path class="st11" d="M368.1,187c-1.6-0.7-3.4-0.8-5.3-0.5c0.9-1.3,1.3-2.7,1.4-4.1c0.1-1.4-0.3-2.8-1.1-4.2
						c-1.3-2.3-3.3-3.5-5.9-3.8c-2.1-0.2-4.4,0.3-7.1,1.5l-2-3.5l-4.7,2.7l2,3.4l-2.6,1.5l-2-3.4l-4.7,2.7l2,3.4l-8.4,4.8l2.6,4.5
						l3.8-2.2l11.1,19.3l-3.8,2.2l2.6,4.5l8.4-4.8l2.2,3.8l4.7-2.7l-2.2-3.8l2.6-1.5l2.2,3.8l4.7-2.7l-2.2-3.8c3-1.9,5-4,6.1-6.1
						c1.2-2.5,1.1-5-0.3-7.4C371,188.8,369.7,187.6,368.1,187z M344.6,186.7l5.5-3.1c2.7-1.5,4.5-1.4,5.6,0.4c1,1.8,0.2,3.5-2.5,5.1
						l-5.5,3.1L344.6,186.7z M360.8,199.5l-6.7,3.8l-3.3-5.7l6.7-3.8c2.8-1.6,4.7-1.4,5.8,0.5C364.5,196.2,363.6,197.9,360.8,199.5z
						"/>
					<path class="st10" d="M350.8,197.6l3.3,5.7l3.9-2.2l-3.3-5.7L350.8,197.6z"/>
					<path class="st10" d="M344.6,186.7l3.1,5.4l3.9-2.2l-3.1-5.4L344.6,186.7z"/>
				</g>
			</g>
			<g>
				<g>
					<path class="st12" d="M461.3,300.8c16.9,16.6,17.2,43.9,0.6,60.8c-16.6,16.9-43.9,17.2-60.8,0.6l-7.2-7l1.4-1.4l57.5-58.5
						l1.4-1.4L461.3,300.8z"/>
					<circle class="st11" cx="423.2" cy="323.7" r="43"/>
					<path class="st12" d="M398.3,349.1c14,13.8,36.6,13.5,50.3-0.5c13.8-14,13.5-36.6-0.5-50.3c-14-13.8-36.6-13.5-50.3,0.5
						C384.1,312.8,384.3,335.3,398.3,349.1z"/>
					<path class="st10" d="M397.8,298.8c-13.8,14-13.5,36.6,0.5,50.3c0.6,0.6,1.3,1.2,2,1.8c-12.2-13.9-11.7-35,1.4-48.4
						c13.1-13.4,34.3-14.2,48.4-2.3c-0.6-0.7-1.2-1.3-1.8-1.9C434.2,284.6,411.6,284.8,397.8,298.8z"/>
				</g>
				<g>
					<path class="st10" d="M435.6,338.8c0.2-1.7-0.1-3.5-1-5.2c1.5,0.5,2.9,0.5,4.3,0.2c1.4-0.3,2.6-1.1,3.7-2.2
						c1.8-1.9,2.5-4.1,2-6.7c-0.4-2-1.5-4.2-3.4-6.4l2.8-2.9l-13.1-12.8l-2.8,2.8l-6.9-6.8l-3.6,3.7l3.1,3l-15.6,15.8l-3.1-3
						l-3.6,3.7l6.9,6.8l-3,3.1l13.1,12.8l3.1-3.1c2.6,2.4,5.2,3.7,7.5,4.2c2.7,0.5,5.1-0.3,7.1-2.3
						C434.6,342.1,435.4,340.6,435.6,338.8z M426.3,313l4.5,4.4c2.2,2.2,2.6,4,1.1,5.5c-1.5,1.5-3.3,1.2-5.5-1l-4.5-4.4L426.3,313z
						 M418.3,332.1l-5.5-5.4l4.6-4.7l5.5,5.4c2.3,2.3,2.7,4.2,1.1,5.7C422.5,334.7,420.6,334.3,418.3,332.1z"/>
					<path class="st11" d="M432.4,335.7c0.2-1.7-0.1-3.5-1-5.2c1.5,0.5,2.9,0.5,4.3,0.2c1.4-0.3,2.6-1.1,3.7-2.2
						c1.8-1.9,2.5-4.1,2-6.7c-0.4-2-1.5-4.2-3.4-6.4l2.8-2.9l-3.9-3.8l-2.8,2.8l-2.2-2.1l2.8-2.8l-3.9-3.8l-2.8,2.8l-6.9-6.8
						l-3.6,3.7l3.1,3l-15.6,15.8l-3.1-3l-3.6,3.7l6.9,6.8l-3,3.1l3.9,3.8l3-3.1l2.2,2.1l-3,3.1l3.9,3.8l3.1-3.1
						c2.6,2.4,5.2,3.7,7.5,4.2c2.7,0.5,5.1-0.3,7.1-2.3C431.4,339,432.1,337.4,432.4,335.7z M426.3,313l4.5,4.4
						c2.2,2.2,2.6,4,1.1,5.5c-1.5,1.5-3.3,1.2-5.5-1l-4.5-4.4L426.3,313z M418.3,332.1l-5.5-5.4l4.6-4.7l5.5,5.4
						c2.3,2.3,2.7,4.2,1.1,5.7C422.5,334.7,420.6,334.3,418.3,332.1z"/>
					<path class="st10" d="M417.4,322l-4.6,4.7l3.2,3.2l4.6-4.7L417.4,322z"/>
					<path class="st10" d="M426.3,313l-4.4,4.5l3.2,3.2l4.4-4.5L426.3,313z"/>
				</g>
			</g>
			<g>
				<g>
					<path class="st12" d="M512.2,219.2c-11.4,15.3-33.1,18.4-48.3,6.9c-15.3-11.4-18.4-33.1-6.9-48.3l4.8-6.5l1.3,1l52.7,39.5
						l1.3,1L512.2,219.2z"/>
					<circle class="st11" cx="489.9" cy="191.4" r="34.5"/>
					<path class="st12" d="M467,174.3c-9.4,12.6-6.9,30.5,5.7,40c12.6,9.4,30.5,6.9,40-5.7c9.4-12.6,6.9-30.5-5.7-40
						C494.4,159.1,476.5,161.7,467,174.3z"/>
					<path class="st10" d="M507,168.5c-12.6-9.4-30.5-6.9-40,5.7c-0.4,0.6-0.8,1.2-1.2,1.8c9.7-11.1,26.6-13.1,38.6-4.1
						c12,9,14.9,25.8,7,38.2c0.5-0.5,0.9-1.1,1.3-1.7C522.2,195.9,519.6,178,507,168.5z"/>
				</g>
				<g>
					<path class="st10" d="M479.2,202.8c1.4,0,2.7-0.5,4.1-1.3c-0.2,1.2-0.1,2.4,0.3,3.5c0.4,1.1,1.1,2,2.1,2.7
						c1.7,1.2,3.5,1.5,5.5,0.9c1.6-0.5,3.2-1.6,4.7-3.4l2.6,2l8.8-11.8l-2.5-1.9l4.7-6.2l-3.3-2.5l-2.1,2.8l-14.3-10.7l2.1-2.8
						l-3.3-2.5l-4.7,6.2l-2.8-2.1l-8.8,11.8l2.8,2.1c-1.6,2.4-2.4,4.5-2.5,6.4c-0.1,2.2,0.8,4,2.6,5.4
						C476.5,202.4,477.8,202.9,479.2,202.8z M498.8,192.7l-3,4.1c-1.5,2-2.9,2.5-4.2,1.5c-1.4-1-1.3-2.5,0.2-4.5l3-4.1L498.8,192.7z
						 M482.7,188.4l3.7-5l4.2,3.2l-3.7,5c-1.5,2.1-3,2.6-4.4,1.5C481.1,192,481.2,190.5,482.7,188.4z"/>
					<path class="st11" d="M481.3,199.9c1.4,0,2.7-0.5,4.1-1.3c-0.2,1.2-0.1,2.4,0.3,3.5c0.4,1.1,1.1,2,2.1,2.7
						c1.7,1.2,3.5,1.5,5.5,0.9c1.6-0.5,3.2-1.6,4.7-3.4l2.6,2l2.6-3.5l-2.5-1.9l1.5-1.9l2.5,1.9l2.6-3.5l-2.5-1.9l4.7-6.2l-3.3-2.5
						l-2.1,2.8l-14.3-10.7l2.1-2.8l-3.3-2.5l-4.7,6.2l-2.8-2.1l-2.6,3.5l2.8,2.1l-1.5,1.9l-2.8-2.1l-2.6,3.5l2.8,2.1
						c-1.6,2.4-2.4,4.5-2.5,6.4c-0.1,2.2,0.8,4,2.6,5.4C478.6,199.5,479.9,200,481.3,199.9z M498.8,192.7l-3,4.1
						c-1.5,2-2.9,2.5-4.2,1.5c-1.4-1-1.3-2.5,0.2-4.5l3-4.1L498.8,192.7z M482.7,188.4l3.7-5l4.2,3.2l-3.7,5c-1.5,2.1-3,2.6-4.4,1.5
						C481.1,192,481.2,190.5,482.7,188.4z"/>
					<path class="st10" d="M490.6,186.6l-4.2-3.2l-2.2,2.9l4.2,3.2L490.6,186.6z"/>
					<path class="st10" d="M498.8,192.7l-4-3l-2.2,2.9l4,3L498.8,192.7z"/>
				</g>
			</g>
			<g>
				<path class="st11" d="M442.1,439H332.3c-1.5,0-2.8,1.3-2.8,2.8v14.7c0,1.5,1.3,2.8,2.8,2.8h109.9c1.5,0,2.8-1.3,2.8-2.8v-14.7
					C444.9,440.2,443.7,439,442.1,439z"/>
				<rect x="338.4" y="439" class="st12" width="11.2" height="20.3"/>
				<rect x="360" y="439" class="st12" width="11.2" height="20.3"/>
				<rect x="381.6" y="439" class="st12" width="11.2" height="20.3"/>
				<rect x="403.2" y="439" class="st12" width="11.2" height="20.3"/>
				<rect x="424.7" y="439" class="st12" width="11.2" height="20.3"/>
				<path class="st13" d="M442.1,439H332.3c-1.5,0-2.8,1.3-2.8,2.8v14.7c0,1.5,1.3,2.8,2.8,2.8h109.9c1.5,0,2.8-1.3,2.8-2.8v-14.7
					C444.9,440.2,443.7,439,442.1,439z"/>
			</g>
			<g>
				<path class="st11" d="M696.8,439H586.9c-1.5,0-2.8,1.3-2.8,2.8v14.7c0,1.5,1.3,2.8,2.8,2.8h109.9c1.5,0,2.8-1.3,2.8-2.8v-14.7
					C699.6,440.2,698.3,439,696.8,439z"/>
				<rect x="593.1" y="439" class="st12" width="11.2" height="20.3"/>
				<rect x="614.7" y="439" class="st12" width="11.2" height="20.3"/>
				<rect x="636.3" y="439" class="st12" width="11.2" height="20.3"/>
				<rect x="657.8" y="439" class="st12" width="11.2" height="20.3"/>
				<rect x="679.4" y="439" class="st12" width="11.2" height="20.3"/>
				<path class="st13" d="M696.8,439H586.9c-1.5,0-2.8,1.3-2.8,2.8v14.7c0,1.5,1.3,2.8,2.8,2.8h109.9c1.5,0,2.8-1.3,2.8-2.8v-14.7
					C699.6,440.2,698.3,439,696.8,439z"/>
			</g>
			<g>
				<path class="st11" d="M679.1,418.4H569.2c-1.5,0-2.8,1.3-2.8,2.8v14.7c0,1.5,1.3,2.8,2.8,2.8h109.9c1.5,0,2.8-1.3,2.8-2.8v-14.7
					C681.9,419.7,680.6,418.4,679.1,418.4z"/>
				<rect x="575.4" y="418.4" class="st12" width="11.2" height="20.3"/>
				<rect x="597" y="418.4" class="st12" width="11.2" height="20.3"/>
				<rect x="618.6" y="418.4" class="st12" width="11.2" height="20.3"/>
				<rect x="640.1" y="418.4" class="st12" width="11.2" height="20.3"/>
				<rect x="661.7" y="418.4" class="st12" width="11.2" height="20.3"/>
				<path class="st13" d="M679.1,418.4H569.2c-1.5,0-2.8,1.3-2.8,2.8v14.7c0,1.5,1.3,2.8,2.8,2.8h109.9c1.5,0,2.8-1.3,2.8-2.8v-14.7
					C681.9,419.7,680.6,418.4,679.1,418.4z"/>
			</g>
			<g>
				<path class="st11" d="M718.4,398.1H608.5c-1.5,0-2.8,1.3-2.8,2.8v14.7c0,1.5,1.3,2.8,2.8,2.8h109.9c1.5,0,2.8-1.3,2.8-2.8v-14.7
					C721.2,399.4,719.9,398.1,718.4,398.1z"/>
				<rect x="614.7" y="398.1" class="st12" width="11.2" height="20.3"/>
				<rect x="636.3" y="398.1" class="st12" width="11.2" height="20.3"/>
				<rect x="657.8" y="398.1" class="st12" width="11.2" height="20.3"/>
				<rect x="679.4" y="398.1" class="st12" width="11.2" height="20.3"/>
				<rect x="701" y="398.1" class="st12" width="11.2" height="20.3"/>
				<path class="st13" d="M718.4,398.1H608.5c-1.5,0-2.8,1.3-2.8,2.8v14.7c0,1.5,1.3,2.8,2.8,2.8h109.9c1.5,0,2.8-1.3,2.8-2.8v-14.7
					C721.2,399.4,719.9,398.1,718.4,398.1z"/>
			</g>
			<g>
				<path class="st11" d="M457,418.6H347.1c-1.5,0-2.8,1.3-2.8,2.8v14.7c0,1.5,1.3,2.8,2.8,2.8H457c1.5,0,2.8-1.3,2.8-2.8v-14.7
					C459.8,419.9,458.5,418.6,457,418.6z"/>
				<rect x="353.3" y="418.6" class="st12" width="11.2" height="20.3"/>
				<rect x="374.9" y="418.6" class="st12" width="11.2" height="20.3"/>
				<rect x="396.4" y="418.6" class="st12" width="11.2" height="20.3"/>
				<rect x="418" y="418.6" class="st12" width="11.2" height="20.3"/>
				<rect x="439.6" y="418.6" class="st12" width="11.2" height="20.3"/>
				<path class="st13" d="M457,418.6H347.1c-1.5,0-2.8,1.3-2.8,2.8v14.7c0,1.5,1.3,2.8,2.8,2.8H457c1.5,0,2.8-1.3,2.8-2.8v-14.7
					C459.8,419.9,458.5,418.6,457,418.6z"/>
			</g>
			<g>
				<path class="st11" d="M549.1,440.2l-99.3-47c-1.4-0.7-3.1-0.1-3.7,1.3l-6.3,13.3c-0.7,1.4-0.1,3.1,1.3,3.7l99.3,47
					c1.4,0.7,3.1,0.1,3.7-1.3l6.3-13.3C551.1,442.6,550.5,440.9,549.1,440.2z"/>
				
					<rect x="450.5" y="397.3" transform="matrix(0.9039 0.4277 -0.4277 0.9039 218.0979 -155.9294)" class="st12" width="11.2" height="20.3"/>
				
					<rect x="470" y="406.5" transform="matrix(0.9039 0.4277 -0.4277 0.9039 223.9268 -163.3882)" class="st12" width="11.2" height="20.3"/>
				
					<rect x="489.5" y="415.8" transform="matrix(0.9039 0.4277 -0.4277 0.9039 229.7489 -170.8442)" class="st12" width="11.2" height="20.3"/>
				
					<rect x="509" y="425" transform="matrix(0.9039 0.4277 -0.4277 0.9039 235.566 -178.2979)" class="st12" width="11.2" height="20.3"/>
				
					<rect x="528.5" y="434.2" transform="matrix(0.9039 0.4277 -0.4277 0.9039 241.388 -185.7538)" class="st12" width="11.2" height="20.3"/>
				<path class="st13" d="M549.1,440.2l-99.3-47c-1.4-0.7-3.1-0.1-3.7,1.3l-6.3,13.3c-0.7,1.4-0.1,3.1,1.3,3.7l99.3,47
					c1.4,0.7,3.1,0.1,3.7-1.3l6.3-13.3C551.1,442.6,550.5,440.9,549.1,440.2z"/>
			</g>
			<g>
				<g>
					<g>
						<path class="st12" d="M545.6,256c18.8-3,36.5,9.9,39.4,28.7c3,18.8-9.9,36.5-28.7,39.4l-8,1.3l-0.2-1.6l-10.2-65l-0.2-1.6
							L545.6,256z"/>
						<circle class="st11" cx="542.2" cy="291.5" r="34.5"/>
						<path class="st12" d="M546.6,319.7c15.6-2.4,26.2-17.1,23.8-32.7c-2.4-15.6-17.1-26.2-32.7-23.8
							c-15.6,2.4-26.2,17.1-23.8,32.7C516.4,311.5,531,322.2,546.6,319.7z"/>
						<path class="st10" d="M513.9,295.9c2.4,15.6,17.1,26.2,32.7,23.8c0.7-0.1,1.4-0.2,2.1-0.4c-14.7,1.2-28.2-9.2-30.5-24
							c-2.3-14.8,7.3-28.9,21.7-32.2c-0.7,0.1-1.4,0.1-2.1,0.3C522.2,265.7,511.5,280.4,513.9,295.9z"/>
					</g>
					<g>
						<path class="st10" d="M557.8,290.8c-1-1-2.3-1.6-3.8-1.9c1-0.7,1.7-1.6,2.2-2.7c0.4-1.1,0.6-2.2,0.4-3.4
							c-0.3-2.1-1.4-3.6-3.3-4.5c-1.5-0.7-3.4-1-5.7-0.9l-0.5-3.2l-14.5,2.3l0.5,3.1l-7.7,1.2l0.6,4.1l3.5-0.5l2.8,17.6l-3.5,0.5
							l0.6,4.1l7.7-1.2l0.5,3.4l14.5-2.3l-0.5-3.5c2.8-0.6,4.9-1.5,6.3-2.8c1.6-1.5,2.3-3.4,1.9-5.7
							C559.4,293,558.8,291.7,557.8,290.8z M536.7,284.4l5-0.8c2.4-0.4,3.8,0.2,4.1,1.9c0.3,1.7-0.8,2.7-3.3,3.1l-5,0.8L536.7,284.4
							z M545.2,298.7l-6.1,1l-0.8-5.2l6.1-1c2.5-0.4,4,0.3,4.2,2C548.9,297.2,547.8,298.3,545.2,298.7z"/>
						<path class="st11" d="M554.2,291.3c-1-1-2.3-1.6-3.8-1.9c1-0.7,1.7-1.6,2.2-2.7c0.5-1.1,0.6-2.2,0.4-3.4
							c-0.3-2.1-1.4-3.6-3.3-4.5c-1.5-0.7-3.4-1-5.7-0.9l-0.5-3.2l-4.3,0.7l0.5,3.1l-2.4,0.4l-0.5-3.1l-4.3,0.7l0.5,3.1l-7.7,1.2
							l0.6,4.1l3.5-0.5l2.8,17.6l-3.5,0.5l0.6,4.1l7.7-1.2l0.5,3.4l4.3-0.7l-0.5-3.4l2.4-0.4l0.5,3.4l4.3-0.7l-0.5-3.5
							c2.8-0.6,4.9-1.5,6.3-2.8c1.6-1.5,2.3-3.4,1.9-5.7C555.9,293.6,555.3,292.3,554.2,291.3z M536.7,284.4l5-0.8
							c2.4-0.4,3.8,0.2,4.1,1.9c0.3,1.7-0.8,2.7-3.3,3.1l-5,0.8L536.7,284.4z M545.2,298.7l-6.1,1l-0.8-5.2l6.1-1
							c2.5-0.4,4,0.3,4.2,2C548.9,297.2,547.8,298.3,545.2,298.7z"/>
						<path class="st10" d="M538.3,294.4l0.8,5.2l3.6-0.6l-0.8-5.2L538.3,294.4z"/>
						<path class="st10" d="M536.7,284.4l0.8,5l3.6-0.6l-0.8-5L536.7,284.4z"/>
					</g>
				</g>
				<g>
					<path class="st14" d="M682.8,253.1l1.6,55.7c0,0-28-2.7-46.5,0.2c-11,1.7-34.4,14.8-52.6,20.3c-11.7,3.5-21.2,3.9-24-4
						c-0.2-0.5-0.3-1-0.4-1.6c0,0-0.8-8.4,18.9-14.5c19.5-6,15.3-22.1,26.3-34.8c0,0-15-7.4-26.5-27.9c0,0-38.8,18.8-44.5,5.5
						c-0.3-0.7-0.5-1.4-0.7-2c-1.5-6.3,4.8-8.5,13.9-11.8c6.9-2.6,15.5-5.9,23.4-12.3c4.7-3.8,10.5-0.2,16.4,5.9
						c-0.6-0.8-18.7-25.8-26.3-34.4c-5.2-5.9-5.8-11.6-4.4-15.2c0.7-1.7,1.8-3,3.1-3.6c1.3-0.6,5.6,2,11.2,6.7
						c11.5,9.7,28.8,28.4,38.2,47c-2.6-5.8-27.3-59.4-33.8-74c-0.5-1.1-0.8-2.1-1.1-3.1c0,0,0,0,0,0c-0.3-0.8-0.4-1.6-0.4-2.3
						c-0.1-2.8,1.4-4.9,3.1-6.5c0.4-0.4,0.8-0.7,1.2-1c2.4-1,5.1,0,6.2,2.3l3,5.9l1.2,2.4l0,0c0.4,0.7,0.9,1.5,1.3,2.3
						c6.1,11.9,16,30.5,21.5,40.5c-1.3-5-2.7-10.1-3.9-15c-1.2-4.9-2.2-9.4-2.9-13.4c0,0-3.2-10.6,2.2-15.6c0.3-0.2,0.5-0.4,0.8-0.6
						c0.8-0.4,1.8-0.5,2.7-0.3c0,0,0,0,0,0c1.2,0.4,2,1.4,2.3,2.6l1.9,7l1.3,4.6l0,0c2,5.9,3.9,13.7,6.2,21.8
						c5.2,18.4,10.3,36.9,21.2,51.7C655,256.2,682.8,253.1,682.8,253.1z"/>
					<path class="st2" d="M691.7,309.7l-1.7-59.1c-0.1-2-1.7-3.5-3.7-3.5l-11.8,0.3c-2,0.1-3.5,1.7-3.5,3.7l1.7,59.1
						c0.1,2,1.7,3.5,3.7,3.5l11.8-0.3C690.2,313.4,691.8,311.7,691.7,309.7z"/>
					<path class="st4" d="M783.8,316.9l-2.2-78.6l-95.3,2.7c-1.9,0.1-3.5,1.7-3.4,3.6l2,71.6c0.1,1.9,1.7,3.5,3.6,3.4L783.8,316.9z"
						/>
					<path class="st15" d="M585.3,329.3c-11.7,3.5-21.2,3.9-24-4c4.2-2.2,8.6-4.3,13.4-4.7c2.1-0.2,4.4,0,6.2,1.2
						C583.4,323.4,584.5,326.4,585.3,329.3z"/>
					<path class="st15" d="M549.3,245.5c-0.7,1.1-1.9,1.8-3.1,2.3c-2.4,1.1-4.9,2-7.5,2.3c-1.4,0.1-2.9,0.1-4.3-0.2
						c-1.5-6.3,4.8-8.5,13.9-11.8c0.4,0.9,0.8,1.8,1.1,2.7C549.9,242.3,550.1,244.1,549.3,245.5z"/>
					<path class="st15" d="M571.8,185.2c-0.6,0.7-1.5,1.3-2.3,1.9c-1.4,0.9-2.9,1.8-4.5,1.8c-2,0-3.7-1.4-5-2.9
						c-0.9-1.2-1.7-2.6-2.5-3.8c0.7-1.7,1.8-3,3.1-3.6C561.9,177.9,566.1,180.5,571.8,185.2z"/>
					<path class="st15" d="M588.2,153.5c-1.2,0.9-2.8,1.3-4.2,1c-2-0.4-3.6-1.9-4.5-3.7c-0.8-1.4-1.2-3-1.6-4.6
						c0.4-0.4,0.8-0.7,1.2-1c2.4-1,5.1,0,6.2,2.3L588.2,153.5z"/>
					<path class="st15" d="M615.5,163.3c-1,0.1-2,0.1-3,0c-1.3-0.2-2.6-0.9-3.3-2c-0.6-0.9-0.7-2-0.8-3c-0.1-1.4-0.1-2.8,0-4.2
						c0.8-0.4,1.8-0.5,2.7-0.3c0,0,0,0,0,0c1.2,0.4,2,1.4,2.3,2.6L615.5,163.3z"/>
				</g>
				<circle class="st2" cx="695.3" cy="250" r="3.9"/>
				<circle class="st2" cx="710.8" cy="250" r="3.9"/>
			</g>
			<g>
				<path class="st16" d="M422.8,88.6h-5.4c-1.6,0-2.4-1.9-1.3-3.1l3.8-3.8c0.7-0.7,0.7-1.8,0-2.6l-4.4-4.4c-0.7-0.7-1.8-0.7-2.6,0
					l-3.8,3.8c-1.1,1.1-3.1,0.3-3.1-1.3V72c0-1-0.8-1.8-1.8-1.8H398c-1,0-1.8,0.8-1.8,1.8v5.4c0,1.6-1.9,2.4-3.1,1.3l-3.8-3.8
					c-0.7-0.7-1.8-0.7-2.6,0l-4.4,4.4c-0.7,0.7-0.7,1.8,0,2.5l3.8,3.8c1.1,1.1,0.3,3.1-1.3,3.1h-5.3c-1,0-1.8,0.8-1.8,1.8v6.3
					c0,1,0.8,1.8,1.8,1.8h5.4c1.6,0,2.4,1.9,1.3,3.1l-3.8,3.8c-0.7,0.7-0.7,1.8,0,2.5l4.4,4.4c0.7,0.7,1.8,0.7,2.6,0l3.8-3.8
					c1.1-1.1,3.1-0.3,3.1,1.3v5.3c0,1,0.8,1.8,1.8,1.8h6.3c1,0,1.8-0.8,1.8-1.8v-5.4c0-1.6,1.9-2.4,3.1-1.3l3.8,3.8
					c0.7,0.7,1.8,0.7,2.5,0l4.4-4.4c0.7-0.7,0.7-1.8,0-2.5l-3.8-3.8c-1.1-1.1-0.3-3.1,1.3-3.1h5.3c1,0,1.8-0.8,1.8-1.8v-6.3
					C424.7,89.4,423.8,88.6,422.8,88.6z M401.2,104.5c-6,0-10.9-4.9-10.9-10.9c0-6,4.9-10.9,10.9-10.9c6,0,10.9,4.9,10.9,10.9
					C412,99.7,407.2,104.5,401.2,104.5z"/>
			</g>
			<g>
				<path class="st16" d="M555.8,371.9h-5.4c-1.6,0-2.4-1.9-1.3-3.1l3.8-3.8c0.7-0.7,0.7-1.8,0-2.6l-4.4-4.4c-0.7-0.7-1.8-0.7-2.6,0
					l-3.8,3.8c-1.1,1.1-3.1,0.3-3.1-1.3v-5.3c0-1-0.8-1.8-1.8-1.8H531c-1,0-1.8,0.8-1.8,1.8v5.4c0,1.6-1.9,2.4-3.1,1.3l-3.8-3.8
					c-0.7-0.7-1.8-0.7-2.6,0l-4.4,4.4c-0.7,0.7-0.7,1.8,0,2.5l3.8,3.8c1.1,1.1,0.3,3.1-1.3,3.1h-5.3c-1,0-1.8,0.8-1.8,1.8v6.3
					c0,1,0.8,1.8,1.8,1.8h5.4c1.6,0,2.4,1.9,1.3,3.1l-3.8,3.8c-0.7,0.7-0.7,1.8,0,2.5l4.4,4.4c0.7,0.7,1.8,0.7,2.6,0l3.8-3.8
					c1.1-1.1,3.1-0.3,3.1,1.3v5.3c0,1,0.8,1.8,1.8,1.8h6.3c1,0,1.8-0.8,1.8-1.8v-5.4c0-1.6,1.9-2.4,3.1-1.3l3.8,3.8
					c0.7,0.7,1.8,0.7,2.5,0l4.4-4.4c0.7-0.7,0.7-1.8,0-2.5l-3.8-3.8c-1.1-1.1-0.3-3.1,1.3-3.1h5.3c1,0,1.8-0.8,1.8-1.8v-6.3
					C557.6,372.7,556.8,371.9,555.8,371.9z M534.2,387.8c-6,0-10.9-4.9-10.9-10.9c0-6,4.9-10.9,10.9-10.9c6,0,10.9,4.9,10.9,10.9
					C545,382.9,540.2,387.8,534.2,387.8z"/>
			</g>
			<g>
				<path class="st16" d="M354.9,314.1H351c-1.1,0-1.7-1.4-0.9-2.2l2.7-2.7c0.5-0.5,0.5-1.3,0-1.8l-3.2-3.2c-0.5-0.5-1.3-0.5-1.8,0
					l-2.7,2.7c-0.8,0.8-2.2,0.2-2.2-0.9v-3.8c0-0.7-0.6-1.3-1.3-1.3h-4.5c-0.7,0-1.3,0.6-1.3,1.3v3.8c0,1.1-1.4,1.7-2.2,0.9
					l-2.7-2.7c-0.5-0.5-1.3-0.5-1.8,0l-3.2,3.2c-0.5,0.5-0.5,1.3,0,1.8l2.7,2.7c0.8,0.8,0.2,2.2-0.9,2.2h-3.8
					c-0.7,0-1.3,0.6-1.3,1.3v4.5c0,0.7,0.6,1.3,1.3,1.3h3.8c1.1,0,1.7,1.4,0.9,2.2l-2.7,2.7c-0.5,0.5-0.5,1.3,0,1.8l3.2,3.2
					c0.5,0.5,1.3,0.5,1.8,0l2.7-2.7c0.8-0.8,2.2-0.2,2.2,0.9v3.8c0,0.7,0.6,1.3,1.3,1.3h4.5c0.7,0,1.3-0.6,1.3-1.3v-3.8
					c0-1.1,1.4-1.7,2.2-0.9l2.7,2.7c0.5,0.5,1.3,0.5,1.8,0l3.2-3.2c0.5-0.5,0.5-1.3,0-1.8l-2.7-2.7c-0.8-0.8-0.2-2.2,0.9-2.2h3.8
					c0.7,0,1.3-0.6,1.3-1.3v-4.5C356.1,314.7,355.6,314.1,354.9,314.1z M339.5,325.4c-4.3,0-7.7-3.5-7.7-7.7c0-4.3,3.5-7.7,7.7-7.7
					s7.7,3.5,7.7,7.7C347.2,322,343.7,325.4,339.5,325.4z"/>
			</g>
			<path class="st17" d="M436.1,250.5c-0.3-0.9-0.9-1.7-1.7-2.3c0.8-0.1,1.6-0.4,2.2-0.9c0.6-0.5,1-1.2,1.3-2
				c0.4-1.3,0.2-2.6-0.6-3.8c-0.7-0.9-1.7-1.7-3.2-2.3l0.7-2.1l-2.8-0.9l-0.7,2l-1.6-0.5l0.7-2l-2.8-0.9l-0.7,2l-5-1.7l-0.9,2.7
				l2.3,0.8l-3.8,11.5l-2.3-0.8l-0.9,2.7l5,1.7l-0.8,2.3l2.8,0.9l0.8-2.3l1.6,0.5l-0.8,2.3l2.8,0.9l0.8-2.3c1.9,0.5,3.4,0.6,4.7,0.3
				c1.5-0.4,2.4-1.3,2.9-2.8C436.4,252.4,436.4,251.4,436.1,250.5z M427.7,240.8l3.3,1.1c1.6,0.5,2.2,1.3,1.9,2.4
				c-0.4,1.1-1.4,1.4-3,0.8l-3.3-1.1L427.7,240.8z M428.4,252.1l-4-1.3l1.1-3.4l4,1.3c1.7,0.6,2.3,1.4,1.9,2.5
				C431.1,252.4,430.1,252.7,428.4,252.1z"/>
			<path class="st17" d="M186.9,95.2c-0.9-0.3-1.9-0.2-2.9,0.1c0.4-0.8,0.5-1.5,0.5-2.3c-0.1-0.8-0.3-1.5-0.8-2.2
				c-0.8-1.1-2-1.7-3.4-1.7c-1.1,0-2.4,0.4-3.7,1.3l-1.3-1.8l-2.4,1.7l1.3,1.7l-1.3,1l-1.3-1.7l-2.4,1.7l1.3,1.7l-4.3,3.1l1.7,2.3
				l1.9-1.4l7.2,9.8l-1.9,1.4l1.7,2.3l4.3-3.1l1.4,1.9l2.4-1.7l-1.4-1.9l1.3-1l1.4,1.9l2.4-1.7l-1.4-1.9c1.5-1.2,2.5-2.5,2.9-3.7
				c0.5-1.4,0.3-2.8-0.6-4C188.6,96,187.8,95.5,186.9,95.2z M174.1,96.5l2.8-2c1.4-1,2.4-1,3.1-0.1c0.7,0.9,0.3,1.9-1,2.9l-2.8,2
				L174.1,96.5z M183.7,102.5l-3.4,2.5l-2.1-2.9l3.4-2.5c1.4-1,2.5-1.1,3.2-0.1C185.5,100.4,185.2,101.4,183.7,102.5z"/>
			<path class="st17" d="M532.3,132.1c-0.9-0.3-1.9-0.3-2.9,0c0.4-0.8,0.6-1.5,0.6-2.3c0-0.8-0.3-1.5-0.8-2.2
				c-0.8-1.2-1.9-1.8-3.4-1.8c-1.1,0-2.4,0.4-3.8,1.1l-1.3-1.8l-2.4,1.7l1.2,1.8l-1.4,0.9l-1.2-1.8l-2.4,1.7l1.2,1.8l-4.4,3l1.6,2.3
				l2-1.3l6.8,10l-2,1.3l1.6,2.3l4.4-3l1.3,2l2.4-1.7l-1.3-2l1.4-0.9l1.3,2l2.4-1.7l-1.4-2c1.5-1.2,2.6-2.4,3-3.6
				c0.6-1.4,0.4-2.8-0.5-4C534,133,533.2,132.4,532.3,132.1z M519.5,133l2.9-1.9c1.4-1,2.4-1,3.1,0c0.6,0.9,0.3,1.9-1.1,2.9
				l-2.9,1.9L519.5,133z M528.9,139.3l-3.5,2.4l-2-3l3.5-2.4c1.5-1,2.5-1,3.2,0C530.7,137.3,530.3,138.3,528.9,139.3z"/>
			<path class="st17" d="M382.1,396.3c0-0.9-0.3-1.9-0.8-2.8c0.8,0.2,1.6,0.1,2.4-0.2c0.7-0.3,1.4-0.7,1.9-1.4
				c0.9-1.1,1.1-2.4,0.7-3.8c-0.3-1.1-1.1-2.2-2.2-3.3l1.4-1.7l-2.3-1.8l-1.3,1.7l-1.3-1l1.3-1.7l-2.3-1.8l-1.3,1.7l-4.2-3.3
				l-1.7,2.2l1.9,1.5l-7.5,9.5l-1.9-1.5l-1.7,2.2l4.2,3.3l-1.5,1.9l2.3,1.8l1.5-1.9l1.3,1l-1.5,1.9l2.3,1.8l1.5-1.9
				c1.6,1.1,3,1.7,4.3,1.8c1.5,0.1,2.7-0.4,3.7-1.7C381.7,398.1,382.1,397.2,382.1,396.3z M377.4,384.3l2.7,2.1c1.3,1,1.6,2,0.9,2.9
				c-0.7,0.9-1.7,0.8-3.1-0.2l-2.7-2.1L377.4,384.3z M374.2,395.2l-3.3-2.6l2.2-2.8l3.3,2.6c1.4,1.1,1.7,2.1,1,3
				C376.7,396.3,375.6,396.3,374.2,395.2z"/>
			<path class="st2" d="M319.9,114.6h-59.8c-2.5,0-3.5-3.3-1.4-4.6c0,0,0,0,0,0c1.5-0.9,3.5-0.6,4.7,0.6c-0.2-4.1,2.1-7.9,6-9.1
				c3.9-1.2,8.5,0.7,10.6,4.2c-0.2-6.6,4.8-12.8,11.2-14c6.5-1.2,13.5,2.9,15.7,9.1c-0.3-4.4,2.4-8.7,6.4-10.6
				c4-1.9,8.9-1.3,12.5,1.2c3.6,2.5,5.8,6.8,5.9,11.2c0,0.4,0,0.7,0,1.1C331.4,109.9,326.1,114.6,319.9,114.6z"/>
			<path class="st2" d="M689.4,197.2h-39.1c-1.6,0-2.3-2.2-0.9-3c0,0,0,0,0,0c1-0.6,2.3-0.4,3.1,0.4c-0.1-2.7,1.4-5.2,3.9-5.9
				c2.6-0.8,5.6,0.4,6.9,2.7c-0.1-4.3,3.1-8.4,7.3-9.2c4.2-0.8,8.8,1.9,10.2,5.9c-0.2-2.8,1.6-5.7,4.2-6.9c2.6-1.2,5.8-0.8,8.1,0.8
				c2.3,1.6,3.8,4.5,3.9,7.3c0,0.2,0,0.5,0,0.7C696.9,194.1,693.5,197.2,689.4,197.2z"/>
			<path class="st16" d="M676.5,377.7h-59.8c-2.5,0-3.5-3.3-1.4-4.6c0,0,0,0,0,0c1.5-0.9,3.5-0.6,4.7,0.6c-0.2-4.1,2.1-7.9,6-9.1
				c3.9-1.2,8.5,0.7,10.6,4.2c-0.2-6.6,4.8-12.8,11.2-14c6.5-1.2,13.5,2.9,15.7,9.1c-0.3-4.4,2.4-8.7,6.4-10.6
				c4-1.9,8.9-1.3,12.5,1.2c3.6,2.5,5.8,6.8,5.9,11.2c0,0.4,0,0.7,0,1.1C688,372.9,682.7,377.7,676.5,377.7z"/>
			<path class="st16" d="M89.6,337.5H29.8c-2.5,0-3.5-3.3-1.4-4.6c0,0,0,0,0,0c1.5-0.9,3.5-0.6,4.7,0.6c-0.2-4.1,2.1-7.9,6-9.1
				c3.9-1.2,8.5,0.7,10.6,4.2c-0.2-6.6,4.8-12.8,11.2-14c6.5-1.2,13.5,2.9,15.7,9.1c-0.3-4.4,2.4-8.7,6.4-10.6
				c4-1.9,8.9-1.3,12.5,1.2c3.6,2.5,5.8,6.8,5.9,11.2c0,0.4,0,0.7,0,1.1C101.1,332.7,95.8,337.5,89.6,337.5z"/>
			<g>
				<path class="st4" d="M180.9,403.7L174,339c-0.5-4.5,3-8.3,7.5-8.3h78.1c3.9,0,7.1,2.9,7.5,6.7l6.9,64.7c0.5,4.5-3,8.3-7.5,8.3
					h-78.1C184.5,410.5,181.3,407.5,180.9,403.7z"/>
				<path class="st5" d="M185,398.9l-6.9-64.7c-0.5-4.5,3-8.3,7.5-8.3h78.1c3.9,0,7.1,2.9,7.5,6.7l6.9,64.7c0.5,4.5-3,8.3-7.5,8.3
					h-78.1C188.6,405.6,185.4,402.7,185,398.9z"/>
				<path class="st18" d="M192.5,402.9c-2.5,0-4.5-1.9-4.8-4.3l-6.9-64.7c-0.1-1.4,0.3-2.7,1.2-3.7c0.9-1,2.2-1.6,3.6-1.6h78.1
					c2.5,0,4.5,1.9,4.8,4.3l6.9,64.7c0.1,1.4-0.3,2.7-1.2,3.7c-0.9,1-2.2,1.6-3.6,1.6H192.5z"/>
				<path class="st7" d="M274.6,378.9c0.1,0.5-0.4,1-0.9,1h-13.7c-6.5,0-12.3-5.3-12.9-11.7l0,0c-0.6-6.5,4.1-11.7,10.6-11.7h13.8
					c0.5,0,0.8,0.3,0.9,0.8L274.6,378.9z"/>
				<path class="st4" d="M276.1,377.3c0.1,0.5-0.4,1-0.9,1h-13.7c-6.5,0-12.3-5.3-12.9-11.7l0,0c-0.6-6.5,4.1-11.7,10.6-11.7H273
					c0.5,0,0.8,0.3,0.9,0.8L276.1,377.3z"/>
				<circle class="st5" cx="256.3" cy="365.5" r="3.5"/>
				<path class="st4" d="M238.2,367.3c-1.2-1.3-2.7-2.3-4.5-2.9c1.3-0.7,2.2-1.6,2.8-2.8c0.6-1.2,0.8-2.5,0.6-4
					c-0.3-2.5-1.6-4.5-3.8-5.9c-1.8-1.1-4-1.8-6.8-2.1l-0.5-3.9h-5.2l0.4,3.8h-2.9l-0.4-3.8h-5.2l0.4,3.8h-9.3l0.6,4.9h4.2l2.5,21.2
					H207l0.6,4.9h9.3l0.5,4.2h5.2l-0.5-4.2h2.9l0.5,4.2h5.2l-0.5-4.2c3.4-0.2,5.9-0.9,7.7-2.2c2-1.5,2.9-3.6,2.6-6.3
					C240,370.2,239.3,368.6,238.2,367.3z M217.5,355.8h6c3,0,4.6,1,4.8,3c0.2,2-1.1,3-4.1,3h-6L217.5,355.8z M227,374.2h-7.4
					l-0.7-6.3h7.4c3.1,0,4.7,1.1,5,3.2C231.5,373.2,230.1,374.2,227,374.2z"/>
			</g>
			<g>
				<path class="st11" d="M143.2,439H33.4c-1.5,0-2.8,1.3-2.8,2.8v14.7c0,1.5,1.3,2.8,2.8,2.8h109.9c1.5,0,2.8-1.3,2.8-2.8v-14.7
					C146,440.2,144.8,439,143.2,439z"/>
				<rect x="39.5" y="439" class="st12" width="11.2" height="20.3"/>
				<rect x="61.1" y="439" class="st12" width="11.2" height="20.3"/>
				<rect x="82.7" y="439" class="st12" width="11.2" height="20.3"/>
				<rect x="104.3" y="439" class="st12" width="11.2" height="20.3"/>
				<rect x="125.9" y="439" class="st12" width="11.2" height="20.3"/>
				<path class="st13" d="M143.2,439H33.4c-1.5,0-2.8,1.3-2.8,2.8v14.7c0,1.5,1.3,2.8,2.8,2.8h109.9c1.5,0,2.8-1.3,2.8-2.8v-14.7
					C146,440.2,144.8,439,143.2,439z"/>
			</g>
			<g>
				<path class="st11" d="M168,418.6H58.1c-1.5,0-2.8,1.3-2.8,2.8v14.7c0,1.5,1.3,2.8,2.8,2.8H168c1.5,0,2.8-1.3,2.8-2.8v-14.7
					C170.8,419.9,169.6,418.6,168,418.6z"/>
				<rect x="64.3" y="418.6" class="st12" width="11.2" height="20.3"/>
				<rect x="85.9" y="418.6" class="st12" width="11.2" height="20.3"/>
				<rect x="107.5" y="418.6" class="st12" width="11.2" height="20.3"/>
				<rect x="129.1" y="418.6" class="st12" width="11.2" height="20.3"/>
				<rect x="150.6" y="418.6" class="st12" width="11.2" height="20.3"/>
				<path class="st13" d="M168,418.6H58.1c-1.5,0-2.8,1.3-2.8,2.8v14.7c0,1.5,1.3,2.8,2.8,2.8H168c1.5,0,2.8-1.3,2.8-2.8v-14.7
					C170.8,419.9,169.6,418.6,168,418.6z"/>
			</g>
			<g>
				<path class="st11" d="M153.2,398.3H43.3c-1.5,0-2.8,1.3-2.8,2.8v14.7c0,1.5,1.3,2.8,2.8,2.8h109.9c1.5,0,2.8-1.3,2.8-2.8v-14.7
					C156,399.6,154.7,398.3,153.2,398.3z"/>
				<rect x="49.5" y="398.3" class="st12" width="11.2" height="20.3"/>
				<rect x="71" y="398.3" class="st12" width="11.2" height="20.3"/>
				<rect x="92.6" y="398.3" class="st12" width="11.2" height="20.3"/>
				<rect x="114.2" y="398.3" class="st12" width="11.2" height="20.3"/>
				<rect x="135.8" y="398.3" class="st12" width="11.2" height="20.3"/>
				<path class="st13" d="M153.2,398.3H43.3c-1.5,0-2.8,1.3-2.8,2.8v14.7c0,1.5,1.3,2.8,2.8,2.8h109.9c1.5,0,2.8-1.3,2.8-2.8v-14.7
					C156,399.6,154.7,398.3,153.2,398.3z"/>
			</g>
			<g>
				<path class="st11" d="M192,378H82.1c-1.5,0-2.8,1.3-2.8,2.8v14.7c0,1.5,1.3,2.8,2.8,2.8H192c1.5,0,2.8-1.3,2.8-2.8v-14.7
					C194.8,379.2,193.5,378,192,378z"/>
				<rect x="88.3" y="378" class="st12" width="11.2" height="20.3"/>
				<rect x="109.9" y="378" class="st12" width="11.2" height="20.3"/>
				<rect x="131.5" y="378" class="st12" width="11.2" height="20.3"/>
				<rect x="153" y="378" class="st12" width="11.2" height="20.3"/>
				<rect x="174.6" y="378" class="st12" width="11.2" height="20.3"/>
				<path class="st13" d="M192,378H82.1c-1.5,0-2.8,1.3-2.8,2.8v14.7c0,1.5,1.3,2.8,2.8,2.8H192c1.5,0,2.8-1.3,2.8-2.8v-14.7
					C194.8,379.2,193.5,378,192,378z"/>
			</g>
		</g>
		<g class="st1">
			<path class="st2" d="M371.1,168.6l1.1,2.9c0.1,0.2,0.2,0.3,0.3,0.3l2.9,1.1c0.5,0.2,0.5,0.9,0,1.1l-2.9,1.1
				c-0.2,0.1-0.3,0.2-0.3,0.3l-1.1,2.9c-0.2,0.5-0.9,0.5-1.1,0l-1.1-2.9c-0.1-0.2-0.2-0.3-0.3-0.3l-2.9-1.1c-0.5-0.2-0.5-0.9,0-1.1
				l2.9-1.1c0.2-0.1,0.3-0.2,0.3-0.3l1.1-2.9C370.2,168.1,370.9,168.1,371.1,168.6z"/>
			<path class="st2" d="M227.5,246.4l1.1,2.9c0.1,0.2,0.2,0.3,0.3,0.3l2.9,1.1c0.5,0.2,0.5,0.9,0,1.1l-2.9,1.1
				c-0.2,0.1-0.3,0.2-0.3,0.3l-1.1,2.9c-0.2,0.5-0.9,0.5-1.1,0l-1.1-2.9c-0.1-0.2-0.2-0.3-0.3-0.3l-2.9-1.1c-0.5-0.2-0.5-0.9,0-1.1
				l2.9-1.1c0.2-0.1,0.3-0.2,0.3-0.3l1.1-2.9C226.6,245.9,227.3,245.9,227.5,246.4z"/>
			<path class="st2" d="M452.1,360.2l1.1,2.9c0.1,0.2,0.2,0.3,0.3,0.3l2.9,1.1c0.5,0.2,0.5,0.9,0,1.1l-2.9,1.1
				c-0.2,0.1-0.3,0.2-0.3,0.3l-1.1,2.9c-0.2,0.5-0.9,0.5-1.1,0l-1.1-2.9c-0.1-0.2-0.2-0.3-0.3-0.3l-2.9-1.1c-0.5-0.2-0.5-0.9,0-1.1
				l2.9-1.1c0.2-0.1,0.3-0.2,0.3-0.3l1.1-2.9C451.2,359.7,451.9,359.7,452.1,360.2z"/>
			<path class="st2" d="M489,202l1.1,2.9c0.1,0.2,0.2,0.3,0.3,0.3l2.9,1.1c0.5,0.2,0.5,0.9,0,1.1l-2.9,1.1c-0.2,0.1-0.3,0.2-0.3,0.3
				l-1.1,2.9c-0.2,0.5-0.9,0.5-1.1,0l-1.1-2.9c-0.1-0.2-0.2-0.3-0.3-0.3l-2.9-1.1c-0.5-0.2-0.5-0.9,0-1.1l2.9-1.1
				c0.2-0.1,0.3-0.2,0.3-0.3l1.1-2.9C488.1,201.5,488.8,201.5,489,202z"/>
			<path class="st2" d="M514.1,279.4l1.1,2.9c0.1,0.2,0.2,0.3,0.3,0.3l2.9,1.1c0.5,0.2,0.5,0.9,0,1.1l-2.9,1.1
				c-0.2,0.1-0.3,0.2-0.3,0.3l-1.1,2.9c-0.2,0.5-0.9,0.5-1.1,0l-1.1-2.9c-0.1-0.2-0.2-0.3-0.3-0.3l-2.9-1.1c-0.5-0.2-0.5-0.9,0-1.1
				l2.9-1.1c0.2-0.1,0.3-0.2,0.3-0.3l1.1-2.9C513.2,278.9,513.9,278.9,514.1,279.4z"/>
			<path class="st2" d="M124,384.3l1.1,2.9c0.1,0.2,0.2,0.3,0.3,0.3l2.9,1.1c0.5,0.2,0.5,0.9,0,1.1l-2.9,1.1
				c-0.2,0.1-0.3,0.2-0.3,0.3l-1.1,2.9c-0.2,0.5-0.9,0.5-1.1,0l-1.1-2.9c-0.1-0.2-0.2-0.3-0.3-0.3l-2.9-1.1c-0.5-0.2-0.5-0.9,0-1.1
				l2.9-1.1c0.2-0.1,0.3-0.2,0.3-0.3l1.1-2.9C123.1,383.8,123.9,383.8,124,384.3z"/>
			<path class="st2" d="M407.9,448.5l1.1,2.9c0.1,0.2,0.2,0.3,0.3,0.3l2.9,1.1c0.5,0.2,0.5,0.9,0,1.1l-2.9,1.1
				c-0.2,0.1-0.3,0.2-0.3,0.3l-1.1,2.9c-0.2,0.5-0.9,0.5-1.1,0l-1.1-2.9c-0.1-0.2-0.2-0.3-0.3-0.3l-2.9-1.1c-0.5-0.2-0.5-0.9,0-1.1
				l2.9-1.1c0.2-0.1,0.3-0.2,0.3-0.3l1.1-2.9C407.1,448,407.8,448,407.9,448.5z"/>
			<path class="st2" d="M608.7,427l1.1,2.9c0.1,0.2,0.2,0.3,0.3,0.3l2.9,1.1c0.5,0.2,0.5,0.9,0,1.1l-2.9,1.1
				c-0.2,0.1-0.3,0.2-0.3,0.3l-1.1,2.9c-0.2,0.5-0.9,0.5-1.1,0l-1.1-2.9c-0.1-0.2-0.2-0.3-0.3-0.3l-2.9-1.1c-0.5-0.2-0.5-0.9,0-1.1
				l2.9-1.1c0.2-0.1,0.3-0.2,0.3-0.3l1.1-2.9C607.8,426.5,608.5,426.5,608.7,427z"/>
			<path class="st2" d="M398.2,159l0.8,2.1c0,0.1,0.1,0.2,0.2,0.2l2.1,0.8c0.4,0.1,0.4,0.6,0,0.8l-2.1,0.8c-0.1,0-0.2,0.1-0.2,0.2
				l-0.8,2.1c-0.1,0.4-0.6,0.4-0.8,0l-0.8-2.1c0-0.1-0.1-0.2-0.2-0.2l-2.1-0.8c-0.4-0.1-0.4-0.6,0-0.8l2.1-0.8
				c0.1,0,0.2-0.1,0.2-0.2l0.8-2.1C397.6,158.7,398.1,158.7,398.2,159z"/>
			<path class="st2" d="M242,236.1l0.8,2.1c0,0.1,0.1,0.2,0.2,0.2l2.1,0.8c0.4,0.1,0.4,0.6,0,0.8l-2.1,0.8c-0.1,0-0.2,0.1-0.2,0.2
				l-0.8,2.1c-0.1,0.4-0.6,0.4-0.8,0l-0.8-2.1c0-0.1-0.1-0.2-0.2-0.2l-2.1-0.8c-0.4-0.1-0.4-0.6,0-0.8l2.1-0.8
				c0.1,0,0.2-0.1,0.2-0.2l0.8-2.1C241.4,235.7,241.9,235.7,242,236.1z"/>
			<path class="st2" d="M442.9,339.8l0.8,2.1c0,0.1,0.1,0.2,0.2,0.2l2.1,0.8c0.4,0.1,0.4,0.6,0,0.8l-2.1,0.8c-0.1,0-0.2,0.1-0.2,0.2
				l-0.8,2.1c-0.1,0.4-0.6,0.4-0.8,0l-0.8-2.1c0-0.1-0.1-0.2-0.2-0.2l-2.1-0.8c-0.4-0.1-0.4-0.6,0-0.8l2.1-0.8
				c0.1,0,0.2-0.1,0.2-0.2l0.8-2.1C442.3,339.5,442.8,339.5,442.9,339.8z"/>
			<path class="st2" d="M488.8,222.7l0.8,2.1c0,0.1,0.1,0.2,0.2,0.2l2.1,0.8c0.4,0.1,0.4,0.6,0,0.8l-2.1,0.8c-0.1,0-0.2,0.1-0.2,0.2
				l-0.8,2.1c-0.1,0.4-0.6,0.4-0.8,0l-0.8-2.1c0-0.1-0.1-0.2-0.2-0.2l-2.1-0.8c-0.4-0.1-0.4-0.6,0-0.8l2.1-0.8
				c0.1,0,0.2-0.1,0.2-0.2l0.8-2.1C488.2,222.3,488.7,222.3,488.8,222.7z"/>
			<path class="st2" d="M528.3,289.7l0.8,2.1c0,0.1,0.1,0.2,0.2,0.2l2.1,0.8c0.4,0.1,0.4,0.6,0,0.8l-2.1,0.8c-0.1,0-0.2,0.1-0.2,0.2
				l-0.8,2.1c-0.1,0.4-0.6,0.4-0.8,0l-0.8-2.1c0-0.1-0.1-0.2-0.2-0.2l-2.1-0.8c-0.4-0.1-0.4-0.6,0-0.8l2.1-0.8
				c0.1,0,0.2-0.1,0.2-0.2l0.8-2.1C527.7,289.3,528.2,289.3,528.3,289.7z"/>
			<path class="st2" d="M127.7,409.6l0.8,2.1c0,0.1,0.1,0.2,0.2,0.2l2.1,0.8c0.4,0.1,0.4,0.6,0,0.8l-2.1,0.8c-0.1,0-0.2,0.1-0.2,0.2
				l-0.8,2.1c-0.1,0.4-0.6,0.4-0.8,0l-0.8-2.1c0-0.1-0.1-0.2-0.2-0.2l-2.1-0.8c-0.4-0.1-0.4-0.6,0-0.8l2.1-0.8
				c0.1,0,0.2-0.1,0.2-0.2l0.8-2.1C127,409.3,127.5,409.3,127.7,409.6z"/>
			<path class="st2" d="M411.8,422.7l0.8,2.1c0,0.1,0.1,0.2,0.2,0.2l2.1,0.8c0.4,0.1,0.4,0.6,0,0.8l-2.1,0.8c-0.1,0-0.2,0.1-0.2,0.2
				l-0.8,2.1c-0.1,0.4-0.6,0.4-0.8,0l-0.8-2.1c0-0.1-0.1-0.2-0.2-0.2l-2.1-0.8c-0.4-0.1-0.4-0.6,0-0.8l2.1-0.8
				c0.1,0,0.2-0.1,0.2-0.2l0.8-2.1C411.1,422.3,411.6,422.3,411.8,422.7z"/>
			<path class="st2" d="M647.8,435.4l0.8,2.1c0,0.1,0.1,0.2,0.2,0.2l2.1,0.8c0.4,0.1,0.4,0.6,0,0.8l-2.1,0.8c-0.1,0-0.2,0.1-0.2,0.2
				l-0.8,2.1c-0.1,0.4-0.6,0.4-0.8,0l-0.8-2.1c0-0.1-0.1-0.2-0.2-0.2l-2.1-0.8c-0.4-0.1-0.4-0.6,0-0.8l2.1-0.8
				c0.1,0,0.2-0.1,0.2-0.2l0.8-2.1C647.2,435.1,647.7,435.1,647.8,435.4z"/>
			<path class="st2" d="M66.5,443.8l0.8,2.1c0,0.1,0.1,0.2,0.2,0.2l2.1,0.8c0.4,0.1,0.4,0.6,0,0.8l-2.1,0.8c-0.1,0-0.2,0.1-0.2,0.2
				l-0.8,2.1c-0.1,0.4-0.6,0.4-0.8,0l-0.8-2.1c0-0.1-0.1-0.2-0.2-0.2l-2.1-0.8c-0.4-0.1-0.4-0.6,0-0.8l2.1-0.8
				c0.1,0,0.2-0.1,0.2-0.2l0.8-2.1C65.9,443.4,66.4,443.4,66.5,443.8z"/>
			<path class="st2" d="M372.4,139l1.5,3.9c0.1,0.2,0.2,0.4,0.4,0.4l3.9,1.5c0.7,0.2,0.7,1.2,0,1.4l-3.9,1.5
				c-0.2,0.1-0.4,0.2-0.4,0.4l-1.5,3.9c-0.2,0.7-1.2,0.7-1.4,0l-1.5-3.9c-0.1-0.2-0.2-0.4-0.4-0.4l-3.9-1.5c-0.7-0.2-0.7-1.2,0-1.4
				l3.9-1.5c0.2-0.1,0.4-0.2,0.4-0.4l1.5-3.9C371.3,138.3,372.2,138.3,372.4,139z"/>
			<path class="st2" d="M250.4,251.8l1.5,3.9c0.1,0.2,0.2,0.4,0.4,0.4l3.9,1.5c0.7,0.2,0.7,1.2,0,1.4l-3.9,1.5
				c-0.2,0.1-0.4,0.2-0.4,0.4l-1.5,3.9c-0.2,0.7-1.2,0.7-1.4,0l-1.5-3.9c-0.1-0.2-0.2-0.4-0.4-0.4l-3.9-1.5c-0.7-0.2-0.7-1.2,0-1.4
				l3.9-1.5c0.2-0.1,0.4-0.2,0.4-0.4l1.5-3.9C249.2,251.1,250.1,251.1,250.4,251.8z"/>
			<path class="st2" d="M464.6,336.1l1.5,3.9c0.1,0.2,0.2,0.4,0.4,0.4l3.9,1.5c0.7,0.2,0.7,1.2,0,1.4l-3.9,1.5
				c-0.2,0.1-0.4,0.2-0.4,0.4l-1.5,3.9c-0.2,0.7-1.2,0.7-1.4,0l-1.5-3.9c-0.1-0.2-0.2-0.4-0.4-0.4l-3.9-1.5c-0.7-0.2-0.7-1.2,0-1.4
				l3.9-1.5c0.2-0.1,0.4-0.2,0.4-0.4l1.5-3.9C463.4,335.4,464.3,335.4,464.6,336.1z"/>
			<path class="st2" d="M505.3,212.6l1.5,3.9c0.1,0.2,0.2,0.4,0.4,0.4l3.9,1.5c0.7,0.2,0.7,1.2,0,1.4l-3.9,1.5
				c-0.2,0.1-0.4,0.2-0.4,0.4l-1.5,3.9c-0.2,0.7-1.2,0.7-1.4,0l-1.5-3.9c-0.1-0.2-0.2-0.4-0.4-0.4l-3.9-1.5c-0.7-0.2-0.7-1.2,0-1.4
				l3.9-1.5c0.2-0.1,0.4-0.2,0.4-0.4l1.5-3.9C504.1,212,505.1,212,505.3,212.6z"/>
			<path class="st2" d="M535.7,270.3l1.5,3.9c0.1,0.2,0.2,0.4,0.4,0.4l3.9,1.5c0.7,0.2,0.7,1.2,0,1.4l-3.9,1.5
				c-0.2,0.1-0.4,0.2-0.4,0.4l-1.5,3.9c-0.2,0.7-1.2,0.7-1.4,0l-1.5-3.9c-0.1-0.2-0.2-0.4-0.4-0.4l-3.9-1.5c-0.7-0.2-0.7-1.2,0-1.4
				l3.9-1.5c0.2-0.1,0.4-0.2,0.4-0.4l1.5-3.9C534.5,269.6,535.4,269.6,535.7,270.3z"/>
			<path class="st2" d="M100.2,393.1l1.5,3.9c0.1,0.2,0.2,0.4,0.4,0.4l3.9,1.5c0.7,0.2,0.7,1.2,0,1.4l-3.9,1.5
				c-0.2,0.1-0.4,0.2-0.4,0.4l-1.5,3.9c-0.2,0.7-1.2,0.7-1.4,0l-1.5-3.9c-0.1-0.2-0.2-0.4-0.4-0.4l-3.9-1.5c-0.7-0.2-0.7-1.2,0-1.4
				l3.9-1.5c0.2-0.1,0.4-0.2,0.4-0.4l1.5-3.9C99,392.4,100,392.4,100.2,393.1z"/>
			<path class="st2" d="M378.7,432.4l1.5,3.9c0.1,0.2,0.2,0.4,0.4,0.4l3.9,1.5c0.7,0.2,0.7,1.2,0,1.4l-3.9,1.5
				c-0.2,0.1-0.4,0.2-0.4,0.4l-1.5,3.9c-0.2,0.7-1.2,0.7-1.4,0l-1.5-3.9c-0.1-0.2-0.2-0.4-0.4-0.4l-3.9-1.5c-0.7-0.2-0.7-1.2,0-1.4
				l3.9-1.5c0.2-0.1,0.4-0.2,0.4-0.4l1.5-3.9C377.5,431.7,378.5,431.7,378.7,432.4z"/>
			<path class="st2" d="M630.5,403.9l1.5,3.9c0.1,0.2,0.2,0.4,0.4,0.4l3.9,1.5c0.7,0.2,0.7,1.2,0,1.4l-3.9,1.5
				c-0.2,0.1-0.4,0.2-0.4,0.4l-1.5,3.9c-0.2,0.7-1.2,0.7-1.4,0l-1.5-3.9c-0.1-0.2-0.2-0.4-0.4-0.4l-3.9-1.5c-0.7-0.2-0.7-1.2,0-1.4
				l3.9-1.5c0.2-0.1,0.4-0.2,0.4-0.4l1.5-3.9C629.3,403.3,630.2,403.3,630.5,403.9z"/>
			<circle class="st19" cx="77.2" cy="255.4" r="6.2"/>
			<circle class="st19" cx="373.9" cy="268" r="6.2"/>
			<circle class="st19" cx="573.9" cy="93.2" r="6.2"/>
			<circle class="st19" cx="716.1" cy="348.6" r="6.2"/>
			<g>
				<g>
					<path class="st5" d="M265.2,135.9c1.9,0,1.9-3,0-3C263.3,132.9,263.3,135.9,265.2,135.9L265.2,135.9z"/>
				</g>
			</g>
			<g>
				<g>
					<path class="st5" d="M92.5,153.9c1.9,0,1.9-3,0-3C90.6,150.9,90.5,153.9,92.5,153.9L92.5,153.9z"/>
				</g>
			</g>
			<g>
				<g>
					<path class="st5" d="M486.5,94.7c1.9,0,1.9-3,0-3C484.6,91.7,484.6,94.7,486.5,94.7L486.5,94.7z"/>
				</g>
			</g>
			<g>
				<g>
					<path class="st5" d="M651.2,158.5c1.9,0,1.9-3,0-3C649.3,155.5,649.3,158.5,651.2,158.5L651.2,158.5z"/>
				</g>
			</g>
			<g>
				<g>
					<path class="st5" d="M608.2,348.2c1.9,0,1.9-3,0-3C606.3,345.2,606.2,348.2,608.2,348.2L608.2,348.2z"/>
				</g>
			</g>
			<g>
				<g>
					<path class="st5" d="M477.5,271.3c1.9,0,1.9-3,0-3C475.5,268.3,475.5,271.3,477.5,271.3L477.5,271.3z"/>
				</g>
			</g>
			<g>
				<g>
					<path class="st5" d="M341.6,386.9c1.9,0,1.9-3,0-3C339.6,383.9,339.6,386.9,341.6,386.9L341.6,386.9z"/>
				</g>
			</g>
		</g>
	</g>
</g>
</svg>
