<?xml version="1.0" encoding="utf-8"?>
<!-- Generator: Adobe Illustrator 19.0.0, SVG Export Plug-In . SVG Version: 6.00 Build 0)  -->
<svg version="1.1" xmlns="http://www.w3.org/2000/svg" xmlns:xlink="http://www.w3.org/1999/xlink" x="0px" y="0px"
	 viewBox="0 0 3710 3710" style="enable-background:new 0 0 3710 3710;" xml:space="preserve">
<style type="text/css">
	.st0{opacity:0;}
	.st1{fill:#FFFFFF;}
	.st2{fill:url(#SVGID_1_);}
	.st3{fill:#BDD0FB;}
	.st4{fill:url(#SVGID_2_);}
	.st5{fill:#91B3FA;}
	.st6{opacity:0.57;fill:#FFFFFF;}
	.st7{fill:url(#SVGID_3_);}
	.st8{fill:url(#SVGID_4_);}
	.st9{fill:url(#SVGID_5_);}
	.st10{opacity:0.17;fill:#FFFFFF;}
	.st11{opacity:0.4;}
	.st12{fill:#7D97F4;}
	.st13{fill:url(#SVGID_6_);}
	.st14{fill:url(#SVGID_7_);}
	.st15{fill:url(#SVGID_8_);}
	.st16{fill:url(#SVGID_9_);}
	.st17{fill:url(#SVGID_10_);}
	.st18{fill:url(#SVGID_11_);}
	.st19{fill:url(#SVGID_12_);}
	.st20{fill:url(#SVGID_13_);}
	.st21{fill:url(#SVGID_14_);}
	.st22{fill:url(#SVGID_15_);}
	.st23{fill:url(#SVGID_16_);}
	.st24{fill:url(#SVGID_17_);}
	.st25{fill:url(#SVGID_18_);}
	.st26{fill:url(#SVGID_19_);}
	.st27{fill:url(#SVGID_20_);}
	.st28{fill:url(#SVGID_21_);}
	.st29{fill:url(#SVGID_22_);}
	.st30{fill:url(#SVGID_23_);}
	.st31{fill:url(#SVGID_24_);}
	.st32{fill:url(#SVGID_25_);}
	.st33{fill:url(#SVGID_26_);}
	.st34{fill:url(#SVGID_27_);}
	.st35{opacity:0.78;fill:#FFFFFF;}
	.st36{fill:url(#SVGID_28_);}
	.st37{fill:url(#SVGID_29_);}
	.st38{fill:url(#SVGID_30_);}
	.st39{fill:url(#SVGID_31_);}
	.st40{fill:url(#SVGID_32_);}
	.st41{fill:url(#SVGID_33_);}
	.st42{fill:url(#SVGID_34_);}
	.st43{fill:url(#SVGID_35_);}
	.st44{fill:url(#SVGID_36_);}
	.st45{fill:url(#SVGID_37_);}
	.st46{fill:url(#SVGID_38_);}
	.st47{fill:url(#SVGID_39_);}
	.st48{fill:url(#SVGID_40_);}
	.st49{fill:url(#SVGID_41_);}
	.st50{fill:url(#SVGID_42_);}
	.st51{fill:url(#SVGID_43_);}
	.st52{fill:url(#SVGID_44_);}
	.st53{fill:url(#SVGID_45_);}
	.st54{fill:url(#SVGID_46_);}
	.st55{fill:url(#SVGID_47_);}
	.st56{fill:url(#SVGID_48_);}
	.st57{fill:url(#SVGID_49_);}
	.st58{fill:url(#SVGID_50_);}
	.st59{fill:url(#SVGID_51_);}
	.st60{fill:url(#SVGID_52_);}
	.st61{fill:url(#SVGID_53_);}
	.st62{fill:url(#SVGID_54_);}
	.st63{fill:url(#SVGID_55_);}
	.st64{fill:url(#SVGID_56_);}
	.st65{fill:url(#SVGID_57_);}
	.st66{fill:url(#SVGID_58_);}
	.st67{fill:url(#SVGID_59_);}
	.st68{fill:url(#SVGID_60_);}
	.st69{fill:url(#SVGID_61_);}
	.st70{fill:url(#SVGID_62_);}
	.st71{fill:url(#SVGID_63_);}
</style>
<g id="Background">
	<g class="st0">
		<g>
			<rect class="st1" width="3710" height="3710"/>
		</g>
	</g>
</g>
<g id="Illustration">
	<g>
		<linearGradient id="SVGID_1_" gradientUnits="userSpaceOnUse" x1="3499.8884" y1="3692.5601" x2="1524.5934" y2="1589.8271">
			<stop  offset="0" style="stop-color:#DAE3FE"/>
			<stop  offset="1" style="stop-color:#E9EFFD"/>
		</linearGradient>
		<path class="st2" d="M2906.8,2849c-72.9,75.2-138.2,119.3-188.1,152.7c-487.2,325.3-1044.1,231.5-1216.3,199.5
			c-277.8-51.7-512.3-88.2-713.8-270.2C330.8,2517.3,353,1654.5,702.9,1120c41.5-63.4,390.8-581.2,948.9-654.1
			c13.7-1.8,23.8-2.8,32.8-3.7c86.3-9.1,621.4-57.4,1057.6,308.1c62.4,52.3,162.9,146.7,256.1,290.6
			C3339.1,1587.1,3340.2,2402.2,2906.8,2849z"/>
		<g>
			<path class="st3" d="M1766.1,1785.9c11.1-182.2-38.6-350.2-127.1-472c-79.2-108.9-114.3-244.2-95.3-377.4c2-14,3.5-28.2,4.3-42.7
				c13.4-219.2-110.1-405-275.7-415.1C1106.7,468.6,961.6,638,948.2,857.2c-2.7,44.8,0.3,88.2,8.2,129
				c25.2,130.2,2.5,265.8-68.5,377.9c-63.4,100.2-104.7,224.7-113.1,361.3c-12.4,203.8,51.1,389.7,160.1,513.2
				c41.2,46.7,73.8,100.7,95.6,159c36.1,96.9,113.2,165.8,206.2,171.5c100.3,6.1,191.1-63,236-167.5
				c25.4-59.1,62.1-112.4,106.4-159.1C1683.7,2132.3,1754.9,1970.1,1766.1,1785.9z"/>
			
				<linearGradient id="SVGID_2_" gradientUnits="userSpaceOnUse" x1="-2576.1702" y1="954.0318" x2="-2103.1895" y2="954.0318" gradientTransform="matrix(-0.9632 -0.2689 -0.2689 0.9632 -686.8483 45.8654)">
				<stop  offset="0" style="stop-color:#DAE3FE"/>
				<stop  offset="1" style="stop-color:#E9EFFD"/>
			</linearGradient>
			<path class="st4" d="M1316.1,715.3c12.8,146.2,20.9,292.6,27.5,439.2c1.7,36.6,2.7,73.3,3.9,109.9l1.8,55l1.3,55
				c0.7,36.7,2,73.3,2.3,110l1,110c-0.3,73.4,0,146.7-1.6,220.1c-0.8,36.7-0.8,73.4-2.4,110l-4.1,110
				c-6.9,146.6-17.5,293-35.5,438.7l-6.3-0.7l9.3-109.5l2.4-27.4l1.7-27.4l3.3-54.8l3.4-54.8c1.2-18.3,1.7-36.6,2.5-54.9
				c1.5-36.6,3.2-73.2,4.5-109.8c4-146.4,6.1-292.9,5.1-439.4c-1-73.2-1.5-146.5-3-219.7l-1-54.9l-1.5-54.9
				c-1-36.6-1.9-73.2-3.2-109.8c-2-73.2-4.6-146.5-7.7-219.7c-2.8-73.2-6.2-146.4-9.9-219.6L1316.1,715.3z"/>
		</g>
		<g>
			<path class="st5" d="M1284.2,1558.6c-15.6-156.4-80.8-292.4-172.6-383.7c-82.1-81.7-130.5-191.9-132.6-307.7
				c-0.2-12.2-0.9-24.5-2.2-36.9c-18.8-188.1-149-329.1-290.8-315c-141.8,14.1-241.6,178.1-222.8,366.2c3.8,38.5,12.3,75,24.6,108.5
				c39.3,107.2,38.6,225.6-6.2,330.6c-40,93.9-57.9,205.4-46.2,322.6c17.4,174.9,96.9,324.2,206.3,414.2
				c41.4,34.1,76.4,75.4,102.9,122c44,77.4,118.7,125.4,198.4,117.5c85.9-8.6,153.4-79.8,177.1-174.8
				c13.4-53.7,37.2-104.1,68.4-149.9C1261.9,1864.3,1300,1716.7,1284.2,1558.6z"/>
			<path class="st6" d="M755.6,710.4c30.9,122.5,57.9,245.8,83.6,369.5c6.4,30.9,12.4,61.9,18.4,92.9l9.1,46.5l8.7,46.6
				c5.7,31.1,11.7,62.1,17,93.2l15.9,93.4c9.8,62.4,20.2,124.7,28.8,187.3c4.4,31.3,9.4,62.5,13.1,93.8l11.7,94
				c14.3,125.5,25.4,251.5,30.2,377.7l-5.4,0.3l-7.2-94.3l-1.7-23.6l-2.3-23.5l-4.7-47.1l-4.6-47.1c-1.5-15.7-3.6-31.3-5.4-47
				c-3.8-31.3-7.3-62.6-11.3-93.9c-16.7-125-35.1-249.8-56-374.2c-10.9-62.1-21.3-124.3-32.7-186.4l-8.4-46.6l-8.8-46.5
				c-5.8-31-11.7-62-17.8-92.9c-11.8-62-24-123.9-36.7-185.7c-12.4-61.9-25.4-123.6-38.6-185.3L755.6,710.4z"/>
		</g>
		<g>
			<g>
				<linearGradient id="SVGID_3_" gradientUnits="userSpaceOnUse" x1="1675.0995" y1="2713.6777" x2="2282.2537" y2="892.2102">
					<stop  offset="0" style="stop-color:#09005D"/>
					<stop  offset="1" style="stop-color:#1A0F91"/>
				</linearGradient>
				<path class="st7" d="M3242.8,2779.8c0,26.1-21.4,47.5-47.5,47.5H624.5c-26.1,0-47.5-21.4-47.5-47.5l-21.4-1477.3
					c0-26.1,30.8-77.1,87.2-73.3l2512.4-65c32.8-0.8,64.5,11.8,87.8,34.9c23.2,23.2,35.9,54.8,35.2,87.6L3242.8,2779.8z"/>
				<path class="st5" d="M3195.9,2734.2c0,24.7-20.2,45-45,45H686.5c-24.7,0-45-20.2-45-45l-20.2-1341.1
					c2.4-80.7,73.1-109.7,116-108l2408-64.6c23-0.6,45.3,8.3,61.7,24.5c16.3,16.3,25.2,38.6,24.7,61.6L3195.9,2734.2z"/>
				<g>
					<linearGradient id="SVGID_4_" gradientUnits="userSpaceOnUse" x1="662.3478" y1="2036.0768" x2="672.4344" y2="2036.0768">
						<stop  offset="0" style="stop-color:#DAE3FE"/>
						<stop  offset="1" style="stop-color:#E9EFFD"/>
					</linearGradient>
					<path class="st8" d="M668.2,2094.7c-2.3,0-4.2-1.9-4.2-4.2l-1.6-108.8c0-2.3,1.8-4.3,4.2-4.3c2.3-0.1,4.3,1.8,4.3,4.2
						l1.6,108.8C672.5,2092.7,670.6,2094.7,668.2,2094.7C668.2,2094.7,668.2,2094.7,668.2,2094.7z"/>
					<linearGradient id="SVGID_5_" gradientUnits="userSpaceOnUse" x1="653.9144" y1="1560.2568" x2="1533.6091" y2="1560.2568">
						<stop  offset="0" style="stop-color:#DAE3FE"/>
						<stop  offset="1" style="stop-color:#E9EFFD"/>
					</linearGradient>
					<path class="st9" d="M664.3,1828.2c-2.3,0-4.2-1.9-4.2-4.2l-6.1-416.6c0.1-28,8.8-50.4,25.7-66.6
						c30.7-29.4,78.7-27.9,80.8-27.9l768.9-20.6c2.3-0.2,4.3,1.8,4.4,4.1c0.1,2.3-1.8,4.3-4.1,4.4l-769.2,20.6
						c-2.2-0.1-46.7-1.5-74.9,25.5c-15.2,14.5-22.9,34.9-23,60.4l6.1,416.5C668.6,1826.2,666.7,1828.1,664.3,1828.2
						C664.3,1828.2,664.3,1828.2,664.3,1828.2z"/>
				</g>
				<path class="st10" d="M750.1,2659.8c2.6-110.8,1.6-1092.4-4.7-1177.2c-6.4-84.8,125.7-100.7,328.4-110.2
					c202.7-9.5,1913-47.3,1957-50.9c99-8,119.5,139.9,109.6,461.1c-7.4,241.3-19.8,638.8-25.4,821.6c-1.7,54.4-46.2,97.6-100.6,97.8
					c-411.6,1.1-1989,5.7-2094,8.8C799.4,2714.4,749.1,2703.7,750.1,2659.8z"/>
			</g>
			<g class="st11">
				<rect x="776.9" y="2347.2" class="st1" width="143.3" height="331"/>
				<rect x="1016.4" y="2055.1" class="st1" width="143.3" height="623.1"/>
				<rect x="1255.9" y="2333.7" class="st1" width="143.3" height="344.5"/>
				<rect x="1495.4" y="2163.8" class="st1" width="143.3" height="514.3"/>
				<rect x="1734.8" y="2203.9" class="st1" width="143.3" height="474.3"/>
				<rect x="1974.3" y="2156" class="st1" width="143.3" height="522.2"/>
				<rect x="2213.8" y="1820.9" class="st1" width="143.3" height="857.3"/>
				<rect x="2453.3" y="1967.1" class="st1" width="143.3" height="711"/>
				<rect x="2692.8" y="2122.6" class="st1" width="143.3" height="555.6"/>
				<rect x="2932.3" y="1733.2" class="st1" width="143.3" height="945"/>
			</g>
			<g>
				<g>
					<path class="st12" d="M3008.1,1798.4c5.3,0.1,9.5,0.6,9.5,1.2v306.9c0,0.6-4.3,1.1-9.5,1.2c-5.3,0.1-9.5-0.4-9.5-1v-307.3
						C2998.6,1798.8,3002.9,1798.3,3008.1,1798.4z"/>
					<polygon class="st12" points="2930.9,1572.1 3077.9,1574.2 3077.9,1886.7 2930.9,1887.9 					"/>
					<path class="st12" d="M2764.8,1769.4c5.1,0.1,9.3,0.5,9.3,1v237.8c0,0.5-4.2,0.8-9.3,0.8c-5.1,0-9.3-0.4-9.3-0.8v-238.2
						C2755.5,1769.6,2759.7,1769.3,2764.8,1769.4z"/>
					<polygon class="st12" points="2692.8,1704.7 2836.1,1707.5 2836.1,1892.1 2692.8,1891.3 					"/>
					<path class="st12" d="M2525.2,2129.8c5.1,0,9.3,0.4,9.3,0.8v227.9c0,0.4-4.2,0.9-9.3,0.9c-5.1,0.1-9.3-0.2-9.3-0.7v-228.2
						C2515.8,2130.1,2520,2129.8,2525.2,2129.8z"/>
					<polygon class="st12" points="2452.9,1866.2 2596.6,1865.3 2596.6,2138.5 2452.9,2142.4 					"/>
					<path class="st12" d="M2285,1853.2c4.6,0,8.3,0.3,8.3,0.8v223.6c0,0.4-3.7,0.8-8.3,0.9c-4.6,0.1-8.4-0.2-8.4-0.6V1854
						C2276.7,1853.6,2280.4,1853.2,2285,1853.2z"/>
					<polygon class="st12" points="2213.8,1783.9 2357.1,1782.7 2357.1,1962.6 2213.8,1965.8 					"/>
					<path class="st12" d="M2044,1746.7c4.7,0,8.6,0.5,8.6,1v286.5c0,0.5-3.8,1.1-8.6,1.2c-4.7,0.1-8.6-0.3-8.6-0.8v-286.9
						C2035.4,1747.1,2039.3,1746.7,2044,1746.7z"/>
					<polygon class="st12" points="1977.5,1696.3 2117.7,1696 2117.7,1902.7 1977.5,1905.3 					"/>
					<path class="st12" d="M1809.8,2196.9c4.9,0,8.9,0.3,8.9,0.6v187.3c0,0.4-4,0.7-8.9,0.8c-4.9,0.1-8.9-0.1-8.9-0.5v-187.6
						C1800.9,2197.2,1804.9,2196.9,1809.8,2196.9z"/>
					<polygon class="st12" points="1726.9,1965.1 1878.1,1963 1878.1,2201.4 1726.9,2206.4 					"/>
					<polygon class="st12" points="1495.2,2037.5 1638.6,2036.9 1638.6,2174.3 1495.2,2176.5 					"/>
					<polygon class="st12" points="1253.4,1992 1396.8,1987.4 1396.8,2192.1 1253.4,2199.3 					"/>
					<path class="st12" d="M1077.6,2281.2c4.9-0.1,8.9,0.1,8.9,0.5v219.8c0,0.4-4,0.9-8.9,1.2c-4.9,0.2-8.9,0.1-8.9-0.4v-220.2
						C1068.7,2281.8,1072.7,2281.3,1077.6,2281.2z"/>
					<polygon class="st12" points="1012.4,2366.3 1161.2,2359.7 1161.2,2511 1012.4,2519.6 					"/>
					<polygon class="st12" points="776.6,1978 918.9,1974.8 918.9,2115.2 776.6,2120.2 					"/>
				</g>
				<g>
					<linearGradient id="SVGID_6_" gradientUnits="userSpaceOnUse" x1="839.0121" y1="2261.4563" x2="857.4617" y2="2261.4563">
						<stop  offset="0" style="stop-color:#4F52FF"/>
						<stop  offset="1" style="stop-color:#4042E2"/>
					</linearGradient>
					<path class="st13" d="M848.2,2610.7c-5.1,0.4-9.2-0.3-9.2-1.6v-694.4c0-1.3,4.1-2.5,9.2-2.6c5.1-0.1,9.2,0.9,9.2,2.2v693.3
						C857.5,2608.9,853.3,2610.3,848.2,2610.7z"/>
					<linearGradient id="SVGID_7_" gradientUnits="userSpaceOnUse" x1="902.2785" y1="2064.6853" x2="770.145" y2="2508.3765">
						<stop  offset="0" style="stop-color:#4F52FF"/>
						<stop  offset="1" style="stop-color:#4042E2"/>
					</linearGradient>
					<polygon class="st14" points="918.9,2381.6 776.6,2391.3 776.6,2113.7 918.9,2107.6 					"/>
					<linearGradient id="SVGID_8_" gradientUnits="userSpaceOnUse" x1="1084.5929" y1="2347.4487" x2="1102.351" y2="2347.4487">
						<stop  offset="0" style="stop-color:#4F52FF"/>
						<stop  offset="1" style="stop-color:#4042E2"/>
					</linearGradient>
					<path class="st15" d="M1093.5,2593c-4.9,0.4-8.9,0-8.9-0.9v-488.2c0-0.9,4-1.9,8.9-2.1c4.9-0.2,8.9,0.4,8.9,1.3v487.4
						C1102.4,2591.4,1098.4,2592.6,1093.5,2593z"/>
					<linearGradient id="SVGID_9_" gradientUnits="userSpaceOnUse" x1="1124.8542" y1="2220.7036" x2="1037.9453" y2="2512.5349">
						<stop  offset="0" style="stop-color:#4F52FF"/>
						<stop  offset="1" style="stop-color:#4042E2"/>
					</linearGradient>
					<polygon class="st16" points="1161.5,2417.9 1016.4,2427.8 1016.4,2264.4 1161.5,2256.6 					"/>
					<linearGradient id="SVGID_10_" gradientUnits="userSpaceOnUse" x1="1319.3984" y1="2289.6018" x2="1336.5031" y2="2289.6018">
						<stop  offset="0" style="stop-color:#4F52FF"/>
						<stop  offset="1" style="stop-color:#4042E2"/>
					</linearGradient>
					<path class="st17" d="M1328,2673.7c-4.7,0.6-8.6-0.2-8.6-1.6v-763.7c0-1.5,3.8-2.8,8.6-3c4.7-0.2,8.5,0.8,8.5,2.3v762.4
						C1336.5,2671.5,1332.7,2673.1,1328,2673.7z"/>
					<linearGradient id="SVGID_11_" gradientUnits="userSpaceOnUse" x1="1387.6998" y1="2088.3464" x2="1231.6459" y2="2612.3599">
						<stop  offset="0" style="stop-color:#4F52FF"/>
						<stop  offset="1" style="stop-color:#4042E2"/>
					</linearGradient>
					<polygon class="st18" points="1396.8,2464.7 1249.8,2477.2 1249.8,2144.3 1396.8,2135.9 					"/>
					<linearGradient id="SVGID_12_" gradientUnits="userSpaceOnUse" x1="1550.7487" y1="2244.2827" x2="1569.1779" y2="2244.2827">
						<stop  offset="0" style="stop-color:#4F52FF"/>
						<stop  offset="1" style="stop-color:#4042E2"/>
					</linearGradient>
					<path class="st19" d="M1560,2485.8c-5.1,0.7-9.2,0.5-9.2-0.4v-480.3c0-0.9,4.1-2.1,9.2-2.6c5.1-0.5,9.2-0.2,9.2,0.8v479.5
						C1569.2,2483.8,1565.1,2485.1,1560,2485.8z"/>
					<linearGradient id="SVGID_13_" gradientUnits="userSpaceOnUse" x1="1589.8823" y1="2129.8523" x2="1526.0878" y2="2344.0679">
						<stop  offset="0" style="stop-color:#4F52FF"/>
						<stop  offset="1" style="stop-color:#4042E2"/>
					</linearGradient>
					<polygon class="st20" points="1638.6,2266.5 1488.5,2275.4 1488.5,2170.3 1638.6,2162.7 					"/>
					<linearGradient id="SVGID_14_" gradientUnits="userSpaceOnUse" x1="1799.8625" y1="1816.3606" x2="1817.9279" y2="1816.3606">
						<stop  offset="0" style="stop-color:#4F52FF"/>
						<stop  offset="1" style="stop-color:#4042E2"/>
					</linearGradient>
					<path class="st21" d="M1808.9,2107.9c-5,0.2-9-0.5-9-1.7v-579.6c0-1.1,4.1-2,9-1.9c5,0,9,1,9,2.1v578.7
						C1817.9,2106.7,1813.9,2107.7,1808.9,2107.9z"/>
					<linearGradient id="SVGID_15_" gradientUnits="userSpaceOnUse" x1="1861.863" y1="1631.0873" x2="1725.4807" y2="2089.0454">
						<stop  offset="0" style="stop-color:#4F52FF"/>
						<stop  offset="1" style="stop-color:#4042E2"/>
					</linearGradient>
					<polygon class="st22" points="1878.2,1964.3 1733,1968.4 1733,1675.8 1878.2,1675.2 					"/>
					<linearGradient id="SVGID_16_" gradientUnits="userSpaceOnUse" x1="2036.0493" y1="1988.8325" x2="2053.0625" y2="1988.8325">
						<stop  offset="0" style="stop-color:#4F52FF"/>
						<stop  offset="1" style="stop-color:#4042E2"/>
					</linearGradient>
					<path class="st23" d="M2044.6,2389.4c-4.7,0.3-8.5-0.7-8.5-2.2v-796.3c0-1.5,3.8-2.7,8.5-2.7c4.7,0,8.5,1.3,8.5,2.8v795.1
						C2053.1,2387.6,2049.3,2389.1,2044.6,2389.4z"/>
					<linearGradient id="SVGID_17_" gradientUnits="userSpaceOnUse" x1="2113.4648" y1="1756.302" x2="1949.9545" y2="2305.3538">
						<stop  offset="0" style="stop-color:#4F52FF"/>
						<stop  offset="1" style="stop-color:#4042E2"/>
					</linearGradient>
					<polygon class="st24" points="2117.7,2159.3 1974.3,2165.3 1974.3,1806.4 2117.7,1804.6 					"/>
					<linearGradient id="SVGID_18_" gradientUnits="userSpaceOnUse" x1="2275.8484" y1="1992.8101" x2="2292.2986" y2="1992.8101">
						<stop  offset="0" style="stop-color:#4F52FF"/>
						<stop  offset="1" style="stop-color:#4042E2"/>
					</linearGradient>
					<path class="st25" d="M2284.1,2311.8c-4.5,0.4-8.2-0.3-8.2-1.5v-634.1c0-1.2,3.7-2.3,8.2-2.4c4.5-0.1,8.2,0.7,8.2,2v633.2
						C2292.3,2310.1,2288.6,2311.4,2284.1,2311.8z"/>
					<linearGradient id="SVGID_19_" gradientUnits="userSpaceOnUse" x1="2331.3193" y1="1906.3069" x2="2220.2974" y2="2279.1079">
						<stop  offset="0" style="stop-color:#4F52FF"/>
						<stop  offset="1" style="stop-color:#4042E2"/>
					</linearGradient>
					<polygon class="st26" points="2357.1,2170.1 2213.8,2177.1 2213.8,1950.4 2357.1,1945.9 					"/>
					<linearGradient id="SVGID_20_" gradientUnits="userSpaceOnUse" x1="2515.8379" y1="1628.3861" x2="2534.4656" y2="1628.3861">
						<stop  offset="0" style="stop-color:#4F52FF"/>
						<stop  offset="1" style="stop-color:#4042E2"/>
					</linearGradient>
					<path class="st27" d="M2525.2,1853.2c-5.1,0.1-9.3-0.5-9.3-1.4V1405c0-0.9,4.2-1.5,9.3-1.4c5.1,0.1,9.3,0.8,9.3,1.7v446.3
						C2534.5,1852.3,2530.3,1853.1,2525.2,1853.2z"/>
					<linearGradient id="SVGID_21_" gradientUnits="userSpaceOnUse" x1="2589.2651" y1="1485.6233" x2="2433.0474" y2="2010.1868">
						<stop  offset="0" style="stop-color:#4F52FF"/>
						<stop  offset="1" style="stop-color:#4042E2"/>
					</linearGradient>
					<polygon class="st28" points="2596.6,1872.4 2452.9,1875.4 2452.9,1532 2596.6,1532.7 					"/>
					<linearGradient id="SVGID_22_" gradientUnits="userSpaceOnUse" x1="2755.5249" y1="1938.4801" x2="2774.1035" y2="1938.4801">
						<stop  offset="0" style="stop-color:#4F52FF"/>
						<stop  offset="1" style="stop-color:#4042E2"/>
					</linearGradient>
					<path class="st29" d="M2764.8,2304.8c-5.1,0.1-9.3-1-9.3-2.4v-728.1c0-1.4,4.2-2.4,9.3-2.1c5.1,0.2,9.3,1.5,9.3,2.9v727.1
						C2774.1,2303.6,2769.9,2304.8,2764.8,2304.8z"/>
					<linearGradient id="SVGID_23_" gradientUnits="userSpaceOnUse" x1="2816.4404" y1="1829.4191" x2="2690.5215" y2="2252.2424">
						<stop  offset="0" style="stop-color:#4F52FF"/>
						<stop  offset="1" style="stop-color:#4042E2"/>
					</linearGradient>
					<polygon class="st30" points="2836.1,2139.6 2692.8,2139.5 2692.8,1868.5 2836.1,1871.5 					"/>
					<linearGradient id="SVGID_24_" gradientUnits="userSpaceOnUse" x1="2998.5898" y1="1534.2371" x2="3017.6477" y2="1534.2371">
						<stop  offset="0" style="stop-color:#4F52FF"/>
						<stop  offset="1" style="stop-color:#4042E2"/>
					</linearGradient>
					<path class="st31" d="M3008.1,1767.8c-5.3,0.1-9.5-0.5-9.5-1.4v-464.3c0-0.9,4.3-1.6,9.5-1.5c5.3,0.1,9.5,0.8,9.5,1.7V1766
						C3017.6,1766.9,3013.4,1767.7,3008.1,1767.8z"/>
					<linearGradient id="SVGID_25_" gradientUnits="userSpaceOnUse" x1="3044.1147" y1="1379.7683" x2="2956.124" y2="1675.2319">
						<stop  offset="0" style="stop-color:#4F52FF"/>
						<stop  offset="1" style="stop-color:#4042E2"/>
					</linearGradient>
					<polygon class="st32" points="3081.3,1587.8 2934.2,1589.4 2934.2,1416 3081.3,1416.1 					"/>
				</g>
			</g>
		</g>
		<g>
			<linearGradient id="SVGID_26_" gradientUnits="userSpaceOnUse" x1="2897.3296" y1="189.6742" x2="2588.707" y2="770.9139">
				<stop  offset="0" style="stop-color:#E1473D"/>
				<stop  offset="1" style="stop-color:#E9605A"/>
			</linearGradient>
			<path class="st33" d="M2909.8,1247.9c0,317.2-257.2,574.4-574.4,574.4c-317.2,0-574.4-257.2-574.4-574.4
				c0-317.2,257.2-574.4,574.4-574.4C2652.7,673.5,2909.8,930.6,2909.8,1247.9z"/>
			<linearGradient id="SVGID_27_" gradientUnits="userSpaceOnUse" x1="2388.6455" y1="763.0881" x2="2254.9087" y2="1982.1469">
				<stop  offset="0" style="stop-color:#FF928E"/>
				<stop  offset="1" style="stop-color:#FE7062"/>
			</linearGradient>
			<circle class="st34" cx="2335.5" cy="1247.9" r="555.3"/>
			<path class="st1" d="M1877.6,1020.6c-0.5,0-1-0.1-1.5-0.4c-1.7-0.9-2.4-2.9-1.5-4.6c42.4-84,107-154.9,186.8-205
				c82-51.5,176.8-78.8,274.2-78.8c31.3,0,62.6,2.8,93.1,8.4c1.9,0.3,3.1,2.1,2.8,4c-0.3,1.9-2.1,3.1-4,2.8
				c-30.1-5.5-61-8.3-91.9-8.3c-193.4,0-367.6,107.3-454.8,280C1880,1019.9,1878.8,1020.6,1877.6,1020.6z"/>
			<path class="st35" d="M2817.5,1260c0,259.6-210.4,470-470,470c-259.6,0-470-210.4-470-470c0-259.6,210.4-470,470-470
				C2607.1,790,2817.5,1000.4,2817.5,1260z"/>
			<linearGradient id="SVGID_28_" gradientUnits="userSpaceOnUse" x1="2484.0706" y1="875.6629" x2="2252.6033" y2="1528.9153">
				<stop  offset="0" style="stop-color:#FF928E"/>
				<stop  offset="1" style="stop-color:#FE7062"/>
			</linearGradient>
			<path class="st36" d="M2579.8,1298.2c-23.8-22.2-56.6-35.5-97-40.1c-0.2,0-0.3-0.2-0.3-0.4v-0.8c0-0.2,0.1-0.3,0.3-0.4
				c32.2-8.1,49.8-22.3,70.3-42.9c20.5-20.6,31.5-44.6,31.5-72c0-37.8-17.6-67.2-51.3-88c-28.5-17.6-61.1-27.7-108.3-30.5
				c-3.1-0.2-5.6-2.8-5.6-5.9v-93.9c0-3.3-2.7-5.9-5.9-5.9h-43.2c-3.3,0-5.9,2.7-5.9,5.9v95c0,3.3-2.7,5.9-5.9,5.9h-49.6
				c-3.3,0-5.9-2.7-5.9-5.9v-95c0-3.3-2.7-5.9-5.9-5.9h-43.2c-3.3,0-5.9,2.7-5.9,5.9v95c0,3.3-2.7,5.9-5.9,5.9H2116
				c-3.3,0-5.9,2.7-5.9,5.9v48c0,3.3,2.7,5.9,5.9,5.9h70.7c3.3,0,5.9,2.7,5.9,5.9v370.3c0,3.3-2.7,5.9-5.9,5.9H2116
				c-3.3,0-5.9,2.7-5.9,5.9v54.5c0,3.3,2.7,5.9,5.9,5.9h125.8c3.3,0,5.9,2.7,5.9,5.9v98.2c0,3.3,2.7,5.9,5.9,5.9h43.2
				c3.3,0,5.9-2.7,5.9-5.9v-98.2c0-3.3,2.7-5.9,5.9-5.9h49.6c3.3,0,5.9,2.7,5.9,5.9v98.2c0,3.3,2.7,5.9,5.9,5.9h43.2
				c3.3,0,5.9-2.7,5.9-5.9v-100c0-3.2,2.5-5.8,5.7-5.9c55.7-2.2,102-15.7,135.7-40.7c36.8-27.3,55.1-64.3,55.1-110.9
				C2615.8,1347.5,2603.7,1320.4,2579.8,1298.2z M2369.1,1108.5c61.6,0,92.5,17.9,92.5,55.3c0,20.1-7.5,35.9-22.5,47.4
				c-15,11.5-35.6,17.2-61.7,17.2h-68.6c-3.3,0-5.9-2.7-5.9-5.9v-107.9c0-3.3,2.7-5.9,5.9-5.9H2369.1z M2459,1431
				c-16.6,12.3-39.5,19.2-68.8,19.2h-81.6c-3.3,0-5.9-2.7-5.9-5.9v-124.1c0-3.3,2.7-5.9,5.9-5.9h82.4c29.2,0,52,5.1,68.4,16.7
				c16.3,11.6,24.5,29.4,24.5,49.7C2483.9,1401.8,2475.6,1418.7,2459,1431z"/>
		</g>
		<g>
			<linearGradient id="SVGID_29_" gradientUnits="userSpaceOnUse" x1="1082.6252" y1="3128.5591" x2="586.0119" y2="3668.7356">
				<stop  offset="0" style="stop-color:#09005D"/>
				<stop  offset="1" style="stop-color:#1A0F91"/>
			</linearGradient>
			<path class="st37" d="M925.6,3168.8c0,0-5.1,29.1-7.7,57.9c-1,11.3,7.7,21,19,21.5c38.4,1.6,120.5,4.7,149.9,3.4
				c4.4-0.2,7.3-4.7,5.7-8.9l0,0c-1.4-3.5-4-6.2-7.4-7.8l-135.6-62.3L925.6,3168.8z"/>
			<linearGradient id="SVGID_30_" gradientUnits="userSpaceOnUse" x1="921.4324" y1="3168.6792" x2="965.5436" y2="3168.6792">
				<stop  offset="0" style="stop-color:#FEBBBA"/>
				<stop  offset="1" style="stop-color:#FF928E"/>
			</linearGradient>
			<path class="st38" d="M921.4,3151.7l4.1,34.8c0,0,23.8,11.1,40-1.4l-9.8-38.8L921.4,3151.7z"/>
			<linearGradient id="SVGID_31_" gradientUnits="userSpaceOnUse" x1="816.8334" y1="2831.3879" x2="962.6881" y2="2831.3879">
				<stop  offset="0" style="stop-color:#09005D"/>
				<stop  offset="1" style="stop-color:#1A0F91"/>
			</linearGradient>
			<path class="st39" d="M924.5,2496.9c-1.8,9.1-9.6,453.8,38,653.2c0.8,3.3-0.9,6.6-4,7.9c-7.3,3-21.6,7.3-38.7,7.9
				c-5.3,0.2-10.1-3.3-11.6-8.4c-13.6-46.2-78.7-277.9-87.2-499.3c-9.5-247.3,0-8.4,0-8.4l5.6-152.9L924.5,2496.9z"/>
			<linearGradient id="SVGID_32_" gradientUnits="userSpaceOnUse" x1="971.218" y1="3026.137" x2="474.6055" y2="3566.3125">
				<stop  offset="0" style="stop-color:#09005D"/>
				<stop  offset="1" style="stop-color:#1A0F91"/>
			</linearGradient>
			<path class="st40" d="M769.6,3184c0,0-8.2,14.7-16.1,53.8c-1.4,7.1,3.5,13.8,10.7,14.5c12.7,1.2,32.2,2.8,47.8,2.7
				c7.2,0,12.8-6.3,12-13.5c-1.7-14.3-7.1-37.6-23.8-55.9L769.6,3184z"/>
			<linearGradient id="SVGID_33_" gradientUnits="userSpaceOnUse" x1="762.4548" y1="3166.4165" x2="800.5408" y2="3166.4165">
				<stop  offset="0" style="stop-color:#FEBBBA"/>
				<stop  offset="1" style="stop-color:#FF928E"/>
			</linearGradient>
			<path class="st41" d="M762.5,3139.2l9.7,52.7c0,0,9.5,7.1,28.4,2l-4.6-56.7L762.5,3139.2z"/>
			<linearGradient id="SVGID_34_" gradientUnits="userSpaceOnUse" x1="721.4036" y1="2826.6152" x2="928.4703" y2="2826.6152">
				<stop  offset="0" style="stop-color:#09005D"/>
				<stop  offset="1" style="stop-color:#1A0F91"/>
			</linearGradient>
			<path class="st42" d="M736.4,2510.6c-38.9,234.7,8.4,580,24.4,647.6c1,4.1,4.3,7.3,8.5,8c7.1,1.2,18.9,2.1,30.4-1.2
				c4-1.2,6.8-4.8,6.9-8.9c2.1-54.6-1.7-390.1,34.5-522.7c1.8-6.7,5.9-12.6,11.6-16.6l70.3-50l5.4-80.8L736.4,2510.6z"/>
			<g>
				<linearGradient id="SVGID_35_" gradientUnits="userSpaceOnUse" x1="2027.7917" y1="1034.0887" x2="1631.7256" y2="1455.874">
					<stop  offset="0" style="stop-color:#FF928E"/>
					<stop  offset="1" style="stop-color:#FE7062"/>
				</linearGradient>
				<path class="st43" d="M984.1,2066c-116.5-1.9-245.1,30.6-245.1,30.6C704.3,2299.2,733,2533,733,2533
					c90.2,23.7,192-14.5,192-14.5c15-84.7,84.9-323.1,84.9-323.1c56.9-7.1,103.8-23.5,142.5-45.2c-29.5-34.1-43.3-77.6-49.4-103.3
					C1061.8,2059.7,1020.1,2066.6,984.1,2066z"/>
				<linearGradient id="SVGID_36_" gradientUnits="userSpaceOnUse" x1="1102.9506" y1="2017.8636" x2="1328.309" y2="2017.8636">
					<stop  offset="0" style="stop-color:#FEBBBA"/>
					<stop  offset="1" style="stop-color:#FF928E"/>
				</linearGradient>
				<path class="st44" d="M1328.3,1894.3c-11.4-13.8-25.9-7.3-25.9-7.3c-17.1,72.4-107.1,131.2-199.4,159.9
					c6,25.7,19.9,69.1,49.4,103.3C1305.6,2064,1328.3,1894.3,1328.3,1894.3z"/>
			</g>
			<g>
				
					<linearGradient id="SVGID_37_" gradientUnits="userSpaceOnUse" x1="9169.6719" y1="1980.0885" x2="9320.8926" y2="2324.1504" gradientTransform="matrix(-1 0 0 1 10447.7783 0)">
					<stop  offset="0" style="stop-color:#FEBBBA"/>
					<stop  offset="1" style="stop-color:#FF928E"/>
				</linearGradient>
				<path class="st45" d="M1325.5,1897.9c1.2,3.8-12.7,9.6-20.8-6c-0.3-7.5-4.8-39.4-0.4-45.5c23.8-32.4,69.8-73,69.8-73
					c7.8,7.7,1.4,15.2,1.4,15.2l-22.3,23.3c4.7,8.4,10.4,15.6,13,25.8c2,7.7,0.8,16-3.1,23c-3.9,7.1-9.3,16.2-14.3,23.4
					C1339.2,1897.8,1325.5,1897.9,1325.5,1897.9z"/>
				<linearGradient id="SVGID_38_" gradientUnits="userSpaceOnUse" x1="1327.2272" y1="1865.5038" x2="1390.3254" y2="1768.4901">
					<stop  offset="0" style="stop-color:#FEBBBA"/>
					<stop  offset="1" style="stop-color:#FF928E"/>
				</linearGradient>
				<path class="st46" d="M1343.4,1827l-20.4,17.3l-6.4,17.2l18.2,20.1c0,0,6.1-34.1,10.6-41.5
					C1350,1832.7,1347.6,1829.2,1343.4,1827z"/>
			</g>
			<linearGradient id="SVGID_39_" gradientUnits="userSpaceOnUse" x1="1910.2148" y1="923.6796" x2="1514.1489" y2="1345.4646">
				<stop  offset="0" style="stop-color:#FF928E"/>
				<stop  offset="1" style="stop-color:#FE7062"/>
			</linearGradient>
			<path class="st47" d="M783.7,2209.4L739,2096.6c0,0-108.8,74-126.7,167.7c20.6,1.5,58,6.9,94.6,25.4
				C715,2245.4,783.7,2209.4,783.7,2209.4z"/>
			<linearGradient id="SVGID_40_" gradientUnits="userSpaceOnUse" x1="609.8211" y1="2337.0771" x2="895.0136" y2="2337.0771">
				<stop  offset="0" style="stop-color:#FEBBBA"/>
				<stop  offset="1" style="stop-color:#FF928E"/>
			</linearGradient>
			<path class="st48" d="M878.8,2315.6c0,0-122.2,69.1-163.4,10.1c-8.6-12.2-10.6-24.4-8.5-36c-36.6-18.5-74-23.8-94.6-25.4
				c-5.4,28.3-2.5,58.3,14.1,88.7c72.2,132.1,268.6-7.3,268.6-7.3L878.8,2315.6z"/>
			<g>
				<linearGradient id="SVGID_41_" gradientUnits="userSpaceOnUse" x1="981.2944" y1="2134.3147" x2="1138.1111" y2="2787.7195">
					<stop  offset="0" style="stop-color:#09005D"/>
					<stop  offset="1" style="stop-color:#1A0F91"/>
				</linearGradient>
				<path class="st49" d="M864.2,2402.9l66.7-232.9c0.8-2.6,3-4.6,5.7-4.9c12.1-1.4,47.1-5.4,87.5-8.8c48.7-4.1,105.2-7.5,139-4.6
					c4.8,0.4,7.7,5.5,5.6,9.8c-19.2,38.9-98.3,197-137.8,248.8c-1.3,1.7-3.3,2.7-5.5,2.7l-154.7-1.4
					C866.1,2411.6,862.9,2407.3,864.2,2402.9z"/>
				<path class="st12" d="M1031,2136.2l48.4-8.1c2.6-0.4,4.7,2,3.9,4.5l-4.8,14.5c-0.4,1.3-1.5,2.2-2.8,2.4l-46.5,6.2
					c-2.4,0.3-4.4-1.9-3.8-4.2l3-12.7C1028.5,2137.4,1029.7,2136.4,1031,2136.2z"/>
				<path class="st12" d="M994.8,2177.1l4-20.7c0.4-2.1,2.1-3.7,4.2-3.9l97.7-9.9c3.3-0.3,5.9,2.7,5.1,5.9l-6.2,25.9
					c-0.5,2.1-2.3,3.6-4.4,3.7l-95.4,4.8C996.7,2182.9,994.2,2180.2,994.8,2177.1z"/>
				<linearGradient id="SVGID_42_" gradientUnits="userSpaceOnUse" x1="873.8392" y1="2307.1748" x2="962.6879" y2="2307.1748">
					<stop  offset="0" style="stop-color:#FEBBBA"/>
					<stop  offset="1" style="stop-color:#FF928E"/>
				</linearGradient>
				<path class="st50" d="M880.3,2346.7c0,0-9.3-38.2-5.5-51.8c3.7-13.6,11-31,35.2-27.1c24.2,3.9,52.7,14.1,52.7,14.1
					s-1.4,17.7-19.8,12l11.4,8.8c0,0-1.6,14.1-17.2,6.6l10.6,11.7c0,0-6.7,11.6-18.1,4.2C918.2,2317.7,912.7,2351.3,880.3,2346.7z"
					/>
			</g>
			<linearGradient id="SVGID_43_" gradientUnits="userSpaceOnUse" x1="828.8088" y1="2032.1891" x2="941.565" y2="2032.1891">
				<stop  offset="0" style="stop-color:#FEBBBA"/>
				<stop  offset="1" style="stop-color:#FF928E"/>
			</linearGradient>
			<path class="st51" d="M866.1,1971.4L829,2078.6c-0.6,1.8,0.1,3.7,1.8,4.7c10.1,5.6,46.5,21.7,90.4-6.1c4.6-2.9,7.7-7.6,8.4-13
				l12-92.8H866.1z"/>
			<g>
				
					<linearGradient id="SVGID_44_" gradientUnits="userSpaceOnUse" x1="-4942.4355" y1="-707.1577" x2="-4984.5713" y2="-846.1304" gradientTransform="matrix(0.746 -0.6659 0.6659 0.746 5126.3354 -803.1727)">
					<stop  offset="0" style="stop-color:#FEBBBA"/>
					<stop  offset="1" style="stop-color:#FF928E"/>
				</linearGradient>
				<path class="st52" d="M946.8,1872.1c0,0,40.7,76.6,35.5,107.6c-5.2,31-55.7,28.7-99.7,3.6l-30.8-82.8L946.8,1872.1z"/>
				
					<linearGradient id="SVGID_45_" gradientUnits="userSpaceOnUse" x1="-4980.4502" y1="-949.2973" x2="-4945.2041" y2="-748.2641" gradientTransform="matrix(0.746 -0.6659 0.6659 0.746 5126.3354 -803.1727)">
					<stop  offset="0" style="stop-color:#09005D"/>
					<stop  offset="1" style="stop-color:#1A0F91"/>
				</linearGradient>
				<path class="st53" d="M884.5,1942.6c1.8-0.8,2.5-3,1.4-4.6c-3.3-5-9.4-15.1-11.3-24c0,0-7.3-4.7,18.6-10.9
					c25.9-6.2,64.6-15.9,72.8-37.9c7.9-21.5-12.9-75.7-46.1-32.5c-1.3,1.6-3.7,1.7-5,0c-5.4-7.1-19.8-21.8-39.7-12.9
					c-18.6,8.4-20.7,22-20.5,28.9c0.1,2-1.7,3.6-3.7,3.2c-9.4-1.8-32-3.3-42.5,19.8c-8.7,19.1-3,29.9,2.1,35.2
					c1.7,1.7,0.9,4.5-1.3,5.2c-6.2,1.9-14.2,7.1-13.4,21.6c1.1,20,23.5,18.3,29.9,17.4c1-0.1,2.1,0.2,2.8,1
					c5.5,6.1,30.1,31.7,56.8,34.8c2.3,0.3,4.1-2,3.3-4.2l-11.5-33.5c-0.5-1.6,0.2-3.3,1.7-3.9L884.5,1942.6z"/>
				
					<linearGradient id="SVGID_46_" gradientUnits="userSpaceOnUse" x1="-4985.5083" y1="-707.8043" x2="-5023.4185" y2="-832.8415" gradientTransform="matrix(0.746 -0.6659 0.6659 0.746 5126.3354 -803.1727)">
					<stop  offset="0" style="stop-color:#FEBBBA"/>
					<stop  offset="1" style="stop-color:#FF928E"/>
				</linearGradient>
				<path class="st54" d="M889.1,1947.4c0,0-29-19.9-31.1-3.1c-2.1,16.7,26.1,24.3,40.1,18L889.1,1947.4z"/>
			</g>
		</g>
		<g>
			<g>
				<linearGradient id="SVGID_47_" gradientUnits="userSpaceOnUse" x1="2890.1228" y1="2628.1897" x2="2528.9866" y2="4019.2307">
					<stop  offset="0" style="stop-color:#09005D"/>
					<stop  offset="1" style="stop-color:#1A0F91"/>
				</linearGradient>
				<rect x="2772.1" y="2905.2" class="st55" width="24.2" height="261.9"/>
				<linearGradient id="SVGID_48_" gradientUnits="userSpaceOnUse" x1="2927.5139" y1="2613.4158" x2="2551.616" y2="4061.3167">
					<stop  offset="0" style="stop-color:#09005D"/>
					<stop  offset="1" style="stop-color:#1A0F91"/>
				</linearGradient>
				<path class="st56" d="M2890.3,3172.1h-212.1V3159c0-1.4,1.2-2.6,2.6-2.6h206.9c1.4,0,2.6,1.2,2.6,2.6V3172.1z"/>
				<linearGradient id="SVGID_49_" gradientUnits="userSpaceOnUse" x1="2857.1262" y1="2619.6233" x2="2495.9883" y2="4010.6711">
					<stop  offset="0" style="stop-color:#09005D"/>
					<stop  offset="1" style="stop-color:#1A0F91"/>
				</linearGradient>
				<path class="st57" d="M2921.7,2896.1c0,14.3-11.7,26-26,26h-214.6c-14.3,0-26-11.7-26-26v-23.5c0-14.3,11.7-26,26-26h214.6
					c14.3,0,26,11.7,26,26V2896.1z"/>
			</g>
			<g>
				<linearGradient id="SVGID_50_" gradientUnits="userSpaceOnUse" x1="2519.9446" y1="2945.4009" x2="2692.1299" y2="2945.4009">
					<stop  offset="0" style="stop-color:#FEBBBA"/>
					<stop  offset="1" style="stop-color:#FF928E"/>
				</linearGradient>
				<path class="st58" d="M2605.4,2730.6c0,0-36,5.6-76.4,32.6c-6.4,4.3-9.9,11.7-8.9,19.3c4.8,38.4,24.8,162.6,90.4,283.9
					c3.5,6.4,4.5,13.8,2.9,21l-11.4,53.1l-21.2,19.8h54.5l36.3-98.2l-15.5-4.9c-12-3.8-20.3-14.9-20.5-27.5l-1.8-105.4
					c1.6-46.9-28.8-79.3-28.8-79.3l87.1-4.2L2605.4,2730.6z"/>
				<linearGradient id="SVGID_51_" gradientUnits="userSpaceOnUse" x1="2625.2981" y1="3057.5967" x2="2599.9724" y2="3445.9246">
					<stop  offset="0" style="stop-color:#4F52FF"/>
					<stop  offset="1" style="stop-color:#4042E2"/>
				</linearGradient>
				<path class="st59" d="M2559.6,3169.8c-5,6.5,53.4,15.1,82.9,0.9c0,0,40.9-71.2,40.9-107.8c0,0-3.2-7.5-27.3-5.8
					c0,0-13.7,84.2-28.2,93.7c-14.5,9.4-40.6,1-40.6,1S2566.9,3160.2,2559.6,3169.8z"/>
				<linearGradient id="SVGID_52_" gradientUnits="userSpaceOnUse" x1="2317.7705" y1="2957.1624" x2="2681.1157" y2="2957.1624">
					<stop  offset="0" style="stop-color:#FEBBBA"/>
					<stop  offset="1" style="stop-color:#FF928E"/>
				</linearGradient>
				<path class="st60" d="M2681.1,2846.5c-0.5-0.8-93.7-11.2-93.7-11.2s3.1,28.4-6.5,67.4c-9.5,39-146.5,208.2-146.5,208.2
					l14.4,45.5c-44.4,15.5-88.1,17.9-131,7.9l89-53.4c0,0,83.3-283.8,134.3-334.4l93.5-32.3L2681.1,2846.5z"/>
				<linearGradient id="SVGID_53_" gradientUnits="userSpaceOnUse" x1="2798.6899" y1="2543.0518" x2="2618.6594" y2="3340.3274">
					<stop  offset="0" style="stop-color:#4F52FF"/>
					<stop  offset="1" style="stop-color:#4042E2"/>
				</linearGradient>
				<path class="st61" d="M2890.3,2681.4c0,0,53.7,79.9,58.1,116.4c4.4,36.5-14.7,51.3-71.1,53.7c-56.4,2.4-206.9,2.4-206.9,2.4
					L2542,2744.1c0,0,93.6-33.4,118-42.8C2684.3,2691.8,2890.3,2681.4,2890.3,2681.4z"/>
				<linearGradient id="SVGID_54_" gradientUnits="userSpaceOnUse" x1="2380.908" y1="3041.6587" x2="2355.5823" y2="3429.9856">
					<stop  offset="0" style="stop-color:#4F52FF"/>
					<stop  offset="1" style="stop-color:#4042E2"/>
				</linearGradient>
				<path class="st62" d="M2443.4,3141c0,0,15.5,15,5,31.6c0,0-122.4,21.7-155.7,11.9c0,0,6.9-15.8,44.3-33.7l-2.8,2.1
					c-3.5,2.7-1.4,8.3,3,8C2361.9,3159.5,2412.9,3155,2443.4,3141z"/>
			</g>
			<g>
				<linearGradient id="SVGID_55_" gradientUnits="userSpaceOnUse" x1="3790.5068" y1="663.9275" x2="3481.8845" y2="1245.1665">
					<stop  offset="0" style="stop-color:#FF928E"/>
					<stop  offset="1" style="stop-color:#FE7062"/>
				</linearGradient>
				<path class="st63" d="M2745,2670.8c0,0-62.6-59.6-93.4-99c-16.6-21.3-21.9-49.4-14.2-75.4c14.1-47.4,39.1-96.4,41.3-104.1
					c3.5-11.7,73.7-11.2,73.7-11.2s138.1,89.6,192.3,241.4l-60.9,19c0,0-36-60.5-71.7-98.9c0,0,61.6,81.4,63.8,114.7L2745,2670.8z"
					/>
				<linearGradient id="SVGID_56_" gradientUnits="userSpaceOnUse" x1="2725.8838" y1="2458.4817" x2="2707.7097" y2="2341.866">
					<stop  offset="0" style="stop-color:#FEBBBA"/>
					<stop  offset="1" style="stop-color:#FF928E"/>
				</linearGradient>
				<path class="st64" d="M2670.3,2326.9c0.7,2.4,19,63.1,20.5,64.4c1.4,1.3,40.2,3.3,58.4-9.1l-30.9-64.7L2670.3,2326.9z"/>
				<linearGradient id="SVGID_57_" gradientUnits="userSpaceOnUse" x1="2647.3328" y1="2238.7085" x2="2807.8684" y2="2347.7515">
					<stop  offset="0" style="stop-color:#FEBBBA"/>
					<stop  offset="1" style="stop-color:#FF928E"/>
				</linearGradient>
				<path class="st65" d="M2700.3,2199.4c0,0-33.1,14-55.5,61.7c-22.5,47.8-5.7,69.8,15.4,72.9c21.1,3,52.6,2.6,86-28.3
					C2779.5,2274.8,2743.3,2182.8,2700.3,2199.4z"/>
				<linearGradient id="SVGID_58_" gradientUnits="userSpaceOnUse" x1="2927.4993" y1="2033.8602" x2="2658.2397" y2="2313.9988">
					<stop  offset="0" style="stop-color:#09005D"/>
					<stop  offset="1" style="stop-color:#1A0F91"/>
				</linearGradient>
				<path class="st66" d="M2723.7,2280.2c0,0,24.9-69.9-37-70.7l-14.6,10.2c0,0-22.7-38.7,14.6-57.2c37.3-18.5,93-2,108.9,48.2
					c15.9,50.3,6.6,82.7-19.8,106.8c-26.4,24.1-37.3-3.2-37.3-3.2s14.4-22.5,8.5-34.5c-5.9-12-19.4,2.5-19.4,2.5L2723.7,2280.2z"/>
				<linearGradient id="SVGID_59_" gradientUnits="userSpaceOnUse" x1="2656.9541" y1="2224.5417" x2="2817.491" y2="2333.5857">
					<stop  offset="0" style="stop-color:#FEBBBA"/>
					<stop  offset="1" style="stop-color:#FF928E"/>
				</linearGradient>
				<path class="st67" d="M2730.7,2288c0,0,12.6-36,29.4-21.7c16.8,14.3-13.7,33.3-25.6,39.4L2730.7,2288z"/>
				<linearGradient id="SVGID_60_" gradientUnits="userSpaceOnUse" x1="2830.2195" y1="2660.4004" x2="3171.5381" y2="2660.4004">
					<stop  offset="0" style="stop-color:#FEBBBA"/>
					<stop  offset="1" style="stop-color:#FF928E"/>
				</linearGradient>
				<path class="st68" d="M2617.5,2675.2l46-44.3l63.6,26.9c0,0,63.3,9.8,99.5,0c36.2-9.8,36.2-9.8,36.2-9.8l81.9-25.5l12.9,36.3
					c3.3,9.2,0,19.5-8,25.1c-7.1,5-15.4,10.6-20.7,12.9c-10.8,4.7-265.8-3.3-265.8-3.3L2617.5,2675.2z"/>
				<linearGradient id="SVGID_61_" gradientUnits="userSpaceOnUse" x1="3047.1758" y1="2148.8889" x2="2777.9165" y2="2429.0271">
					<stop  offset="0" style="stop-color:#09005D"/>
					<stop  offset="1" style="stop-color:#1A0F91"/>
				</linearGradient>
				<path class="st69" d="M2790.7,2218.5c-8-8.1-2.8-21.9,8.5-23.6c36.3-5.7,91.7,0.1,115,77.9c26.2,87.6,43.3,131.4,60.8,139.1
					c11.5,5,12.2,21,0.8,26.1c-8.5,3.8-20.6,5.2-37.9,1.3C2803.9,2409.9,2837.5,2266.3,2790.7,2218.5z"/>
			</g>
			<g>
				
					<linearGradient id="SVGID_62_" gradientUnits="userSpaceOnUse" x1="2742.1965" y1="2819.1309" x2="2527.3333" y2="2878.0193" gradientTransform="matrix(0.9988 -4.940000e-002 4.940000e-002 0.9988 -41.469 -55.0328)">
					<stop  offset="0" style="stop-color:#09005D"/>
					<stop  offset="1" style="stop-color:#1A0F91"/>
				</linearGradient>
				<path class="st70" d="M2791.5,2696.1c-0.2,0-0.4,0-0.6,0l-266.7-0.3c-6.6,0-11.9-5.4-11.9-11.9c0-6.6,5.4-12,11.9-11.9
					l266.7,0.3c6.6,0,11.9,5.4,11.9,11.9C2802.8,2690.6,2797.8,2695.8,2791.5,2696.1z"/>
				<linearGradient id="SVGID_63_" gradientUnits="userSpaceOnUse" x1="2545.8948" y1="2486.4475" x2="2393.4397" y2="2647.583">
					<stop  offset="0" style="stop-color:#09005D"/>
					<stop  offset="1" style="stop-color:#1A0F91"/>
				</linearGradient>
				<path class="st71" d="M2284.4,2454h222.1c16.4,0,31.3,9.5,38.3,24.3l102.7,217.7h-276c-10.6,0-20-6.5-23.9-16.3l-79.6-201.5
					C2263.3,2466.6,2271.9,2454,2284.4,2454z"/>
				
					<ellipse transform="matrix(0.9519 -0.3064 0.3064 0.9519 -671.1392 866.4337)" class="st5" cx="2424.2" cy="2571" rx="17.5" ry="28.4"/>
			</g>
			<g>
				<path class="st12" d="M3164.2,2705.8c0.6-3-0.2-6.2-2.3-8.5c-2.1-2.4-5.2-3.8-8.5-3.8H2040.5c-4.3,0-8.3,2.1-10.7,5.5
					c-2.3,3.4-2.6,7.7-0.8,11.4l12.1,24.5c2.8,5.6,8.7,9.2,15.3,9.2h1089.3c6.1,0,11.4-4.1,12.6-9.7L3164.2,2705.8z"/>
				<g>
					<path class="st12" d="M2102.9,3221.5c-1.3,0-2.6-0.3-3.9-0.8c-5-2.2-7.2-8.1-5.1-13.1l204.8-487.2c2.1-5.1,7.9-7.4,12.8-5.2
						c5,2.2,7.2,8.1,5.1,13.1l-204.8,487.2C2110.3,3219.2,2106.7,3221.5,2102.9,3221.5z"/>
					<path class="st12" d="M2333.7,3221.5c-3.8,0-7.4-2.3-9-6l-204.8-487.2c-2.1-5.1,0.2-10.9,5.1-13.1c5-2.2,10.7,0.2,12.8,5.2
						l204.8,487.2c2.1,5.1-0.2,10.9-5.1,13.1C2336.3,3221.2,2334.9,3221.5,2333.7,3221.5z"/>
					<path class="st12" d="M2909.5,3221.5c-1.3,0-2.6-0.3-3.9-0.8c-5-2.2-7.2-8.1-5.1-13.1l204.8-487.2c2.1-5.1,7.9-7.4,12.8-5.2
						c5,2.2,7.2,8.1,5.1,13.1l-204.8,487.2C2916.8,3219.2,2913.2,3221.5,2909.5,3221.5z"/>
					<path class="st12" d="M3140.2,3221.5c-3.8,0-7.4-2.3-9-6l-204.8-487.2c-2.1-5.1,0.2-10.9,5.1-13.1c5-2.2,10.7,0.2,12.8,5.2
						l204.8,487.2c2.1,5.1-0.2,10.9-5.1,13.1C3142.8,3221.2,3141.5,3221.5,3140.2,3221.5z"/>
				</g>
			</g>
		</g>
	</g>
</g>
</svg>
