<?xml version="1.0" encoding="utf-8"?>
<!-- Generator: Adobe Illustrator 19.0.0, SVG Export Plug-In . SVG Version: 6.00 Build 0)  -->
<svg version="1.1" xmlns="http://www.w3.org/2000/svg" xmlns:xlink="http://www.w3.org/1999/xlink" x="0px" y="0px"
	 viewBox="0 0 500 500" style="enable-background:new 0 0 500 500;" xml:space="preserve">
<style type="text/css">
	.st0{fill:#F4F7FA;}
	.st1{fill:url(#SVGID_1_);}
	.st2{fill:url(#SVGID_2_);}
	.st3{fill:url(#SVGID_3_);}
	.st4{opacity:0.71;fill:#FFFFFF;}
	.st5{fill:#FFFFFF;}
	.st6{fill:#26264F;}
	.st7{fill:url(#SVGID_4_);}
	.st8{fill:url(#SVGID_5_);}
	.st9{opacity:0.48;fill:#FFFFFF;}
	.st10{fill:url(#SVGID_6_);}
	.st11{fill:url(#SVGID_7_);}
	.st12{fill:url(#SVGID_8_);}
	.st13{opacity:0.71;}
	.st14{fill:url(#SVGID_9_);}
	.st15{fill:url(#SVGID_10_);}
	.st16{fill:url(#SVGID_11_);}
	.st17{fill:url(#SVGID_12_);}
	.st18{fill:url(#SVGID_13_);}
	.st19{fill:url(#SVGID_14_);}
	.st20{opacity:0.3;fill:url(#SVGID_15_);}
	.st21{fill:url(#SVGID_16_);}
	.st22{fill:url(#SVGID_17_);}
	.st23{fill:url(#SVGID_18_);}
	.st24{fill:url(#SVGID_19_);}
	.st25{opacity:0.3;fill:url(#SVGID_20_);}
	.st26{fill:url(#SVGID_21_);}
	.st27{fill:url(#SVGID_22_);}
	.st28{fill:url(#SVGID_23_);}
	.st29{fill:url(#SVGID_24_);}
	.st30{opacity:0.3;}
	.st31{opacity:0.3;fill:url(#SVGID_25_);}
	.st32{fill:url(#SVGID_26_);}
	.st33{fill:url(#SVGID_27_);}
	.st34{fill:url(#SVGID_28_);}
	.st35{fill:url(#SVGID_29_);}
	.st36{fill:url(#SVGID_30_);}
	.st37{opacity:0.3;fill:url(#SVGID_31_);}
</style>
<g id="Background">
</g>
<g id="Illustration">
	<g>
		<path class="st0" d="M267.7,53.3c-51.7,18.8-56.7,66.9-103.2,71c-40.6,3.6-56-31.2-84.5-25c-43.4,9.5-70.6,104.1-53.2,181.8
			c18,80.3,93.5,187,218.7,194.3c140.5,8.2,246.8-114.6,253.3-222.4c0.7-11.7,4.8-109.3-76.8-167C418,83.2,337.6,27.9,267.7,53.3z"
			/>
		<g>
			<g>
				<linearGradient id="SVGID_1_" gradientUnits="userSpaceOnUse" x1="31.1601" y1="319.7011" x2="402.6546" y2="319.7011">
					<stop  offset="0" style="stop-color:#FF9085"/>
					<stop  offset="1" style="stop-color:#FB6FBB"/>
				</linearGradient>
				<path class="st1" d="M31.2,238.1v154.2c0,5.1,4.8,9.2,10.7,9.1l351-6.7c5.4-0.1,9.8-4.2,9.8-9.1V238L31.2,238.1z"/>
				<linearGradient id="SVGID_2_" gradientUnits="userSpaceOnUse" x1="246.366" y1="186.2238" x2="86.9691" y2="446.8031">
					<stop  offset="0" style="stop-color:#40447E"/>
					<stop  offset="0.9964" style="stop-color:#3C3B6B"/>
				</linearGradient>
				<path class="st2" d="M392.8,219.3l-351-0.8c-5.9,0-10.7,4.1-10.7,9.2v15.8l371.5-0.3v-15.1C402.7,223.3,398.3,219.3,392.8,219.3
					z"/>
				<linearGradient id="SVGID_3_" gradientUnits="userSpaceOnUse" x1="46.2266" y1="230.8827" x2="55.7108" y2="230.8827">
					<stop  offset="0" style="stop-color:#FF9085"/>
					<stop  offset="1" style="stop-color:#FB6FBB"/>
				</linearGradient>
				<path class="st3" d="M55.7,230.9c0,2.3-2.1,4.1-4.7,4.1c-2.6,0-4.7-1.8-4.7-4.1c0-2.3,2.1-4.1,4.7-4.1
					C53.6,226.8,55.7,228.6,55.7,230.9z"/>
			</g>
			<g>
				<polygon class="st4" points="105,380.1 77.9,380.5 77.9,265.4 105,265.3 				"/>
				<polygon class="st5" points="105,380.1 77.9,380.5 77.9,325.9 105,325.6 				"/>
				<polygon class="st4" points="142.3,379.4 115.5,379.9 115.5,265.3 142.3,265.2 				"/>
				<polygon class="st5" points="142.3,379.4 115.5,379.9 115.5,352.7 142.3,352.3 				"/>
				<polygon class="st4" points="179.2,378.8 152.7,379.3 152.7,265.2 179.2,265.1 				"/>
				<polygon class="st5" points="179.2,378.8 152.7,379.3 152.7,365 179.2,364.6 				"/>
				<polygon class="st4" points="215.9,378.2 189.6,378.6 189.6,265 215.9,264.9 				"/>
				<polygon class="st5" points="215.9,378.2 189.6,378.6 189.6,289.6 215.9,289.5 				"/>
				<polygon class="st4" points="252.2,377.6 226.1,378 226.1,264.9 252.2,264.8 				"/>
				<polygon class="st5" points="252.2,377.6 226.1,378 226.1,299.5 252.2,299.3 				"/>
				<polygon class="st4" points="288.2,377 262.4,377.4 262.4,264.8 288.2,264.7 				"/>
				<polygon class="st5" points="288.2,377 262.4,377.4 262.4,281.2 288.2,281 				"/>
				<polygon class="st4" points="324,376.4 298.3,376.8 298.3,264.7 324,264.6 				"/>
				<polygon class="st5" points="324,376.4 298.3,376.8 298.3,307.9 324,307.7 				"/>
				<polygon class="st4" points="359.4,375.8 333.9,376.2 333.9,264.6 359.4,264.5 				"/>
				<polygon class="st5" points="359.4,375.8 333.9,376.2 333.9,337.5 359.4,337.1 				"/>
			</g>
		</g>
		<g>
			<g>
				<g>
					<path class="st6" d="M325.1,438.9L55,436.8v6.2c0,1.7,1.2,3.1,2.8,3.3l76.4,12.1c0.9,0.1,1.8,0.2,2.7,0.1l185.3-13.8
						c1.7-0.1,2.9-1.5,2.9-3.3V438.9z"/>
					<g>
						<path class="st6" d="M227.1,429.1L57.8,440.3c-3,0.2-5.5-1.9-5.5-4.8v-114c0-2.8,2.5-5.2,5.5-5.2h169.3c2.5,0,4.5,2.1,4.5,4.7
							v103C231.6,426.7,229.6,428.9,227.1,429.1z"/>
						<linearGradient id="SVGID_4_" gradientUnits="userSpaceOnUse" x1="55.0296" y1="378.3772" x2="234.3033" y2="378.3772">
							<stop  offset="0" style="stop-color:#444B8C"/>
							<stop  offset="0.9964" style="stop-color:#26264F"/>
						</linearGradient>
						<path class="st7" d="M229.8,429.1L60.5,440.3c-3,0.2-5.5-1.9-5.5-4.8v-114c0-2.8,2.5-5.2,5.5-5.2h169.3c2.5,0,4.5,2.1,4.5,4.7
							v103C234.3,426.7,232.3,428.9,229.8,429.1z"/>
						<linearGradient id="SVGID_5_" gradientUnits="userSpaceOnUse" x1="62.3928" y1="377.312" x2="228.2408" y2="377.312">
							<stop  offset="0" style="stop-color:#AA80F9"/>
							<stop  offset="0.9964" style="stop-color:#6165D7"/>
						</linearGradient>
						<path class="st8" d="M224.5,421.8l-157.7,9.8c-2.5,0.2-4.5-1.6-4.5-3.9v-99.8c0-2.3,2-4.2,4.5-4.2l157.7-0.6
							c2.1,0,3.7,1.7,3.7,3.8v90.9C228.2,419.8,226.6,421.7,224.5,421.8z"/>
						<ellipse class="st5" cx="149.2" cy="319.5" rx="1.9" ry="1.9"/>
						<path class="st9" d="M60.5,440.3l168.4-11.2l0.9-0.1c1.1-0.1,2.2-0.6,3-1.4c-12.1-0.6-19.6-4.5-24.5-8.5
							c-9.8-8.1-8.1-16-18.6-21.3c-13.1-6.6-23.4,1.8-33.4-6.5c-6-5-3.1-8.8-10.5-16.3c-8.2-8.3-13.6-5.5-21.8-13
							c-10.4-9.4-5.2-16.8-14.2-23.6c-10.9-8.2-22.7-0.6-33.1-8.5c-4.5-3.4-6.9-8.4-8.2-13.6h-7.9c-3,0-5.5,2.3-5.5,5.2v114
							C55,438.4,57.5,440.5,60.5,440.3z"/>
					</g>
					<linearGradient id="SVGID_6_" gradientUnits="userSpaceOnUse" x1="55.0296" y1="440.7044" x2="325.0982" y2="440.7044">
						<stop  offset="0" style="stop-color:#444B8C"/>
						<stop  offset="0.9964" style="stop-color:#26264F"/>
					</linearGradient>
					<path class="st10" d="M236.5,428.4L55,440.3l79.1,12.6c0.9,0.1,1.8,0.2,2.7,0.1l188.2-14l-85.7-10.4
						C238.5,428.4,237.5,428.4,236.5,428.4z"/>
					<polygon class="st6" points="81.5,440.4 232.6,430.4 279.4,436 129.6,446.7 					"/>
				</g>
			</g>
		</g>
		<g>
			<linearGradient id="SVGID_7_" gradientUnits="userSpaceOnUse" x1="91.4059" y1="174.4742" x2="462.9005" y2="174.4742">
				<stop  offset="0" style="stop-color:#AA80F9"/>
				<stop  offset="0.9964" style="stop-color:#6165D7"/>
			</linearGradient>
			<path class="st11" d="M91.4,91.8V246c0,5.1,4.8,9.3,10.7,9.3l351,1.8c5.4,0,9.8-3.9,9.8-8.8V100.8L91.4,91.8z"/>
			<linearGradient id="SVGID_8_" gradientUnits="userSpaceOnUse" x1="91.4059" y1="89.2673" x2="462.9005" y2="89.2673">
				<stop  offset="0" style="stop-color:#40447E"/>
				<stop  offset="0.9964" style="stop-color:#3C3B6B"/>
			</linearGradient>
			<path class="st12" d="M453.1,81.8l-351-9.3c-5.9-0.2-10.7,3.9-10.7,9v15.8l371.5,8.7V90.9C462.9,86,458.5,81.9,453.1,81.8z"/>
			<g>
				<g>
					<g>
						<path class="st5" d="M370.8,176.1l19.6-59.4c29.5,9,50.8,33.5,51,62.1L370.8,176.1z"/>
					</g>
					<g class="st13">
						<path class="st5" d="M423.1,182.4c-1.1,13.6-8.5,25.6-19.8,33.7l-30.7-35.7L423.1,182.4z"/>
						<path class="st5" d="M366.4,174c-11.9-10.1-26.2-22.4-37.7-32.2c10.1-8.2,23.8-13.1,38.8-12.8c4.5,0.1,9,0.7,13.2,1.6
							L366.4,174z"/>
						<path class="st5" d="M363.9,177.7l-43.2,27.1c-6.1-7.9-9.6-17.4-9.6-27.6c0-12.5,5.4-23.9,14.2-32.4c3.2,2.7,6.7,5.7,10.5,9
							C347.6,163.8,359.3,173.8,363.9,177.7z"/>
						<path class="st5" d="M365.2,182.2l-0.8,44.8c-16.4-1-31-8.1-40.7-18.7L365.2,182.2z"/>
						<path class="st5" d="M369.9,184.1l29.6,34.4c-8.6,5.2-19.1,8.3-30.4,8.5L369.9,184.1z"/>
					</g>
				</g>
				<g>
					<polygon class="st4" points="291.8,148.2 113.6,145 113.6,129.9 291.8,133.5 					"/>
					<polygon class="st4" points="291.8,174.9 113.6,172.3 113.6,157.2 291.8,160.2 					"/>
					<polygon class="st4" points="291.8,201.7 113.6,199.6 113.6,184.5 291.8,186.9 					"/>
					<polygon class="st4" points="291.8,228.4 113.6,226.9 113.6,211.8 291.8,213.6 					"/>
				</g>
			</g>
			<linearGradient id="SVGID_9_" gradientUnits="userSpaceOnUse" x1="106.4725" y1="85.0776" x2="115.9567" y2="85.0776">
				<stop  offset="0" style="stop-color:#AA80F9"/>
				<stop  offset="0.9964" style="stop-color:#6165D7"/>
			</linearGradient>
			<path class="st14" d="M116,85.2c0,2.3-2.1,4.1-4.7,4c-2.6-0.1-4.7-2-4.7-4.2c0-2.3,2.1-4.1,4.7-4C113.8,81,116,82.9,116,85.2z"/>
		</g>
		<g>
			
				<linearGradient id="SVGID_10_" gradientUnits="userSpaceOnUse" x1="941.1238" y1="446.496" x2="944.5883" y2="490.5881" gradientTransform="matrix(1 0 0 1 -626.2627 0)">
				<stop  offset="3.597000e-003" style="stop-color:#26264F"/>
				<stop  offset="1" style="stop-color:#444B8C"/>
			</linearGradient>
			<path class="st15" d="M322.1,468.4c0,0-15.5,6.4-15.7,7.4c-0.3,1,9.9-0.3,14.1-0.2c4.2,0.1,7.6-1,7.2-2.6
				c-0.4-1.6-1.8-5.6-1.8-5.6L322.1,468.4z"/>
			
				<linearGradient id="SVGID_11_" gradientUnits="userSpaceOnUse" x1="950.7889" y1="470.9863" x2="950.1574" y2="425.2023" gradientTransform="matrix(1 0 0 1 -626.2627 0)">
				<stop  offset="0" style="stop-color:#AB316D"/>
				<stop  offset="1" style="stop-color:#792D3D"/>
			</linearGradient>
			<path class="st16" d="M321.5,463.3l0.9,6.3c0,0,2.4,0.8,4.1-0.1l0.7-6.9L321.5,463.3z"/>
			
				<linearGradient id="SVGID_12_" gradientUnits="userSpaceOnUse" x1="1013.7811" y1="441.369" x2="1017.2358" y2="485.3379" gradientTransform="matrix(1 0 0 1 -626.2627 0)">
				<stop  offset="3.597000e-003" style="stop-color:#26264F"/>
				<stop  offset="1" style="stop-color:#444B8C"/>
			</linearGradient>
			<path class="st17" d="M394.4,463.4l1.8,2.6c0.5,0.7,0.7,1.6,0.4,2.4c-0.6,2.2-1.9,6.4-2.4,7.5c-0.7,1.5-10.8,2.4-10.8,2.4
				s-0.9-1.1,1.2-2.5c2.1-1.4,3.4-1.6,4.1-3.6c0.7-2,1.2-7.8,1.2-7.8L394.4,463.4z"/>
			
				<linearGradient id="SVGID_13_" gradientUnits="userSpaceOnUse" x1="1017.3464" y1="470.1564" x2="1016.7148" y2="424.3645" gradientTransform="matrix(1 0 0 1 -626.2627 0)">
				<stop  offset="0" style="stop-color:#AB316D"/>
				<stop  offset="1" style="stop-color:#792D3D"/>
			</linearGradient>
			<path class="st18" d="M386.9,456.8c0.7,0.5,3.9,9.3,3.9,9.3s1,1.2,3-0.6c2-1.8,0.9-0.8,0.9-0.8l-0.4-8.7L386.9,456.8z"/>
			<linearGradient id="SVGID_14_" gradientUnits="userSpaceOnUse" x1="312.4479" y1="396.7818" x2="349.9042" y2="396.7818">
				<stop  offset="0" style="stop-color:#311944"/>
				<stop  offset="1" style="stop-color:#6B3976"/>
			</linearGradient>
			<path class="st19" d="M313,336.7c-0.8,18.8-0.8,39.2,0.3,61c1.3,24.6,4.1,47.2,7.5,67.8c1.3,0,2.6,0,4,0c0.9,0,1.8-0.1,2.7-0.1
				c1.8-4.3,3.9-9.9,5.7-16.6c2-7,3.2-13.4,4-19.4c3-21.3-0.5-23.1,1.9-38.9c2.1-14,5.2-14.5,8.8-34.3c3.9-21.5,1-24.7-0.4-25.9
				C341.6,325.3,327.5,328.7,313,336.7z"/>
			<linearGradient id="SVGID_15_" gradientUnits="userSpaceOnUse" x1="315.038" y1="396.7832" x2="349.9041" y2="396.7832">
				<stop  offset="3.597000e-003" style="stop-color:#26264F"/>
				<stop  offset="1" style="stop-color:#444B8C"/>
			</linearGradient>
			<path class="st20" d="M347.5,330.3c-5.7-4.7-18.7-1.9-32.5,5.4c15.8,15.5,17.6,25.5,15.7,32c-2.1,7.4-8.7,9.5-8.6,17.5
				c0,9.9,9.9,12.5,9.7,23c-0.1,6.9-4.5,6.9-5.5,15.4c-1.2,10.1,4.5,13.6,2.6,21.1c-0.8,3.2-3,7.4-9.5,11.8c0.5,3.1,0.9,6.1,1.4,9.1
				c1.3,0,2.6,0,4,0c0.9,0,1.8-0.1,2.7-0.1c1.8-4.3,3.9-9.9,5.7-16.6c2-7,3.2-13.4,4-19.4c3-21.3-0.5-23.1,1.9-38.9
				c2.1-14,5.2-14.5,8.8-34.3C351.8,334.7,349,331.5,347.5,330.3z"/>
			<linearGradient id="SVGID_16_" gradientUnits="userSpaceOnUse" x1="322.8466" y1="393.4433" x2="398.2502" y2="393.4433">
				<stop  offset="0" style="stop-color:#311944"/>
				<stop  offset="1" style="stop-color:#6B3976"/>
			</linearGradient>
			<path class="st21" d="M322.8,336.4c13.6,18,28.4,40.5,41.5,67.4c9.9,20.3,17.2,39.4,22.4,56.4c0.7,0.3,2.4,0.9,4.6,0.6
				c2.9-0.4,4.7-2.1,5.2-2.5c2.2-12.2,1.9-22.5,1.2-30c-0.5-4.8-1.3-12.7-4.7-22.5c-3.8-11-6.4-11.6-11.3-23.2
				c-5.1-12.1-3.9-15.1-8.7-30.2c-2-6.2-5.4-15.4-10.9-26.5C349,329.5,335.9,332.9,322.8,336.4z"/>
			
				<linearGradient id="SVGID_17_" gradientUnits="userSpaceOnUse" x1="-3989.8979" y1="235.1568" x2="-4008.9792" y2="292.4008" gradientTransform="matrix(-0.9998 2.180000e-002 2.180000e-002 0.9998 -3746.5347 43.3198)">
				<stop  offset="0" style="stop-color:#AB316D"/>
				<stop  offset="1" style="stop-color:#792D3D"/>
			</linearGradient>
			<path class="st22" d="M258.3,208c0,0-2.6-2.9-4.3-5c-1.7-2.1-9.5-8.1-9.5-8.1s-0.6,1,1.1,2.5c1.7,1.5,5.2,4.1,4.4,5.2
				c-0.8,1.1-3,2.2-1.3,4.3c1.7,2.1,4.4,0.6,5.9,2.3c1.5,1.7,3,3.5,3,3.5L258.3,208z"/>
			
				<linearGradient id="SVGID_18_" gradientUnits="userSpaceOnUse" x1="219.3167" y1="298.8237" x2="307.7535" y2="713.0796" gradientTransform="matrix(0.9998 -2.180000e-002 2.180000e-002 0.9998 78.0428 -40.1176)">
				<stop  offset="0" style="stop-color:#FFC444"/>
				<stop  offset="0.9964" style="stop-color:#F36F56"/>
			</linearGradient>
			<path class="st23" d="M258.7,204.9c-1.8,2-3.5,4-5.3,6c2.3,8.8,7.1,22.1,18.3,35.1c11.9,13.7,37.2,34.2,52.9,27.5
				c9.6-4.1,22.6-18.2,17.9-25c-4.5-6.5-23.9-3.4-37.2-6.2C292.3,239.8,275.4,231.2,258.7,204.9z"/>
			
				<linearGradient id="SVGID_19_" gradientUnits="userSpaceOnUse" x1="271.9356" y1="328.1718" x2="301.033" y2="328.1718" gradientTransform="matrix(0.9998 -2.180000e-002 2.180000e-002 0.9998 78.0428 -40.1176)">
				<stop  offset="0" style="stop-color:#FFC444"/>
				<stop  offset="0.9964" style="stop-color:#F36F56"/>
			</linearGradient>
			<path class="st24" d="M380.3,257c0,0,10.3,31.8,3.9,44c-6.4,12.2-26.8-1.2-26.8-1.2L380.3,257z"/>
			
				<linearGradient id="SVGID_20_" gradientUnits="userSpaceOnUse" x1="270.0251" y1="328.1677" x2="299.1225" y2="328.1677" gradientTransform="matrix(0.9998 -2.180000e-002 2.180000e-002 0.9998 78.0428 -40.1176)">
				<stop  offset="0" style="stop-color:#FCB148"/>
				<stop  offset="5.207239e-002" style="stop-color:#FDBA46"/>
				<stop  offset="0.1424" style="stop-color:#FFC244"/>
				<stop  offset="0.3183" style="stop-color:#FFC444"/>
				<stop  offset="0.4849" style="stop-color:#FDB946"/>
				<stop  offset="0.7754" style="stop-color:#F99C4D"/>
				<stop  offset="0.8658" style="stop-color:#F8924F"/>
				<stop  offset="1" style="stop-color:#F8924F"/>
			</linearGradient>
			<path class="st25" d="M378.4,257.1c0,0,10.3,31.8,3.9,44c-6.4,12.2-26.8-1.2-26.8-1.2L378.4,257.1z"/>
			
				<linearGradient id="SVGID_21_" gradientUnits="userSpaceOnUse" x1="255.643" y1="291.6535" x2="343.5892" y2="703.6113" gradientTransform="matrix(0.9998 -2.180000e-002 2.180000e-002 0.9998 78.0428 -40.1176)">
				<stop  offset="0" style="stop-color:#FFC444"/>
				<stop  offset="0.9964" style="stop-color:#F36F56"/>
			</linearGradient>
			<path class="st26" d="M348.2,245.3c-13.3-0.2-23.5,0.2-29.1,5.5c-6,5.6,0.3,11.7-0.6,26.2c-1.5,22.1-16.9,27.8-17.5,50.2
				c-0.2,7.5,1.3,13.7,2.5,17.4c3.5,3.8,9.2,9.1,17.6,13.5c12.2,6.4,19.1,5.1,36.4,9c28.3,6.4,31,14.7,45,12.3
				c14.1-2.4,26.2-13.4,24.6-19.3c-1-3.5-6.6-2.4-13.3-7.7c-8.6-6.8-5.5-13.5-12.1-20.8c-9.5-10.5-22.2-3.7-30.3-12.9
				c-8.2-9.2-5.5-27.8,1-38c4.2-6.7,5.9-14.4,9.5-21.4c0.3-0.6,0.6-1.5,0.4-2.7c-0.7-4.5-9.1-6.8-15.4-8.4
				C357.1,245.5,349.3,245.3,348.2,245.3z"/>
			
				<linearGradient id="SVGID_22_" gradientUnits="userSpaceOnUse" x1="-995.207" y1="280.0331" x2="-983.9806" y2="297.8767" gradientTransform="matrix(0.9998 -2.180000e-002 2.180000e-002 0.9998 1327.3091 -67.3527)">
				<stop  offset="0" style="stop-color:#FF9085"/>
				<stop  offset="1" style="stop-color:#FB6FBB"/>
			</linearGradient>
			<path class="st27" d="M335.3,245.1l2.6-0.8c0,0,0.8,3.2,9.2,3.4c4.7-0.1,7.6-2.5,7.6-2.5l1.8,1.1c0,0-3.8,4.5-10,4.5
				C338.4,250.9,335.3,245.1,335.3,245.1z"/>
			<g>
				
					<linearGradient id="SVGID_23_" gradientUnits="userSpaceOnUse" x1="-426.3363" y1="981.6322" x2="-438.5517" y2="1001.3925" gradientTransform="matrix(0.9519 -0.3063 0.3063 0.9519 452.6905 -835.6058)">
					<stop  offset="0" style="stop-color:#AB316D"/>
					<stop  offset="1" style="stop-color:#792D3D"/>
				</linearGradient>
				<path class="st28" d="M337.4,234.8c-0.7-3.5,1.5-6.5,1.9-7.1c2-2.7,2.5-3,3.3-3.5l1.2-0.5c0,0,0.1,0,0.1,0
					c0.7-0.2,3.2,0,3.7,0.1c1.6,0.4,2.7,6.5,1.3,14.7c0.1,0.6,0.1,1.3,0.2,1.9c3.6-0.4,4.6-0.1,4.8,0.3c0.4,0.9-2.1,6.4-5.5,7.5
					c-4.3,1.3-10.2-2.2-10.5-3.4c-0.1-0.5-0.1-0.1,2.8-1.6c0.3-0.8,1.1-2.8,1.4-3.6C341.6,239.2,338,237.3,337.4,234.8z"/>
				
					<linearGradient id="SVGID_24_" gradientUnits="userSpaceOnUse" x1="-1336.3621" y1="572.4489" x2="-1347.4257" y2="590.3459" gradientTransform="matrix(0.8526 -0.5224 0.5224 0.8526 1182.933 -958.2323)">
					<stop  offset="0" style="stop-color:#AB316D"/>
					<stop  offset="1" style="stop-color:#792D3D"/>
				</linearGradient>
				<path class="st29" d="M342.3,232c0.8-0.8,1.9,0.1,1.8,1.2c-0.1,1.1-1.4,2.2-2.6,1.9C340.4,234.8,341.3,233.1,342.3,232z"/>
				<path class="st6" d="M468.5,195.2c-17.3-8.8-45.9,3.3-58.8,18.2c-6,6.9-8,13.6-16.9,16.7c-6.8,2.4-18.6,3.2-26.8-1.9
					c-1-0.6-5.2-3.4-11.2-6.6c-2.6-1.4-5.2-2.7-8.3-2.3c-0.8,0.1-3.4,0.5-4.6,2.4c-0.9,1.6-0.5,3.7,0.4,5.1c0.6,0.8,0.9,0.8,1.1,1.4
					c0.5,1.7-2.6,3.4-2.1,4.1c0.3,0.6,2-0.2,2.5,0.5c0.6,0.7-1,2-1.1,4.2c-1.2,1.4-1.3,3.9-0.6,7.1c1.1,4.6,2.9,8.2,4.8,10.6
					c9.3,11.9,15.9,20.5,25.6,23.5c12.9,4,20-5.2,46.1-14c35.8-12,48.8-3.5,59.1-14.9C490.6,235.4,486.5,204.4,468.5,195.2z"/>
			</g>
			<g class="st30">
				
					<linearGradient id="SVGID_25_" gradientUnits="userSpaceOnUse" x1="240.7697" y1="277.5786" x2="273.2735" y2="412.3448" gradientTransform="matrix(0.9998 -2.180000e-002 2.180000e-002 0.9998 78.0428 -40.1176)">
					<stop  offset="0" style="stop-color:#FCB148"/>
					<stop  offset="5.207239e-002" style="stop-color:#FDBA46"/>
					<stop  offset="0.1424" style="stop-color:#FFC244"/>
					<stop  offset="0.3183" style="stop-color:#FFC444"/>
					<stop  offset="0.4849" style="stop-color:#FDB946"/>
					<stop  offset="0.7754" style="stop-color:#F99C4D"/>
					<stop  offset="0.8658" style="stop-color:#F8924F"/>
					<stop  offset="1" style="stop-color:#F8924F"/>
				</linearGradient>
				<path class="st31" d="M392.4,360.3c-13.3-8-25.4,1.2-34.8-5.9c-7.8-5.8-1.4-13.4-9.8-23.6c-9.2-11.2-22-8.3-25-16.7
					c-3.1-8.7,9.5-14.5,9.8-26.6c0.2-6.1-2.9-14.1-15.1-23.7c0.7,3.5,1.3,7.8,1,13.2c-1.5,22.1-16.9,27.8-17.5,50.2
					c-0.2,7.5,1.3,13.7,2.5,17.4c3.5,3.8,9.2,9.1,17.6,13.5c12.2,6.4,19.1,5.1,36.4,9c28.3,6.4,31,14.7,45,12.3
					c4.1-0.7,7.9-2.1,11.4-3.9c-4.1-0.6-7.1-1.8-9.4-3.3C398.3,368.3,399.4,364.5,392.4,360.3z"/>
			</g>
		</g>
		<g>
			<linearGradient id="SVGID_26_" gradientUnits="userSpaceOnUse" x1="112.5185" y1="156.3695" x2="0.9347" y2="192.1801">
				<stop  offset="0" style="stop-color:#FCB148"/>
				<stop  offset="5.207239e-002" style="stop-color:#FDBA46"/>
				<stop  offset="0.1424" style="stop-color:#FFC244"/>
				<stop  offset="0.3183" style="stop-color:#FFC444"/>
				<stop  offset="0.4849" style="stop-color:#FDB946"/>
				<stop  offset="0.7754" style="stop-color:#F99C4D"/>
				<stop  offset="0.8658" style="stop-color:#F8924F"/>
				<stop  offset="1" style="stop-color:#F8924F"/>
			</linearGradient>
			<path class="st32" d="M241.7,151.7c0,47.1-40.8,84.2-92.9,82.8C94.6,233,48.9,190.7,48.9,140c0-50.7,45.6-87.5,99.8-82.4
				C200.9,62.5,241.7,104.6,241.7,151.7z"/>
			<linearGradient id="SVGID_27_" gradientUnits="userSpaceOnUse" x1="199.6548" y1="52.8305" x2="107.4269" y2="256.3027">
				<stop  offset="0" style="stop-color:#FFDB44"/>
				<stop  offset="1" style="stop-color:#FEEF06"/>
			</linearGradient>
			<path class="st33" d="M255.8,147.7c0,47.1-40.8,84.2-92.9,82.8C108.6,229,63,186.6,63,135.9c0-50.7,45.6-87.5,99.8-82.4
				C215,58.5,255.8,100.5,255.8,147.7z"/>
			<linearGradient id="SVGID_28_" gradientUnits="userSpaceOnUse" x1="182.4459" y1="266.1947" x2="164.8589" y2="170.1174">
				<stop  offset="0" style="stop-color:#FCB148"/>
				<stop  offset="5.207239e-002" style="stop-color:#FDBA46"/>
				<stop  offset="0.1424" style="stop-color:#FFC244"/>
				<stop  offset="0.3183" style="stop-color:#FFC444"/>
				<stop  offset="0.4849" style="stop-color:#FDB946"/>
				<stop  offset="0.7754" style="stop-color:#F99C4D"/>
				<stop  offset="0.8658" style="stop-color:#F8924F"/>
				<stop  offset="1" style="stop-color:#F8924F"/>
			</linearGradient>
			<path class="st34" d="M251.7,147.4c0,45.1-39,80.5-88.8,79c-51.7-1.5-95.1-41.9-95.1-90.2s43.4-83.4,95.1-78.6
				C212.6,62.2,251.7,102.4,251.7,147.4z"/>
			<linearGradient id="SVGID_29_" gradientUnits="userSpaceOnUse" x1="144.9353" y1="110.1714" x2="218.5975" y2="266.5423">
				<stop  offset="0" style="stop-color:#FCB148"/>
				<stop  offset="5.207239e-002" style="stop-color:#FDBA46"/>
				<stop  offset="0.1424" style="stop-color:#FFC244"/>
				<stop  offset="0.3183" style="stop-color:#FFC444"/>
				<stop  offset="0.4849" style="stop-color:#FDB946"/>
				<stop  offset="0.7754" style="stop-color:#F99C4D"/>
				<stop  offset="0.8658" style="stop-color:#F8924F"/>
				<stop  offset="1" style="stop-color:#F8924F"/>
			</linearGradient>
			<path class="st35" d="M248.7,147.3c0,43.6-37.7,77.8-85.9,76.3c-49.9-1.5-91.8-40.6-91.8-87.1s41.9-80.5,91.8-75.9
				C211,64.9,248.7,103.7,248.7,147.3z"/>
			<linearGradient id="SVGID_30_" gradientUnits="userSpaceOnUse" x1="127.4904" y1="142.0488" x2="200.3738" y2="142.0488">
				<stop  offset="0" style="stop-color:#FFDB44"/>
				<stop  offset="1" style="stop-color:#FEEF06"/>
			</linearGradient>
			<path class="st36" d="M196.4,147.6c-2.7-2.9-6.8-4.9-12.4-6.2c2.6-0.9,4.8-1.9,6.6-3.2c1.8-1.2,3.3-2.5,4.5-4
				c1.2-1.4,2-3,2.5-4.7c0.5-1.7,0.8-3.4,0.8-5.2c0-3.3-0.6-6.3-1.8-9c-1.2-2.7-3-5-5.6-7c-2.6-2-6-3.5-10.1-4.7
				c-1.4-0.4-2.9-0.7-4.5-1V89.4l-11.1-0.5v12.6l-9.4-0.3V88.5L144.4,88v12.8l-12.4-0.4l-4.6-0.2v7l4.6,0.1v70.9l-4.6,0.1v7l4.6-0.2
				l12.4-0.4v11.4l11.5-0.5v-11.2l9.4-0.3v11.2l11.1-0.5V183c2-0.4,4-0.9,5.8-1.5c4-1.4,7.3-3.2,10-5.5c2.7-2.3,4.7-4.9,6.1-7.9
				c1.4-3,2.1-6.1,2.1-9.6C200.4,154.1,199.1,150.4,196.4,147.6z M178.7,126.2c0,2-0.3,3.6-1,4.9c-0.7,1.3-1.6,2.3-2.9,3.1
				c-1.3,0.7-2.8,1.3-4.6,1.5c-1.8,0.3-3.8,0.4-6.1,0.4l-10.8-0.1v-20.6l12.1,0.3c2.3,0.1,4.3,0.3,5.9,0.6c1.7,0.4,3,1,4.1,1.8
				c1.1,0.8,1.9,1.9,2.4,3.2C178.5,122.7,178.7,124.3,178.7,126.2z M180.4,162.4c-0.4,1.3-1,2.4-2,3.5c-0.9,1-2.3,1.9-4,2.6
				c-1.7,0.7-3.9,1-6.6,1.1l-14.6,0.3v-20.8l14.4-0.1c2.6,0,4.7,0.2,6.4,0.6c1.7,0.4,3,1.1,4,1.9c1,0.8,1.7,1.8,2.1,3
				c0.4,1.2,0.6,2.5,0.6,4C181,159.8,180.8,161.1,180.4,162.4z"/>
			<linearGradient id="SVGID_31_" gradientUnits="userSpaceOnUse" x1="120.8158" y1="121.1203" x2="193.8985" y2="276.261">
				<stop  offset="0" style="stop-color:#FCB148"/>
				<stop  offset="5.207239e-002" style="stop-color:#FDBA46"/>
				<stop  offset="0.1424" style="stop-color:#FFC244"/>
				<stop  offset="0.3183" style="stop-color:#FFC444"/>
				<stop  offset="0.4849" style="stop-color:#FDB946"/>
				<stop  offset="0.7754" style="stop-color:#F99C4D"/>
				<stop  offset="0.8658" style="stop-color:#F8924F"/>
				<stop  offset="1" style="stop-color:#F8924F"/>
			</linearGradient>
			<path class="st37" d="M147.3,157.9c2.9-25.9,29.2-36.9,25.8-60.7C171,82.5,158.7,70.2,145,60.5c-41.7,4-73.9,35.1-73.9,75.9
				c0,46.6,41.9,85.6,91.8,87.1c4.8,0.1,9.6-0.1,14.2-0.6C157.2,205.1,144.8,180.2,147.3,157.9z"/>
		</g>
	</g>
</g>
</svg>
