<?xml version="1.0" encoding="utf-8"?>
<!-- Generator: Adobe Illustrator 19.0.0, SVG Export Plug-In . SVG Version: 6.00 Build 0)  -->
<svg version="1.1" xmlns="http://www.w3.org/2000/svg" xmlns:xlink="http://www.w3.org/1999/xlink" x="0px" y="0px"
	 viewBox="0 0 500 500" style="enable-background:new 0 0 500 500;" xml:space="preserve">
<style type="text/css">
	.st0{opacity:0;fill:#FFFFFF;}
	.st1{fill:#E4F1FF;}
	.st2{clip-path:url(#SVGID_2_);}
	.st3{fill:#FFFFFF;}
	.st4{opacity:0.5;}
	.st5{fill:#C5E3F9;}
	.st6{fill:#71B7E2;}
	.st7{fill:#FF725E;}
	.st8{fill:#B4D8F9;}
	.st9{fill:#9FCCFB;}
	.st10{fill:#8CC2F2;}
	.st11{clip-path:url(#SVGID_4_);fill:none;stroke:#FFFFFF;stroke-width:0.5;stroke-linecap:round;stroke-miterlimit:10;}
	.st12{fill:none;stroke:#81C0EF;stroke-width:0.5;stroke-linecap:round;stroke-miterlimit:10;}
	.st13{fill:none;stroke:#1C004F;stroke-width:0.5;stroke-linecap:round;stroke-miterlimit:10;}
	.st14{fill:#F7C2A0;}
	.st15{fill:#89CDFC;}
	.st16{fill:none;stroke:#315782;stroke-width:0.5;stroke-linecap:round;stroke-miterlimit:10;}
	.st17{fill:#024F70;}
	.st18{fill:#FFFEFC;}
	.st19{fill:#7190FF;}
	.st20{fill:#0036EB;}
	.st21{fill:#496BFF;}
	.st22{fill:#FF0118;}
	.st23{fill:#024F71;}
	.st24{fill:none;stroke:#FFFFFF;stroke-width:0.5;stroke-linecap:round;stroke-miterlimit:10;}
	.st25{fill:#EEC09E;}
	.st26{fill:#E38682;}
	.st27{fill:#DA001D;}
	.st28{fill:#2A0270;}
	.st29{fill:none;stroke:#F18884;stroke-width:0.5;stroke-linecap:round;stroke-miterlimit:10;}
	.st30{fill:none;stroke:#556BFF;stroke-width:0.5;stroke-linecap:round;stroke-miterlimit:10;}
	.st31{fill:#496AFF;}
	.st32{clip-path:url(#SVGID_6_);fill:none;stroke:#FFFFFF;stroke-width:0.5;stroke-linecap:round;stroke-miterlimit:10;}
	.st33{opacity:0.48;fill:#67B5EF;}
</style>
<g id="BACKGROUND">
	<rect id="_x3C_Path_x3E_" class="st0" width="500" height="500"/>
</g>
<g id="OBJECTS">
	<g>
		<path class="st1" d="M212.9,94.7c0,0,29.9,13.4,87.3-14.9s119.4-14.9,117.2,56.7s-34.3,97-9.7,135.1
			c24.6,38.1,38.8,113.5-56,121.7c-94.8,8.2-210.5,5.2-210.5,5.2s-63.5-6.7-76.1-71.7c-12.7-64.9,38.6-69.3,28.9-121.8
			c-9.7-52.5-31.9-76.1,13.7-112.6C153.3,56,212.9,94.7,212.9,94.7z"/>
		<ellipse class="st1" cx="333.5" cy="413.5" rx="79.4" ry="14"/>
		<ellipse class="st1" cx="155" cy="439.6" rx="79.4" ry="14"/>
	</g>
	<g>
		<defs>
			<path id="SVGID_1_" d="M212.9,94.7c0,0,29.9,13.4,87.3-14.9s119.4-14.9,117.2,56.7s-34.3,97-9.7,135.1
				c24.6,38.1,38.8,113.5-56,121.7c-94.8,8.2-210.5,5.2-210.5,5.2s-63.5-6.7-76.1-71.7c-12.7-64.9,38.6-69.3,28.9-121.8
				c-9.7-52.5-31.9-76.1,13.7-112.6C153.3,56,212.9,94.7,212.9,94.7z"/>
		</defs>
		<clipPath id="SVGID_2_">
			<use xlink:href="#SVGID_1_"  style="overflow:visible;"/>
		</clipPath>
		<g class="st2">
			<path class="st3" d="M229.4,278.8h108.4c0,0-0.2-10.5-14.2-11.6c-14-1.1-15.1-18.4-29.1-14.6c-14,3.7-16.4,9.2-28,8.3
				c-11.6-0.9-6.8,7-22.9,10.1C227.4,274.1,229.4,278.8,229.4,278.8z"/>
			<path class="st3" d="M396.1,310.9h108.4c0,0-0.2-10.5-14.2-11.6c-14-1.1-15.1-18.4-29.1-14.6c-14,3.7-16.4,9.2-28,8.3
				c-11.6-0.9-6.8,7-22.9,10.1C394.2,306.1,396.1,310.9,396.1,310.9z"/>
			<path class="st3" d="M31.7,227h108.4c0,0-0.2-10.5-14.2-11.6s-15.1-18.4-29.1-14.6c-14,3.7-16.4,9.2-28,8.3
				c-11.6-0.9-6.8,7-22.9,10.1S31.7,227,31.7,227z"/>
			<path class="st3" d="M339.8,95.5h108.4c0,0-0.2-10.5-14.2-11.6c-14-1.1-15.1-18.4-29.1-14.6c-14,3.7-16.4,9.2-28,8.3
				c-11.6-0.9-6.8,7-22.9,10.1C337.8,90.7,339.8,95.5,339.8,95.5z"/>
		</g>
	</g>
	<g>
		<g class="st4">
			<g>
				<g>
					<g>
						<g>
							<circle class="st5" cx="371.8" cy="148.2" r="25.6"/>
						</g>
					</g>
				</g>
			</g>
			<g>
				<g>
					<g>
						<g>
							<circle class="st6" cx="371.3" cy="148" r="19.5"/>
						</g>
					</g>
				</g>
			</g>
			<g>
				<g>
					<g>
						<g>
							<circle class="st7" cx="372.3" cy="148.5" r="19.2"/>
						</g>
					</g>
				</g>
			</g>
			<g>
				<g>
					<g>
						<g>
							<circle class="st8" cx="372.3" cy="148.5" r="19.2"/>
						</g>
					</g>
				</g>
			</g>
			<g>
				<path class="st6" d="M376.5,146.8c0.2,0,0.4,0,0.6,0c1.2,0,2.3,0.4,3.1,1.3c0.5,0.6,0.9,1.2,1,2c0.3,1.5-0.1,2.8-1.2,3.9
					c-0.5,0.5-1,0.9-1.5,1.2c-0.2,0.1-0.4,0.2-0.6,0.4c-0.1,0.1-0.1,0.1-0.1,0.2c0.3,0.6,0.5,1.3,0.8,1.9c0.1,0.2,0.1,0.2-0.1,0.3
					c-0.4,0.2-0.9,0.4-1.3,0.5c-0.2,0.1-0.2,0.1-0.3-0.1c-0.3-0.6-0.5-1.2-0.8-1.9c0-0.1-0.1-0.1-0.2-0.1c-0.4,0.2-0.7,0.3-1.1,0.5
					c-0.1,0-0.1,0.1-0.1,0.2c0.3,0.6,0.5,1.2,0.7,1.8c0.1,0.2,0.1,0.2-0.1,0.3c-0.4,0.2-0.9,0.4-1.3,0.5c-0.1,0.1-0.2,0-0.2-0.1
					c-0.2-0.6-0.5-1.2-0.7-1.8c-0.1-0.2-0.1-0.2-0.3-0.1c-1.1,0.5-2.2,0.9-3.3,1.4c-0.1,0.1-0.2,0-0.2-0.1c-0.3-0.7-0.5-1.3-0.8-2
					c-0.1-0.1,0-0.2,0.1-0.2c0.5-0.2,1-0.4,1.5-0.6c0.4-0.1,0.4-0.3,0.3-0.7c-0.2-0.6-0.5-1.1-0.7-1.7c-0.9-2.3-1.9-4.6-2.8-7
					c-0.1-0.3-0.3-0.6-0.4-1c-0.1-0.4-0.3-0.4-0.7-0.3c-0.5,0.2-1,0.4-1.5,0.6c-0.1,0.1-0.2,0-0.2-0.1c-0.3-0.7-0.5-1.3-0.8-2
					c-0.1-0.2-0.1-0.2,0.1-0.2c1.1-0.5,2.2-0.9,3.4-1.4c0.2-0.1,0.2-0.1,0.1-0.2c-0.3-0.6-0.5-1.3-0.8-1.9c0-0.1,0-0.2,0.1-0.2
					c0.5-0.2,1-0.4,1.5-0.6c0.1,0,0.1,0,0.1,0.1c0.3,0.6,0.5,1.3,0.8,1.9c0.1,0.2,0.1,0.2,0.3,0.1c0.4-0.1,0.7-0.3,1.1-0.4
					c0.1,0,0.1-0.1,0.1-0.2c-0.3-0.6-0.5-1.3-0.8-1.9c-0.1-0.2-0.1-0.2,0.1-0.2c0.5-0.2,0.9-0.4,1.4-0.6c0.1,0,0.2,0,0.2,0.1
					c0.3,0.7,0.5,1.4,0.8,2c0.1,0.2,0.1,0.2,0.3,0.1c1.5-0.5,2.8-0.3,4.1,0.6c0.5,0.4,0.9,0.8,1.2,1.4c0.2,0.5,0.4,1,0.4,1.5
					c0,0.9-0.2,1.7-0.7,2.4C376.7,146.6,376.6,146.7,376.5,146.8z M372.8,152.6c0.3,0.7,0.5,1.3,0.8,2c0,0.1,0.1,0.1,0.2,0.1
					c0.9-0.4,1.7-0.7,2.6-1.1c0.3-0.1,0.6-0.3,0.8-0.5c0.7-0.6,0.9-1.3,0.7-2.1c-0.1-0.4-0.3-0.8-0.6-1.1c-0.6-0.5-1.2-0.7-2-0.5
					c-0.5,0.1-1,0.3-1.5,0.4c-0.6,0.2-1.1,0.5-1.7,0.7c-0.2,0.1-0.2,0.1-0.1,0.2C372.3,151.2,372.6,151.9,372.8,152.6z M370.1,145.9
					c0.2,0.6,0.5,1.1,0.7,1.7c0,0.1,0.1,0.1,0.2,0.1c0.5-0.2,0.9-0.4,1.4-0.6c0.3-0.2,0.7-0.3,1-0.5c0.3-0.2,0.6-0.4,0.8-0.8
					c0.3-0.5,0.3-0.9,0.1-1.4c-0.2-0.7-0.6-1.1-1.3-1.3c-0.5-0.1-1.1,0-1.6,0.2c-0.6,0.2-1.3,0.5-1.9,0.7c-0.1,0.1-0.1,0.1-0.1,0.2
					C369.7,144.8,369.9,145.4,370.1,145.9z"/>
				<path class="st5" d="M376.1,145.9c0.2,0,0.4,0,0.6,0c1.2,0,2.3,0.4,3.1,1.3c0.5,0.6,0.9,1.2,1,2c0.3,1.5-0.1,2.8-1.2,3.9
					c-0.5,0.5-1,0.9-1.5,1.2c-0.2,0.1-0.4,0.2-0.6,0.4c-0.1,0.1-0.1,0.1-0.1,0.2c0.3,0.6,0.5,1.3,0.8,1.9c0.1,0.2,0.1,0.2-0.1,0.3
					c-0.4,0.2-0.9,0.4-1.3,0.5c-0.2,0.1-0.2,0.1-0.3-0.1c-0.3-0.6-0.5-1.2-0.8-1.9c0-0.1-0.1-0.1-0.2-0.1c-0.4,0.2-0.7,0.3-1.1,0.5
					c-0.1,0-0.1,0.1-0.1,0.2c0.3,0.6,0.5,1.2,0.7,1.8c0.1,0.2,0.1,0.2-0.1,0.3c-0.4,0.2-0.9,0.4-1.3,0.5c-0.1,0.1-0.2,0-0.2-0.1
					c-0.2-0.6-0.5-1.2-0.7-1.8c-0.1-0.2-0.1-0.2-0.3-0.1c-1.1,0.5-2.2,0.9-3.3,1.4c-0.1,0.1-0.2,0-0.2-0.1c-0.3-0.7-0.5-1.3-0.8-2
					c-0.1-0.1,0-0.2,0.1-0.2c0.5-0.2,1-0.4,1.5-0.6c0.4-0.1,0.4-0.3,0.3-0.7c-0.2-0.6-0.5-1.1-0.7-1.7c-0.9-2.3-1.9-4.6-2.8-7
					c-0.1-0.3-0.3-0.6-0.4-1c-0.1-0.4-0.3-0.4-0.7-0.3c-0.5,0.2-1,0.4-1.5,0.6c-0.1,0.1-0.2,0-0.2-0.1c-0.3-0.7-0.5-1.3-0.8-2
					c-0.1-0.2-0.1-0.2,0.1-0.2c1.1-0.5,2.2-0.9,3.4-1.4c0.2-0.1,0.2-0.1,0.1-0.2c-0.3-0.6-0.5-1.3-0.8-1.9c0-0.1,0-0.2,0.1-0.2
					c0.5-0.2,1-0.4,1.5-0.6c0.1,0,0.1,0,0.1,0.1c0.3,0.6,0.5,1.3,0.8,1.9c0.1,0.2,0.1,0.2,0.3,0.1c0.4-0.1,0.7-0.3,1.1-0.4
					c0.1,0,0.1-0.1,0.1-0.2c-0.3-0.6-0.5-1.3-0.8-1.9c-0.1-0.2-0.1-0.2,0.1-0.2c0.5-0.2,0.9-0.4,1.4-0.6c0.1,0,0.2,0,0.2,0.1
					c0.3,0.7,0.5,1.4,0.8,2c0.1,0.2,0.1,0.2,0.3,0.1c1.5-0.5,2.8-0.3,4.1,0.6c0.5,0.4,0.9,0.8,1.2,1.4c0.2,0.5,0.4,1,0.4,1.5
					c0,0.9-0.2,1.7-0.7,2.4C376.3,145.6,376.2,145.8,376.1,145.9z M372.4,151.6c0.3,0.7,0.5,1.3,0.8,2c0,0.1,0.1,0.1,0.2,0.1
					c0.9-0.4,1.7-0.7,2.6-1.1c0.3-0.1,0.6-0.3,0.8-0.5c0.7-0.6,0.9-1.3,0.7-2.1c-0.1-0.4-0.3-0.8-0.6-1.1c-0.6-0.5-1.2-0.7-2-0.5
					c-0.5,0.1-1,0.3-1.5,0.4c-0.6,0.2-1.1,0.5-1.7,0.7c-0.2,0.1-0.2,0.1-0.1,0.2C371.9,150.3,372.2,151,372.4,151.6z M369.7,145
					c0.2,0.6,0.5,1.1,0.7,1.7c0,0.1,0.1,0.1,0.2,0.1c0.5-0.2,0.9-0.4,1.4-0.6c0.3-0.2,0.7-0.3,1-0.5c0.3-0.2,0.6-0.4,0.8-0.8
					c0.3-0.5,0.3-0.9,0.1-1.4c-0.2-0.7-0.6-1.1-1.3-1.3c-0.5-0.1-1.1,0-1.6,0.2c-0.6,0.2-1.3,0.5-1.9,0.7c-0.1,0.1-0.1,0.1-0.1,0.2
					C369.3,143.9,369.5,144.4,369.7,145z"/>
			</g>
		</g>
		<g class="st4">
			<g>
				<g>
					<g>
						<g>
							<circle class="st5" cx="148.7" cy="119.4" r="25.6"/>
						</g>
					</g>
				</g>
			</g>
			<g>
				<g>
					<g>
						<g>
							<circle class="st6" cx="148.2" cy="119.1" r="19.5"/>
						</g>
					</g>
				</g>
			</g>
			<g>
				<g>
					<g>
						<g>
							<circle class="st7" cx="149.2" cy="119.8" r="19.2"/>
						</g>
					</g>
				</g>
			</g>
			<g>
				<g>
					<g>
						<g>
							<circle class="st8" cx="149.2" cy="119.8" r="19.2"/>
						</g>
					</g>
				</g>
			</g>
			<g>
				<path class="st6" d="M153.6,119.1c0.2,0,0.4,0.1,0.6,0.1c1.2,0.3,2.1,0.9,2.7,1.9c0.4,0.7,0.6,1.4,0.6,2.1c0,1.5-0.7,2.7-2,3.5
					c-0.5,0.4-1.1,0.7-1.8,0.9c-0.2,0.1-0.5,0.2-0.7,0.2c-0.1,0-0.1,0.1-0.1,0.2c0.1,0.7,0.2,1.4,0.3,2c0,0.2,0,0.2-0.2,0.3
					c-0.5,0.1-0.9,0.2-1.4,0.2c-0.2,0-0.2,0-0.2-0.2c-0.1-0.7-0.2-1.3-0.3-2c0-0.1-0.1-0.2-0.2-0.1c-0.4,0.1-0.8,0.1-1.2,0.2
					c-0.1,0-0.2,0.1-0.1,0.2c0.1,0.6,0.2,1.3,0.3,2c0,0.2,0,0.2-0.2,0.2c-0.5,0.1-1,0.2-1.4,0.2c-0.1,0-0.2,0-0.2-0.1
					c-0.1-0.6-0.2-1.3-0.3-1.9c0-0.2,0-0.2-0.3-0.2c-1.2,0.2-2.4,0.4-3.6,0.6c-0.1,0-0.2,0-0.2-0.1c-0.1-0.7-0.2-1.4-0.4-2.1
					c0-0.1,0-0.2,0.2-0.2c0.5-0.1,1.1-0.2,1.6-0.3c0.4-0.1,0.5-0.2,0.4-0.6c-0.1-0.6-0.2-1.2-0.3-1.8c-0.4-2.5-0.8-4.9-1.2-7.4
					c-0.1-0.3-0.1-0.7-0.2-1c-0.1-0.4-0.2-0.5-0.6-0.4c-0.5,0.1-1.1,0.2-1.6,0.3c-0.1,0-0.2,0-0.2-0.1c-0.1-0.7-0.2-1.4-0.3-2.1
					c0-0.2,0-0.2,0.2-0.2c1.2-0.2,2.4-0.4,3.6-0.6c0.2,0,0.2,0,0.2-0.2c-0.1-0.7-0.2-1.4-0.3-2.1c0-0.1,0-0.2,0.1-0.2
					c0.5-0.1,1-0.2,1.5-0.3c0.1,0,0.1,0.1,0.1,0.1c0.1,0.7,0.2,1.4,0.3,2.1c0,0.2,0,0.2,0.2,0.2c0.4-0.1,0.8-0.1,1.1-0.2
					c0.1,0,0.1-0.1,0.1-0.2c-0.1-0.7-0.2-1.4-0.3-2.1c0-0.2,0-0.2,0.2-0.2c0.5-0.1,1-0.2,1.5-0.2c0.1,0,0.2,0,0.2,0.1
					c0.1,0.7,0.2,1.4,0.4,2.2c0,0.2,0,0.2,0.2,0.2c1.5-0.1,2.8,0.3,3.9,1.4c0.4,0.5,0.7,1,0.8,1.6c0.1,0.5,0.2,1,0.1,1.6
					c-0.1,0.9-0.6,1.6-1.2,2.1C153.9,118.9,153.7,119,153.6,119.1z M148.8,123.9c0.1,0.7,0.2,1.4,0.4,2.1c0,0.1,0,0.2,0.2,0.1
					c0.9-0.2,1.8-0.4,2.8-0.6c0.3-0.1,0.6-0.2,0.9-0.3c0.8-0.4,1.2-1,1.2-1.9c0-0.4-0.1-0.8-0.3-1.2c-0.4-0.6-1.1-0.9-1.8-1
					c-0.5,0-1.1,0-1.6,0.1c-0.6,0.1-1.2,0.2-1.8,0.3c-0.2,0-0.2,0-0.2,0.2C148.5,122.5,148.7,123.2,148.8,123.9z M147.6,116.8
					c0.1,0.6,0.2,1.2,0.3,1.8c0,0.1,0.1,0.2,0.2,0.1c0.5-0.1,1-0.2,1.5-0.3c0.4-0.1,0.7-0.2,1.1-0.3c0.4-0.1,0.7-0.3,1-0.6
					c0.4-0.4,0.5-0.9,0.4-1.4c-0.1-0.7-0.4-1.3-1-1.5c-0.5-0.2-1-0.2-1.6-0.2c-0.7,0.1-1.3,0.2-2,0.3c-0.1,0-0.2,0.1-0.1,0.2
					C147.4,115.6,147.5,116.2,147.6,116.8z"/>
				<path class="st5" d="M153.4,118.1c0.2,0,0.4,0.1,0.6,0.1c1.2,0.3,2.1,0.9,2.7,1.9c0.4,0.7,0.6,1.4,0.6,2.1c0,1.5-0.7,2.7-2,3.5
					c-0.5,0.4-1.1,0.7-1.8,0.9c-0.2,0.1-0.5,0.2-0.7,0.2c-0.1,0-0.1,0.1-0.1,0.2c0.1,0.7,0.2,1.4,0.3,2c0,0.2,0,0.2-0.2,0.3
					c-0.5,0.1-0.9,0.2-1.4,0.2c-0.2,0-0.2,0-0.2-0.2c-0.1-0.7-0.2-1.3-0.3-2c0-0.1-0.1-0.2-0.2-0.1c-0.4,0.1-0.8,0.1-1.2,0.2
					c-0.1,0-0.2,0.1-0.1,0.2c0.1,0.6,0.2,1.3,0.3,2c0,0.2,0,0.2-0.2,0.2c-0.5,0.1-1,0.2-1.4,0.2c-0.1,0-0.2,0-0.2-0.1
					c-0.1-0.6-0.2-1.3-0.3-1.9c0-0.2,0-0.2-0.3-0.2c-1.2,0.2-2.4,0.4-3.6,0.6c-0.1,0-0.2,0-0.2-0.1c-0.1-0.7-0.2-1.4-0.4-2.1
					c0-0.1,0-0.2,0.2-0.2c0.5-0.1,1.1-0.2,1.6-0.3c0.4-0.1,0.5-0.2,0.4-0.6c-0.1-0.6-0.2-1.2-0.3-1.8c-0.4-2.5-0.8-4.9-1.2-7.4
					c-0.1-0.3-0.1-0.7-0.2-1c-0.1-0.4-0.2-0.5-0.6-0.4c-0.5,0.1-1.1,0.2-1.6,0.3c-0.1,0-0.2,0-0.2-0.1c-0.1-0.7-0.2-1.4-0.3-2.1
					c0-0.2,0-0.2,0.2-0.2c1.2-0.2,2.4-0.4,3.6-0.6c0.2,0,0.2,0,0.2-0.2c-0.1-0.7-0.2-1.4-0.3-2.1c0-0.1,0-0.2,0.1-0.2
					c0.5-0.1,1-0.2,1.5-0.3c0.1,0,0.1,0.1,0.1,0.1c0.1,0.7,0.2,1.4,0.3,2.1c0,0.2,0,0.2,0.2,0.2c0.4-0.1,0.8-0.1,1.1-0.2
					c0.1,0,0.1-0.1,0.1-0.2c-0.1-0.7-0.2-1.4-0.3-2.1c0-0.2,0-0.2,0.2-0.2c0.5-0.1,1-0.2,1.5-0.2c0.1,0,0.2,0,0.2,0.1
					c0.1,0.7,0.2,1.4,0.4,2.2c0,0.2,0,0.2,0.2,0.2c1.5-0.1,2.8,0.3,3.9,1.4c0.4,0.5,0.7,1,0.8,1.6c0.1,0.5,0.2,1,0.1,1.6
					c-0.1,0.9-0.6,1.6-1.2,2.1C153.7,117.9,153.6,118,153.4,118.1z M148.6,122.9c0.1,0.7,0.2,1.4,0.4,2.1c0,0.1,0,0.2,0.2,0.1
					c0.9-0.2,1.8-0.4,2.8-0.6c0.3-0.1,0.6-0.2,0.9-0.3c0.8-0.4,1.2-1,1.2-1.9c0-0.4-0.1-0.8-0.3-1.2c-0.4-0.6-1.1-0.9-1.8-1
					c-0.5,0-1.1,0-1.6,0.1c-0.6,0.1-1.2,0.2-1.8,0.3c-0.2,0-0.2,0-0.2,0.2C148.4,121.5,148.5,122.2,148.6,122.9z M147.4,115.8
					c0.1,0.6,0.2,1.2,0.3,1.8c0,0.1,0.1,0.2,0.2,0.1c0.5-0.1,1-0.2,1.5-0.3c0.4-0.1,0.7-0.2,1.1-0.3c0.4-0.1,0.7-0.3,1-0.6
					c0.4-0.4,0.5-0.9,0.4-1.4c-0.1-0.7-0.4-1.3-1-1.5c-0.5-0.2-1-0.2-1.6-0.2c-0.7,0.1-1.3,0.2-2,0.3c-0.1,0-0.2,0.1-0.1,0.2
					C147.2,114.6,147.3,115.2,147.4,115.8z"/>
			</g>
		</g>
		<g class="st4">
			<g>
				<g>
					<g>
						<g>
							<circle class="st5" cx="142" cy="276.6" r="25.6"/>
						</g>
					</g>
				</g>
			</g>
			<g>
				<g>
					<g>
						<g>
							<circle class="st6" cx="141.4" cy="276.3" r="19.5"/>
						</g>
					</g>
				</g>
			</g>
			<g>
				<g>
					<g>
						<g>
							<circle class="st7" cx="142.5" cy="276.8" r="19.2"/>
						</g>
					</g>
				</g>
			</g>
			<g>
				<g>
					<g>
						<g>
							<circle class="st8" cx="142.5" cy="276.8" r="19.2"/>
						</g>
					</g>
				</g>
			</g>
			<g>
				<path class="st6" d="M146.6,275.1c0.2,0,0.4,0,0.6,0c1.2,0,2.3,0.4,3.1,1.3c0.5,0.6,0.9,1.2,1,2c0.3,1.5-0.1,2.8-1.2,3.9
					c-0.5,0.5-1,0.9-1.5,1.2c-0.2,0.1-0.4,0.2-0.6,0.4c-0.1,0.1-0.1,0.1-0.1,0.2c0.3,0.6,0.5,1.3,0.8,1.9c0.1,0.2,0.1,0.2-0.1,0.3
					c-0.4,0.2-0.9,0.4-1.3,0.5c-0.2,0.1-0.2,0.1-0.3-0.1c-0.3-0.6-0.5-1.2-0.8-1.9c0-0.1-0.1-0.1-0.2-0.1c-0.4,0.2-0.7,0.3-1.1,0.5
					c-0.1,0-0.1,0.1-0.1,0.2c0.3,0.6,0.5,1.2,0.7,1.8c0.1,0.2,0.1,0.2-0.1,0.3c-0.4,0.2-0.9,0.4-1.3,0.5c-0.1,0.1-0.2,0-0.2-0.1
					c-0.2-0.6-0.5-1.2-0.7-1.8c-0.1-0.2-0.1-0.2-0.3-0.1c-1.1,0.5-2.2,0.9-3.3,1.4c-0.1,0.1-0.2,0-0.2-0.1c-0.3-0.7-0.5-1.3-0.8-2
					c-0.1-0.1,0-0.2,0.1-0.2c0.5-0.2,1-0.4,1.5-0.6c0.4-0.1,0.4-0.3,0.3-0.7c-0.2-0.6-0.5-1.1-0.7-1.7c-0.9-2.3-1.9-4.6-2.8-7
					c-0.1-0.3-0.3-0.6-0.4-1c-0.1-0.4-0.3-0.4-0.7-0.3c-0.5,0.2-1,0.4-1.5,0.6c-0.1,0.1-0.2,0-0.2-0.1c-0.3-0.7-0.5-1.3-0.8-2
					c-0.1-0.2-0.1-0.2,0.1-0.2c1.1-0.5,2.2-0.9,3.4-1.4c0.2-0.1,0.2-0.1,0.1-0.2c-0.3-0.6-0.5-1.3-0.8-1.9c0-0.1,0-0.2,0.1-0.2
					c0.5-0.2,1-0.4,1.5-0.6c0.1,0,0.1,0,0.1,0.1c0.3,0.6,0.5,1.3,0.8,1.9c0.1,0.2,0.1,0.2,0.3,0.1c0.4-0.1,0.7-0.3,1.1-0.4
					c0.1,0,0.1-0.1,0.1-0.2c-0.3-0.6-0.5-1.3-0.8-1.9c-0.1-0.2-0.1-0.2,0.1-0.2c0.5-0.2,0.9-0.4,1.4-0.6c0.1,0,0.2,0,0.2,0.1
					c0.3,0.7,0.5,1.4,0.8,2c0.1,0.2,0.1,0.2,0.3,0.1c1.5-0.5,2.8-0.3,4.1,0.6c0.5,0.4,0.9,0.8,1.2,1.4c0.2,0.5,0.4,1,0.4,1.5
					c0,0.9-0.2,1.7-0.7,2.4C146.9,274.9,146.8,275,146.6,275.1z M143,280.9c0.3,0.7,0.5,1.3,0.8,2c0,0.1,0.1,0.1,0.2,0.1
					c0.9-0.4,1.7-0.7,2.6-1.1c0.3-0.1,0.6-0.3,0.8-0.5c0.7-0.6,0.9-1.3,0.7-2.1c-0.1-0.4-0.3-0.8-0.6-1.1c-0.6-0.5-1.2-0.7-2-0.5
					c-0.5,0.1-1,0.3-1.5,0.4c-0.6,0.2-1.1,0.5-1.7,0.7c-0.2,0.1-0.2,0.1-0.1,0.2C142.5,279.5,142.7,280.2,143,280.9z M140.3,274.2
					c0.2,0.6,0.5,1.1,0.7,1.7c0,0.1,0.1,0.1,0.2,0.1c0.5-0.2,0.9-0.4,1.4-0.6c0.3-0.2,0.7-0.3,1-0.5c0.3-0.2,0.6-0.4,0.8-0.8
					c0.3-0.5,0.3-0.9,0.1-1.4c-0.2-0.7-0.6-1.1-1.3-1.3c-0.5-0.1-1.1,0-1.6,0.2c-0.6,0.2-1.3,0.5-1.9,0.7c-0.1,0.1-0.1,0.1-0.1,0.2
					C139.8,273.1,140.1,273.7,140.3,274.2z"/>
				<path class="st5" d="M146.3,274.2c0.2,0,0.4,0,0.6,0c1.2,0,2.3,0.4,3.1,1.3c0.5,0.6,0.9,1.2,1,2c0.3,1.5-0.1,2.8-1.2,3.9
					c-0.5,0.5-1,0.9-1.5,1.2c-0.2,0.1-0.4,0.2-0.6,0.4c-0.1,0.1-0.1,0.1-0.1,0.2c0.3,0.6,0.5,1.3,0.8,1.9c0.1,0.2,0.1,0.2-0.1,0.3
					c-0.4,0.2-0.9,0.4-1.3,0.5c-0.2,0.1-0.2,0.1-0.3-0.1c-0.3-0.6-0.5-1.2-0.8-1.9c0-0.1-0.1-0.1-0.2-0.1c-0.4,0.2-0.7,0.3-1.1,0.5
					c-0.1,0-0.1,0.1-0.1,0.2c0.3,0.6,0.5,1.2,0.7,1.8c0.1,0.2,0.1,0.2-0.1,0.3c-0.4,0.2-0.9,0.4-1.3,0.5c-0.1,0.1-0.2,0-0.2-0.1
					c-0.2-0.6-0.5-1.2-0.7-1.8c-0.1-0.2-0.1-0.2-0.3-0.1c-1.1,0.5-2.2,0.9-3.3,1.4c-0.1,0.1-0.2,0-0.2-0.1c-0.3-0.7-0.5-1.3-0.8-2
					c-0.1-0.1,0-0.2,0.1-0.2c0.5-0.2,1-0.4,1.5-0.6c0.4-0.1,0.4-0.3,0.3-0.7c-0.2-0.6-0.5-1.1-0.7-1.7c-0.9-2.3-1.9-4.6-2.8-7
					c-0.1-0.3-0.3-0.6-0.4-1c-0.1-0.4-0.3-0.4-0.7-0.3c-0.5,0.2-1,0.4-1.5,0.6c-0.1,0.1-0.2,0-0.2-0.1c-0.3-0.7-0.5-1.3-0.8-2
					c-0.1-0.2-0.1-0.2,0.1-0.2c1.1-0.5,2.2-0.9,3.4-1.4c0.2-0.1,0.2-0.1,0.1-0.2c-0.3-0.6-0.5-1.3-0.8-1.9c0-0.1,0-0.2,0.1-0.2
					c0.5-0.2,1-0.4,1.5-0.6c0.1,0,0.1,0,0.1,0.1c0.3,0.6,0.5,1.3,0.8,1.9c0.1,0.2,0.1,0.2,0.3,0.1c0.4-0.1,0.7-0.3,1.1-0.4
					c0.1,0,0.1-0.1,0.1-0.2c-0.3-0.6-0.5-1.3-0.8-1.9c-0.1-0.2-0.1-0.2,0.1-0.2c0.5-0.2,0.9-0.4,1.4-0.6c0.1,0,0.2,0,0.2,0.1
					c0.3,0.7,0.5,1.4,0.8,2c0.1,0.2,0.1,0.2,0.3,0.1c1.5-0.5,2.8-0.3,4.1,0.6c0.5,0.4,0.9,0.8,1.2,1.4c0.2,0.5,0.4,1,0.4,1.5
					c0,0.9-0.2,1.7-0.7,2.4C146.5,273.9,146.4,274.1,146.3,274.2z M142.6,279.9c0.3,0.7,0.5,1.3,0.8,2c0,0.1,0.1,0.1,0.2,0.1
					c0.9-0.4,1.7-0.7,2.6-1.1c0.3-0.1,0.6-0.3,0.8-0.5c0.7-0.6,0.9-1.3,0.7-2.1c-0.1-0.4-0.3-0.8-0.6-1.1c-0.6-0.5-1.2-0.7-2-0.5
					c-0.5,0.1-1,0.3-1.5,0.4c-0.6,0.2-1.1,0.5-1.7,0.7c-0.2,0.1-0.2,0.1-0.1,0.2C142.1,278.6,142.4,279.3,142.6,279.9z M139.9,273.3
					c0.2,0.6,0.5,1.1,0.7,1.7c0,0.1,0.1,0.1,0.2,0.1c0.5-0.2,0.9-0.4,1.4-0.6c0.3-0.2,0.7-0.3,1-0.5c0.3-0.2,0.6-0.4,0.8-0.8
					c0.3-0.5,0.3-0.9,0.1-1.4c-0.2-0.7-0.6-1.1-1.3-1.3c-0.5-0.1-1.1,0-1.6,0.2c-0.6,0.2-1.3,0.5-1.9,0.7c-0.1,0.1-0.1,0.1-0.1,0.2
					C139.5,272.2,139.7,272.7,139.9,273.3z"/>
			</g>
		</g>
		<g class="st4">
			<g>
				<g>
					<g>
						<g>
							<circle class="st5" cx="346" cy="293.3" r="25.6"/>
						</g>
					</g>
				</g>
			</g>
			<g>
				<g>
					<g>
						<g>
							<circle class="st6" cx="345.7" cy="292.8" r="19.5"/>
						</g>
					</g>
				</g>
			</g>
			<g>
				<g>
					<g>
						<g>
							<circle class="st7" cx="346.4" cy="293.7" r="19.2"/>
						</g>
					</g>
				</g>
			</g>
			<g>
				<g>
					<g>
						<g>
							<circle class="st8" cx="346.4" cy="293.7" r="19.2"/>
						</g>
					</g>
				</g>
			</g>
			<g>
				<path class="st6" d="M350.9,294c0.2,0.1,0.4,0.2,0.6,0.2c1.1,0.5,1.9,1.3,2.3,2.5c0.2,0.7,0.3,1.5,0.1,2.2
					c-0.4,1.5-1.3,2.4-2.7,3c-0.6,0.2-1.2,0.4-1.9,0.5c-0.2,0-0.5,0-0.7,0.1c-0.1,0-0.2,0.1-0.2,0.2c0,0.7-0.1,1.4-0.1,2.1
					c0,0.2,0,0.2-0.2,0.2c-0.5,0-0.9,0-1.4-0.1c-0.2,0-0.2,0-0.2-0.2c0-0.7,0.1-1.3,0.1-2c0-0.1,0-0.2-0.1-0.2c-0.4,0-0.8,0-1.2-0.1
					c-0.1,0-0.2,0-0.2,0.2c0,0.7-0.1,1.3-0.1,2c0,0.2,0,0.2-0.2,0.2c-0.5,0-1-0.1-1.4-0.1c-0.1,0-0.2-0.1-0.2-0.2
					c0-0.6,0.1-1.3,0.1-1.9c0-0.2,0-0.2-0.2-0.2c-1.2-0.1-2.4-0.1-3.6-0.2c-0.1,0-0.2,0-0.2-0.2c0-0.7,0.1-1.4,0.1-2.2
					c0-0.1,0.1-0.2,0.2-0.2c0.5,0,1.1,0.1,1.6,0.1c0.4,0,0.5-0.1,0.5-0.5c0-0.6,0.1-1.2,0.1-1.8c0.1-2.5,0.3-5,0.4-7.5
					c0-0.3,0-0.7,0.1-1c0-0.4-0.1-0.5-0.5-0.5c-0.5,0-1.1-0.1-1.6-0.1c-0.1,0-0.2,0-0.2-0.2c0-0.7,0.1-1.4,0.1-2.1
					c0-0.2,0-0.2,0.2-0.2c1.2,0.1,2.4,0.1,3.6,0.2c0.2,0,0.2,0,0.2-0.2c0-0.7,0.1-1.4,0.1-2.1c0-0.1,0-0.2,0.2-0.2
					c0.5,0,1,0.1,1.6,0.1c0.1,0,0.1,0.1,0.1,0.1c0,0.7-0.1,1.4-0.1,2.1c0,0.2,0,0.2,0.2,0.2c0.4,0,0.8,0,1.1,0.1
					c0.1,0,0.2,0,0.2-0.2c0-0.7,0.1-1.4,0.1-2.1c0-0.2,0-0.2,0.2-0.2c0.5,0,1,0.1,1.5,0.1c0.1,0,0.2,0,0.1,0.2
					c0,0.7-0.1,1.5-0.1,2.2c0,0.2,0,0.2,0.2,0.2c1.5,0.2,2.7,0.9,3.5,2.3c0.3,0.5,0.5,1.1,0.5,1.8c0,0.5-0.1,1.1-0.3,1.5
					c-0.3,0.8-0.9,1.4-1.7,1.8C351.2,293.8,351.1,293.9,350.9,294z M345.2,297.6c0,0.7-0.1,1.4-0.1,2.2c0,0.1,0,0.2,0.1,0.2
					c0.9,0,1.9,0.1,2.8,0.1c0.3,0,0.6,0,0.9-0.1c0.8-0.2,1.4-0.8,1.6-1.6c0.1-0.4,0.1-0.8-0.1-1.2c-0.3-0.7-0.8-1.1-1.5-1.3
					c-0.5-0.1-1-0.2-1.6-0.3c-0.6-0.1-1.2-0.1-1.8-0.1c-0.2,0-0.2,0-0.2,0.2C345.2,296.2,345.2,296.9,345.2,297.6z M345.5,290.4
					c0,0.6-0.1,1.2-0.1,1.8c0,0.1,0,0.2,0.2,0.2c0.5,0,1,0.1,1.5,0.1c0.4,0,0.8,0,1.1,0c0.4,0,0.7-0.1,1.1-0.3
					c0.4-0.3,0.7-0.7,0.7-1.2c0.1-0.7-0.1-1.3-0.7-1.7c-0.4-0.3-1-0.4-1.5-0.5c-0.7-0.1-1.4-0.1-2-0.1c-0.1,0-0.2,0-0.2,0.2
					C345.6,289.3,345.5,289.9,345.5,290.4z"/>
				<path class="st5" d="M350.9,293c0.2,0.1,0.4,0.2,0.6,0.2c1.1,0.5,1.9,1.3,2.3,2.5c0.2,0.7,0.3,1.5,0.1,2.2
					c-0.4,1.5-1.3,2.4-2.7,3c-0.6,0.2-1.2,0.4-1.9,0.5c-0.2,0-0.5,0-0.7,0.1c-0.1,0-0.2,0.1-0.2,0.2c0,0.7-0.1,1.4-0.1,2.1
					c0,0.2,0,0.2-0.2,0.2c-0.5,0-0.9,0-1.4-0.1c-0.2,0-0.2,0-0.2-0.2c0-0.7,0.1-1.3,0.1-2c0-0.1,0-0.2-0.1-0.2c-0.4,0-0.8,0-1.2-0.1
					c-0.1,0-0.2,0-0.2,0.2c0,0.7-0.1,1.3-0.1,2c0,0.2,0,0.2-0.2,0.2c-0.5,0-1-0.1-1.4-0.1c-0.1,0-0.2-0.1-0.2-0.2
					c0-0.6,0.1-1.3,0.1-1.9c0-0.2,0-0.2-0.2-0.2c-1.2-0.1-2.4-0.1-3.6-0.2c-0.1,0-0.2,0-0.2-0.2c0-0.7,0.1-1.4,0.1-2.2
					c0-0.1,0.1-0.2,0.2-0.2c0.5,0,1.1,0.1,1.6,0.1c0.4,0,0.5-0.1,0.5-0.5c0-0.6,0.1-1.2,0.1-1.8c0.1-2.5,0.3-5,0.4-7.5
					c0-0.3,0-0.7,0.1-1c0-0.4-0.1-0.5-0.5-0.5c-0.5,0-1.1-0.1-1.6-0.1c-0.1,0-0.2,0-0.2-0.2c0-0.7,0.1-1.4,0.1-2.1
					c0-0.2,0-0.2,0.2-0.2c1.2,0.1,2.4,0.1,3.6,0.2c0.2,0,0.2,0,0.2-0.2c0-0.7,0.1-1.4,0.1-2.1c0-0.1,0-0.2,0.2-0.2
					c0.5,0,1,0.1,1.6,0.1c0.1,0,0.1,0.1,0.1,0.1c0,0.7-0.1,1.4-0.1,2.1c0,0.2,0,0.2,0.2,0.2c0.4,0,0.8,0,1.1,0.1
					c0.1,0,0.2,0,0.2-0.2c0-0.7,0.1-1.4,0.1-2.1c0-0.2,0-0.2,0.2-0.2c0.5,0,1,0.1,1.5,0.1c0.1,0,0.2,0,0.1,0.2
					c0,0.7-0.1,1.5-0.1,2.2c0,0.2,0,0.2,0.2,0.2c1.5,0.2,2.7,0.9,3.5,2.3c0.3,0.5,0.5,1.1,0.5,1.8c0,0.5-0.1,1.1-0.3,1.5
					c-0.3,0.8-0.9,1.4-1.7,1.8C351.3,292.8,351.1,292.9,350.9,293z M345.2,296.6c0,0.7-0.1,1.4-0.1,2.2c0,0.1,0,0.2,0.1,0.2
					c0.9,0,1.9,0.1,2.8,0.1c0.3,0,0.6,0,0.9-0.1c0.8-0.2,1.4-0.8,1.6-1.6c0.1-0.4,0.1-0.8-0.1-1.2c-0.3-0.7-0.8-1.1-1.5-1.3
					c-0.5-0.1-1-0.2-1.6-0.3c-0.6-0.1-1.2-0.1-1.8-0.1c-0.2,0-0.2,0-0.2,0.2C345.3,295.2,345.3,295.9,345.2,296.6z M345.6,289.4
					c0,0.6-0.1,1.2-0.1,1.8c0,0.1,0,0.2,0.2,0.2c0.5,0,1,0.1,1.5,0.1c0.4,0,0.8,0,1.1,0c0.4,0,0.7-0.1,1-0.3
					c0.4-0.3,0.7-0.7,0.7-1.2c0.1-0.7-0.1-1.3-0.7-1.7c-0.4-0.3-1-0.4-1.5-0.5c-0.7-0.1-1.4-0.1-2-0.1c-0.1,0-0.2,0-0.2,0.2
					C345.6,288.2,345.6,288.8,345.6,289.4z"/>
			</g>
		</g>
		<g class="st4">
			<g>
				<g>
					<g>
						<g>
							<circle class="st5" cx="251" cy="354.5" r="25.6"/>
						</g>
					</g>
				</g>
			</g>
			<g>
				<g>
					<g>
						<g>
							<circle class="st6" cx="250.6" cy="354.1" r="19.5"/>
						</g>
					</g>
				</g>
			</g>
			<g>
				<g>
					<g>
						<g>
							<circle class="st7" cx="251.5" cy="354.8" r="19.2"/>
						</g>
					</g>
				</g>
			</g>
			<g>
				<g>
					<g>
						<g>
							<circle class="st8" cx="251.5" cy="354.8" r="19.2"/>
						</g>
					</g>
				</g>
			</g>
			<g>
				<path class="st6" d="M255.9,354.3c0.2,0,0.4,0.1,0.6,0.1c1.2,0.3,2.1,0.9,2.7,2c0.4,0.7,0.5,1.4,0.5,2.2
					c-0.1,1.5-0.8,2.7-2.1,3.5c-0.6,0.4-1.1,0.6-1.8,0.8c-0.2,0.1-0.5,0.1-0.7,0.2c-0.1,0-0.1,0.1-0.1,0.2c0.1,0.7,0.2,1.4,0.3,2
					c0,0.2,0,0.2-0.2,0.2c-0.5,0.1-0.9,0.1-1.4,0.2c-0.2,0-0.2,0-0.2-0.2c-0.1-0.7-0.2-1.3-0.3-2c0-0.1,0-0.2-0.2-0.1
					c-0.4,0.1-0.8,0.1-1.2,0.2c-0.1,0-0.2,0.1-0.1,0.2c0.1,0.7,0.2,1.3,0.3,2c0,0.2,0,0.2-0.2,0.2c-0.5,0.1-1,0.1-1.4,0.2
					c-0.1,0-0.2,0-0.2-0.1c-0.1-0.6-0.2-1.3-0.3-1.9c0-0.2,0-0.2-0.2-0.2c-1.2,0.2-2.4,0.3-3.6,0.5c-0.1,0-0.2,0-0.2-0.1
					c-0.1-0.7-0.2-1.4-0.3-2.1c0-0.1,0-0.2,0.2-0.2c0.5-0.1,1.1-0.2,1.6-0.2c0.4-0.1,0.5-0.2,0.4-0.6c-0.1-0.6-0.2-1.2-0.3-1.8
					c-0.3-2.5-0.7-5-1.1-7.4c0-0.3-0.1-0.7-0.1-1c-0.1-0.4-0.2-0.5-0.6-0.4c-0.5,0.1-1.1,0.1-1.6,0.2c-0.1,0-0.2,0-0.2-0.2
					c-0.1-0.7-0.2-1.4-0.3-2.1c0-0.2,0-0.2,0.2-0.2c1.2-0.2,2.4-0.3,3.6-0.5c0.2,0,0.2,0,0.2-0.2c-0.1-0.7-0.2-1.4-0.3-2.1
					c0-0.1,0-0.2,0.1-0.2c0.5-0.1,1-0.1,1.6-0.2c0.1,0,0.1,0.1,0.1,0.1c0.1,0.7,0.2,1.4,0.3,2.1c0,0.2,0,0.2,0.2,0.2
					c0.4-0.1,0.8-0.1,1.1-0.2c0.1,0,0.1-0.1,0.1-0.2c-0.1-0.7-0.2-1.4-0.3-2.1c0-0.2,0-0.2,0.2-0.2c0.5-0.1,1-0.1,1.5-0.2
					c0.1,0,0.2,0,0.2,0.1c0.1,0.7,0.2,1.5,0.3,2.2c0,0.2,0,0.2,0.2,0.2c1.5-0.1,2.8,0.4,3.9,1.5c0.4,0.5,0.7,1,0.8,1.6
					c0.1,0.5,0.1,1,0,1.6c-0.2,0.9-0.6,1.6-1.3,2.1C256.2,354,256.1,354.2,255.9,354.3z M251,358.9c0.1,0.7,0.2,1.4,0.3,2.1
					c0,0.1,0,0.2,0.2,0.1c0.9-0.2,1.8-0.3,2.8-0.5c0.3-0.1,0.6-0.2,0.9-0.3c0.8-0.4,1.2-1,1.2-1.9c0-0.4-0.1-0.8-0.3-1.2
					c-0.4-0.6-1-1-1.8-1c-0.5,0-1.1,0-1.6,0c-0.6,0.1-1.2,0.2-1.8,0.2c-0.2,0-0.2,0-0.2,0.2C250.8,357.5,250.9,358.2,251,358.9z
					 M250,351.8c0.1,0.6,0.2,1.2,0.2,1.8c0,0.1,0.1,0.2,0.2,0.1c0.5-0.1,1-0.1,1.5-0.2c0.4-0.1,0.7-0.2,1.1-0.3
					c0.4-0.1,0.7-0.3,1-0.5c0.4-0.4,0.5-0.8,0.5-1.4c0-0.7-0.3-1.3-1-1.6c-0.5-0.2-1-0.3-1.5-0.2c-0.7,0.1-1.3,0.2-2,0.2
					c-0.1,0-0.2,0.1-0.1,0.2C249.8,350.7,249.9,351.2,250,351.8z"/>
				<path class="st5" d="M255.8,353.3c0.2,0,0.4,0.1,0.6,0.1c1.2,0.3,2.1,0.9,2.7,2c0.4,0.7,0.5,1.4,0.5,2.2
					c-0.1,1.5-0.8,2.7-2.1,3.5c-0.6,0.4-1.1,0.6-1.8,0.8c-0.2,0.1-0.5,0.1-0.7,0.2c-0.1,0-0.1,0.1-0.1,0.2c0.1,0.7,0.2,1.4,0.3,2
					c0,0.2,0,0.2-0.2,0.2c-0.5,0.1-0.9,0.1-1.4,0.2c-0.2,0-0.2,0-0.2-0.2c-0.1-0.7-0.2-1.3-0.3-2c0-0.1,0-0.2-0.2-0.1
					c-0.4,0.1-0.8,0.1-1.2,0.2c-0.1,0-0.2,0.1-0.1,0.2c0.1,0.7,0.2,1.3,0.3,2c0,0.2,0,0.2-0.2,0.2c-0.5,0.1-1,0.1-1.4,0.2
					c-0.1,0-0.2,0-0.2-0.1c-0.1-0.6-0.2-1.3-0.3-1.9c0-0.2,0-0.2-0.2-0.2c-1.2,0.2-2.4,0.3-3.6,0.5c-0.1,0-0.2,0-0.2-0.1
					c-0.1-0.7-0.2-1.4-0.3-2.1c0-0.1,0-0.2,0.2-0.2c0.5-0.1,1.1-0.2,1.6-0.2c0.4-0.1,0.5-0.2,0.4-0.6c-0.1-0.6-0.2-1.2-0.3-1.8
					c-0.3-2.5-0.7-5-1-7.4c0-0.3-0.1-0.7-0.1-1c-0.1-0.4-0.2-0.5-0.6-0.4c-0.5,0.1-1.1,0.1-1.6,0.2c-0.1,0-0.2,0-0.2-0.2
					c-0.1-0.7-0.2-1.4-0.3-2.1c0-0.2,0-0.2,0.2-0.2c1.2-0.2,2.4-0.3,3.6-0.5c0.2,0,0.2,0,0.2-0.2c-0.1-0.7-0.2-1.4-0.3-2.1
					c0-0.1,0-0.2,0.1-0.2c0.5-0.1,1-0.1,1.6-0.2c0.1,0,0.1,0.1,0.1,0.1c0.1,0.7,0.2,1.4,0.3,2.1c0,0.2,0,0.2,0.2,0.2
					c0.4-0.1,0.8-0.1,1.1-0.2c0.1,0,0.1-0.1,0.1-0.2c-0.1-0.7-0.2-1.4-0.3-2.1c0-0.2,0-0.2,0.2-0.2c0.5-0.1,1-0.1,1.5-0.2
					c0.1,0,0.2,0,0.2,0.1c0.1,0.7,0.2,1.5,0.3,2.2c0,0.2,0,0.2,0.2,0.2c1.5-0.1,2.8,0.4,3.9,1.5c0.4,0.5,0.7,1,0.8,1.6
					c0.1,0.5,0.1,1,0,1.6c-0.2,0.9-0.6,1.6-1.3,2.1C256.1,353,255.9,353.2,255.8,353.3z M250.9,357.9c0.1,0.7,0.2,1.4,0.3,2.1
					c0,0.1,0,0.2,0.2,0.1c0.9-0.2,1.8-0.3,2.8-0.5c0.3-0.1,0.6-0.2,0.9-0.3c0.8-0.4,1.2-1,1.2-1.9c0-0.4-0.1-0.8-0.3-1.2
					c-0.4-0.6-1-1-1.8-1c-0.5,0-1.1,0-1.6,0c-0.6,0.1-1.2,0.2-1.8,0.2c-0.2,0-0.2,0-0.2,0.2C250.7,356.5,250.8,357.2,250.9,357.9z
					 M249.8,350.8c0.1,0.6,0.2,1.2,0.2,1.8c0,0.1,0.1,0.2,0.2,0.1c0.5-0.1,1-0.1,1.5-0.2c0.4-0.1,0.7-0.2,1.1-0.3
					c0.4-0.1,0.7-0.3,1-0.5c0.4-0.4,0.5-0.8,0.5-1.4c0-0.7-0.3-1.3-1-1.6c-0.5-0.2-1-0.3-1.5-0.2c-0.7,0.1-1.3,0.2-2,0.2
					c-0.1,0-0.2,0.1-0.1,0.2C249.7,349.7,249.7,350.2,249.8,350.8z"/>
			</g>
		</g>
	</g>
	<g class="st4">
		<ellipse class="st9" cx="385.7" cy="405" rx="25" ry="5.5"/>
		<rect x="360.8" y="332" class="st9" width="49.9" height="73.1"/>
		<ellipse class="st10" cx="385.7" cy="332" rx="25" ry="5.5"/>
		<g>
			<defs>
				<rect id="SVGID_3_" x="360.8" y="333.3" width="49.9" height="71.8"/>
			</defs>
			<clipPath id="SVGID_4_">
				<use xlink:href="#SVGID_3_"  style="overflow:visible;"/>
			</clipPath>
			<path class="st11" d="M359.8,343.5c0,3,11.7,5.5,26.1,5.5c14.4,0,26.1-2.4,26.1-5.5"/>
			<path class="st11" d="M359.8,356.7c0,3,11.7,5.5,26.1,5.5c14.4,0,26.1-2.4,26.1-5.5"/>
			<path class="st11" d="M359.8,369.2c0,3,11.7,5.5,26.1,5.5c14.4,0,26.1-2.4,26.1-5.5"/>
			<path class="st11" d="M359.8,381.2c0,3,11.7,5.5,26.1,5.5c14.4,0,26.1-2.4,26.1-5.5"/>
			<path class="st11" d="M359.8,393.3c0,3,11.7,5.5,26.1,5.5c14.4,0,26.1-2.4,26.1-5.5"/>
		</g>
		<line class="st12" x1="365.9" y1="398.4" x2="365.9" y2="406"/>
		<line class="st12" x1="365.9" y1="386.3" x2="365.9" y2="394.7"/>
		<line class="st12" x1="365.9" y1="374.5" x2="365.9" y2="383.3"/>
		<line class="st12" x1="365.9" y1="362" x2="365.9" y2="370.8"/>
		<line class="st12" x1="365.9" y1="348.4" x2="365.9" y2="358.7"/>
		<line class="st12" x1="365.9" y1="337.9" x2="365.9" y2="344.5"/>
		<line class="st12" x1="370.6" y1="399.7" x2="370.6" y2="407.4"/>
		<line class="st12" x1="370.6" y1="387.6" x2="370.6" y2="396.1"/>
		<line class="st12" x1="370.6" y1="375.8" x2="370.6" y2="384.6"/>
		<line class="st12" x1="370.6" y1="363.3" x2="370.6" y2="372.1"/>
		<line class="st12" x1="370.6" y1="349.7" x2="370.6" y2="360"/>
		<line class="st12" x1="370.6" y1="339.2" x2="370.6" y2="345.8"/>
		<line class="st12" x1="375.9" y1="400.5" x2="375.9" y2="408.1"/>
		<line class="st12" x1="375.9" y1="388.4" x2="375.9" y2="396.8"/>
		<line class="st12" x1="375.9" y1="376.6" x2="375.9" y2="385.4"/>
		<line class="st12" x1="375.9" y1="364.1" x2="375.9" y2="372.9"/>
		<line class="st12" x1="375.9" y1="350.5" x2="375.9" y2="360.8"/>
		<line class="st12" x1="375.9" y1="340" x2="375.9" y2="346.6"/>
		<line class="st12" x1="406.2" y1="398.5" x2="406.2" y2="406.1"/>
		<line class="st12" x1="406.2" y1="386.3" x2="406.2" y2="394.8"/>
		<line class="st12" x1="406.2" y1="374.6" x2="406.2" y2="383.3"/>
		<line class="st12" x1="406.2" y1="362.1" x2="406.2" y2="370.8"/>
		<line class="st12" x1="406.2" y1="348.5" x2="406.2" y2="358.8"/>
		<line class="st12" x1="406.2" y1="338" x2="406.2" y2="344.6"/>
		<line class="st12" x1="400.9" y1="399.6" x2="400.9" y2="407.3"/>
		<line class="st12" x1="400.9" y1="387.5" x2="400.9" y2="396"/>
		<line class="st12" x1="400.9" y1="375.7" x2="400.9" y2="384.5"/>
		<line class="st12" x1="400.9" y1="363.3" x2="400.9" y2="372"/>
		<line class="st12" x1="400.9" y1="349.7" x2="400.9" y2="360"/>
		<line class="st12" x1="400.9" y1="339.1" x2="400.9" y2="345.7"/>
		<line class="st12" x1="395.1" y1="400.2" x2="395.1" y2="407.9"/>
		<line class="st12" x1="395.1" y1="388.1" x2="395.1" y2="396.6"/>
		<line class="st12" x1="395.1" y1="376.3" x2="395.1" y2="385.1"/>
		<line class="st12" x1="395.1" y1="363.8" x2="395.1" y2="372.6"/>
		<line class="st12" x1="395.1" y1="350.2" x2="395.1" y2="360.5"/>
		<line class="st12" x1="395.1" y1="339.7" x2="395.1" y2="346.3"/>
		<line class="st12" x1="389.1" y1="400.5" x2="389.1" y2="408.1"/>
		<line class="st12" x1="389.1" y1="388.4" x2="389.1" y2="396.8"/>
		<line class="st12" x1="389.1" y1="376.6" x2="389.1" y2="385.4"/>
		<line class="st12" x1="389.1" y1="364.1" x2="389.1" y2="372.9"/>
		<line class="st12" x1="389.1" y1="350.5" x2="389.1" y2="360.8"/>
		<line class="st12" x1="389.1" y1="340" x2="389.1" y2="346.6"/>
		<line class="st12" x1="382.6" y1="400.4" x2="382.6" y2="408"/>
		<line class="st12" x1="382.6" y1="388.2" x2="382.6" y2="396.7"/>
		<line class="st12" x1="382.6" y1="376.5" x2="382.6" y2="385.2"/>
		<line class="st12" x1="382.6" y1="364" x2="382.6" y2="372.8"/>
		<line class="st12" x1="382.6" y1="350.4" x2="382.6" y2="360.7"/>
		<line class="st12" x1="382.6" y1="339.9" x2="382.6" y2="346.5"/>
	</g>
	<line class="st13" x1="65.7" y1="398.7" x2="434.3" y2="398.7"/>
	<polygon class="st14" points="221,211.6 228.3,210.9 247,187.4 253.8,194 233.2,229.5 219.3,230.5 	"/>
	<g>
		<g>
			<g>
				<path class="st15" d="M90.1,324.9c1.7-1,2.5-3.1,2.7-5c0.2-2,0-4,0.4-5.9c0.3-1.6,0.1-3.2,0.1-4.8c0-3.1-1.8-3.7-2.9-6.6
					c-1.1-2.8,0.9-3.5,0.3-4.7c-0.3-0.6-1.3-0.5-1.9-0.2c-0.6,0.3-1.1,0.7-1.6,1.2c-2.3,2.4-4.4,5.4-4.3,8.7c0,1.7,0.6,3.3,0.8,4.9
					c0.4,2.6,0,5.3,1.1,7.7C85.8,322.3,88,323.7,90.1,324.9"/>
			</g>
			<g>
				<g>
					<path class="st15" d="M92,335.1c-0.4-4.4,2.1-9.5,5.5-12.3c1.4-1.2,3.1-2.1,4.1-3.7c1.2-1.8,1.3-4.1,2.5-5.9
						c1.8-2.6,5.5-3.1,8.7-3.1s10.2-3.2,9.3-1.5c-2.8,6.6-2.3,6.3-11.2,11.9c-3.6,2.3-1,10.2-10.8,12.5
						C97.5,333.7,94.3,333.4,92,335.1"/>
				</g>
			</g>
			<g>
				<path class="st15" d="M72.9,339.3c1.7,1,2.8,2.8,4.5,3.8c1.5,0.9,3.4,1.1,5.1,1.6c4.1,1.3,8.7,9.3,11.2,13.4
					c-1.1-0.1-3.3-1.2-5.3-1.3c-2.1-0.1-4.7-0.9-6.8-1.2c-6.7-1.2-9.7-4.7-14.5-9.4c-1.5-1.5-3.3-2.6-4.8-3.8c-1.3-1-0.7-3.1,1-3.2
					C66.5,338.9,70.1,337.8,72.9,339.3z"/>
			</g>
			<g>
				<g>
					<path class="st15" d="M91.8,338.8c-1.9-7-7.7-12.7-14-16.4c-5.4-3.1-11.9-4.3-18.1-3.4c-1.5,0.2-2.1,2-1.1,3
						c3.1,3.3,6.7,4.2,11.8,5.8c1.1,0.3,3.8-0.3,5.7,1.3c0.7,0.6,0.8,2.9,5.3,4.1C85.7,334.4,89.5,335.5,91.8,338.8"/>
				</g>
			</g>
			<g>
				<g>
					<path class="st3" d="M88.8,310.3c0,0,0,0.1,0,0.2c0,0.2,0,0.4-0.1,0.7c0,0.3,0,0.6-0.1,1.1c0,0.4,0,0.9,0,1.5
						c0,2.2,0.1,5.4,0.8,9.3c0.6,3.9,1.6,8.4,2.8,13.5c1.2,5,2.3,10.6,3,16.6c1.5,11.9,1.2,22.8,0.4,30.5c-0.4,3.9-0.9,7-1.2,9.2
						c-0.2,1.1-0.3,1.9-0.4,2.5c0,0.3-0.1,0.5-0.1,0.6c0,0.1,0,0.2,0,0.2c0,0,1.1-4.7,2-12.5c0.8-7.8,1.2-18.7-0.3-30.6
						c-0.7-5.9-1.9-11.5-3.1-16.6c-1.2-5-2.3-9.6-2.9-13.5c-0.7-3.9-0.8-7-0.9-9.2c0-0.5,0-1,0-1.5c0-0.4,0-0.8,0-1.1
						c0-0.3,0-0.5,0-0.7C88.8,310.4,88.8,310.3,88.8,310.3z"/>
				</g>
			</g>
			<g>
				<g>
					<path class="st3" d="M63.5,321c0,0,0.1,0,0.4,0.1c0.3,0,0.6,0.1,1.1,0.2c1,0.1,2.4,0.4,4,0.8c1.7,0.4,3.7,1,5.8,1.9
						c2.1,0.9,4.4,2,6.5,3.6c4.3,3.2,7.4,6.9,9.3,9.7c1,1.4,1.7,2.6,2.2,3.5c0.2,0.4,0.4,0.8,0.5,1c0.1,0.2,0.2,0.3,0.2,0.3
						c0,0,0-0.1-0.2-0.4c-0.1-0.2-0.3-0.6-0.5-1c-0.4-0.9-1.1-2.1-2.1-3.6c-1.9-2.9-5.1-6.7-9.3-9.9c-2.2-1.6-4.4-2.7-6.6-3.6
						c-2.1-0.9-4.2-1.4-5.9-1.8c-1.7-0.4-3.1-0.6-4.1-0.7c-0.5-0.1-0.9-0.1-1.1-0.1C63.6,321,63.5,321,63.5,321z"/>
				</g>
			</g>
			<g>
				<g>
					<path class="st3" d="M114.8,313.7c0,0-0.1,0-0.3,0.1c-0.2,0-0.5,0.1-0.9,0.2c-0.8,0.2-1.9,0.6-3.2,1.2c-0.7,0.3-1.4,0.8-2,1.4
						c-0.6,0.7-1.1,1.4-1.6,2.3c-0.5,0.8-1,1.7-1.4,2.7c-0.5,1-0.7,2-1.3,3c-1.1,1.9-3.1,3-4.7,4c-1.6,1-3.1,2.1-4.2,3
						c-1.1,1-1.9,1.9-2.4,2.5c-0.2,0.3-0.4,0.5-0.6,0.7c-0.1,0.2-0.2,0.3-0.2,0.3c0,0,0.1-0.1,0.2-0.2c0.2-0.2,0.4-0.4,0.6-0.7
						c0.5-0.6,1.4-1.4,2.5-2.4c1.1-0.9,2.5-2,4.2-3c0.8-0.5,1.7-1,2.5-1.7c0.8-0.6,1.6-1.4,2.2-2.4c0.6-1,0.9-2.1,1.3-3
						c0.4-1,0.9-1.9,1.4-2.7c0.5-0.8,1-1.6,1.5-2.2c0.6-0.6,1.2-1,1.9-1.4c1.3-0.7,2.4-1.1,3.2-1.3c0.4-0.1,0.7-0.2,0.9-0.3
						C114.7,313.8,114.8,313.7,114.8,313.7z"/>
				</g>
			</g>
			<g>
				<g>
					<path class="st3" d="M67.9,342.3c0,0,0.1,0.1,0.2,0.2c0.2,0.2,0.4,0.4,0.8,0.6c0.7,0.5,1.6,1.3,2.9,2.2
						c1.2,0.9,2.8,1.9,4.6,2.8c1.8,0.9,3.9,1.7,6.1,2.6c4.3,1.7,7.7,4.4,10,6.4c1.2,1,2.1,1.8,2.7,2.4c0.3,0.3,0.5,0.5,0.7,0.6
						c0.2,0.1,0.3,0.2,0.3,0.2c0,0-0.1-0.1-0.2-0.3c-0.2-0.2-0.4-0.4-0.7-0.7c-0.6-0.6-1.5-1.4-2.7-2.5c-2.3-2-5.6-4.7-10-6.5
						c-2.2-0.9-4.3-1.6-6.1-2.5c-1.8-0.9-3.3-1.9-4.6-2.8c-1.2-0.9-2.2-1.6-2.9-2.2c-0.3-0.2-0.6-0.4-0.8-0.6
						C68,342.4,67.9,342.3,67.9,342.3z"/>
				</g>
			</g>
			<g>
				<path class="st15" d="M97.5,356.5c3.3-3.1,3-9,6.5-11.9c2.2-1.8,5.4-1.9,7.7-3.6c1.5-1.1,2.5-2.8,3.9-3.9
					c2.1-1.7,4.9-2.2,7.6-2.3c1.3-0.1,2.2,1.1,1.8,2.3c-1.7,5.7-6.1,10.5-11.7,12.5c-1.5,0.6-3.2,1-4.4,2c-0.8,0.8-1.4,1.8-2.2,2.6
					c-1.2,1.3-2.9,2-4.6,2.3c-1.7,0.3-3.5,0.3-5.2,0.2"/>
			</g>
			<g>
				<g>
					<path class="st3" d="M119,338.5c0,0-0.2,0.4-0.7,1c-0.4,0.6-1.2,1.5-2.2,2.3c-1,0.9-2.4,1.8-4,2.7c-1.6,0.9-3.3,1.9-5,3.1
						c-3.4,2.4-6.2,5.1-8.1,7c-1,1-1.7,1.8-2.2,2.4c-0.2,0.3-0.4,0.5-0.6,0.7c-0.1,0.2-0.2,0.2-0.2,0.2c0,0,0.1-0.1,0.2-0.2
						c0.2-0.2,0.4-0.4,0.6-0.6c0.6-0.6,1.4-1.3,2.3-2.3c2-1.9,4.7-4.5,8.1-6.9c1.7-1.2,3.4-2.2,5-3.1c1.6-0.9,2.9-1.8,4-2.7
						c1-0.9,1.8-1.8,2.2-2.4c0.2-0.3,0.4-0.6,0.4-0.8C119,338.6,119,338.5,119,338.5z"/>
				</g>
			</g>
		</g>
		<path class="st15" d="M82.5,375.7h26.1c0.6,0,1.1-0.5,1.1-1.1v-3.1c0-0.6-0.5-1.1-1.1-1.1H82.5c-0.6,0-1.1,0.5-1.1,1.1v3.1
			C81.3,375.2,81.8,375.7,82.5,375.7z"/>
		<path class="st15" d="M84.4,398.4h22.1c0.6,0,1.1-0.5,1.1-1.1v-22.5H83.3v22.5C83.3,397.9,83.8,398.4,84.4,398.4z"/>
	</g>
	<g>
		<g>
			<polyline class="st16" points="224.1,123.3 271.6,154.4 313.4,116.3 			"/>
			<polyline class="st16" points="231.1,124.5 271.6,154.4 305.7,118 			"/>
			<polyline class="st16" points="238.1,123.2 271.6,154.4 298.5,117.9 			"/>
			<polyline class="st16" points="246.7,122.1 271.6,154.4 289.5,118.8 			"/>
			<line class="st16" x1="268" y1="119.2" x2="271.6" y2="152.2"/>
			<polyline class="st16" points="256,121.1 271.6,154.4 279.9,119.6 			"/>
			<path class="st17" d="M223.9,123.5c0,0,4.4-0.7,7.2,1c0,0,6.6-7.6,15.6-2.4c0,0,11.2-9.2,21.3-3c0,0,11.9-8.3,21.5-0.3
				c0,0,9-6.5,16.2-0.5c0,0,3.1-5.3,8-1.9l-8.7-13.5l-67.4,4.2C237.6,107.2,225.5,114.9,223.9,123.5z"/>
			<path class="st18" d="M224.2,120.3c-0.2,1,1,1.8,1.8,1.2c0.8-0.6,1.9-1.1,3.3-1.5c3.4-0.8,6,1,7.6,2.8c0.6,0.6,1.6,0.5,1.9-0.3
				c0.9-2.1,3-5.2,7.4-5.7c4.4-0.5,7.3,2,8.8,3.8c0.5,0.7,1.6,0.6,2-0.2c1.4-2.7,4.6-7.4,10.7-8.1c6.1-0.7,9.7,3.9,11.2,6.6
				c0.4,0.8,1.5,0.8,2,0c1.6-2.6,5-6.7,10-5.7c3.9,0.9,5.7,2.7,6.5,4.2c0.4,0.8,1.5,0.8,2,0.1c1.6-2.2,4.5-5.3,8.1-4.8
				c5.5,0.7,6.1,3.7,6.1,3.7s-9.6-35.9-48.8-32.6C233.8,86.7,226,110.5,224.2,120.3z"/>
			<g>
				<g>
					<g>
						<g>
							<g>
								<circle class="st19" cx="273.1" cy="178.3" r="30.9"/>
							</g>
						</g>
					</g>
				</g>
				<g>
					<g>
						<g>
							<g>
								<circle class="st20" cx="272.5" cy="177.9" r="23.5"/>
							</g>
						</g>
					</g>
				</g>
				<g>
					<g>
						<g>
							<g>
								<circle class="st7" cx="273.7" cy="178.6" r="23.2"/>
							</g>
						</g>
					</g>
				</g>
				<g>
					<g>
						<g>
							<g>
								<circle class="st21" cx="273.7" cy="178.6" r="23.2"/>
							</g>
						</g>
					</g>
				</g>
				<g>
					<path class="st20" d="M278.9,177.4c0.3,0,0.5,0.1,0.7,0.1c1.4,0.2,2.6,0.9,3.5,2.1c0.5,0.8,0.8,1.6,0.9,2.5
						c0.1,1.8-0.7,3.3-2.1,4.4c-0.6,0.5-1.3,0.9-2,1.2c-0.3,0.1-0.5,0.2-0.8,0.3c-0.1,0.1-0.2,0.1-0.1,0.3c0.2,0.8,0.4,1.6,0.6,2.4
						c0.1,0.3,0.1,0.3-0.2,0.3c-0.6,0.1-1.1,0.3-1.7,0.4c-0.2,0.1-0.2,0.1-0.3-0.2c-0.2-0.8-0.4-1.6-0.6-2.4c0-0.1-0.1-0.2-0.2-0.1
						c-0.5,0.1-0.9,0.2-1.4,0.3c-0.1,0-0.2,0.1-0.1,0.2c0.2,0.8,0.4,1.5,0.6,2.3c0.1,0.2,0.1,0.2-0.2,0.3c-0.6,0.1-1.1,0.3-1.7,0.4
						c-0.2,0-0.2,0-0.2-0.2c-0.2-0.8-0.4-1.5-0.5-2.3c-0.1-0.3-0.1-0.3-0.3-0.2c-1.4,0.3-2.8,0.7-4.2,1c-0.2,0-0.2,0-0.2-0.1
						c-0.2-0.8-0.4-1.7-0.6-2.5c0-0.2,0-0.2,0.2-0.3c0.6-0.1,1.3-0.3,1.9-0.5c0.5-0.1,0.6-0.3,0.5-0.8c-0.2-0.7-0.3-1.4-0.5-2.1
						c-0.7-2.9-1.4-5.9-2.1-8.8c-0.1-0.4-0.2-0.8-0.3-1.2c-0.1-0.5-0.3-0.6-0.8-0.5c-0.6,0.2-1.3,0.3-1.9,0.5c-0.2,0-0.2,0-0.3-0.2
						c-0.2-0.8-0.4-1.7-0.6-2.5c0-0.2,0-0.2,0.2-0.3c1.4-0.3,2.8-0.7,4.3-1c0.2-0.1,0.2-0.1,0.2-0.3c-0.2-0.8-0.4-1.6-0.6-2.5
						c0-0.1,0-0.2,0.1-0.2c0.6-0.1,1.2-0.3,1.8-0.4c0.1,0,0.1,0.1,0.1,0.1c0.2,0.8,0.4,1.6,0.6,2.5c0.1,0.2,0.1,0.2,0.3,0.2
						c0.4-0.1,0.9-0.2,1.3-0.3c0.1,0,0.2-0.1,0.1-0.2c-0.2-0.8-0.4-1.6-0.6-2.5c-0.1-0.2,0-0.2,0.2-0.3c0.6-0.1,1.2-0.3,1.7-0.4
						c0.1,0,0.2,0,0.2,0.1c0.2,0.9,0.4,1.7,0.6,2.6c0.1,0.2,0.1,0.2,0.3,0.2c1.8-0.3,3.5,0.1,4.8,1.4c0.6,0.5,0.9,1.2,1.1,1.9
						c0.2,0.6,0.3,1.2,0.2,1.9c-0.1,1.1-0.5,2-1.3,2.7C279.3,177.1,279.1,177.3,278.9,177.4z M273.5,183.6c0.2,0.8,0.4,1.7,0.6,2.5
						c0,0.1,0.1,0.2,0.2,0.1c1.1-0.3,2.2-0.6,3.3-0.9c0.4-0.1,0.7-0.3,1-0.5c0.9-0.5,1.3-1.3,1.2-2.4c0-0.5-0.2-1-0.5-1.4
						c-0.6-0.7-1.4-1-2.2-1c-0.6,0-1.3,0.1-1.9,0.2c-0.7,0.1-1.4,0.3-2.2,0.5c-0.2,0.1-0.2,0.1-0.2,0.3
						C273.1,181.9,273.3,182.8,273.5,183.6z M271.5,175.2c0.2,0.7,0.3,1.4,0.5,2.1c0,0.1,0.1,0.2,0.2,0.1c0.6-0.1,1.2-0.3,1.7-0.4
						c0.4-0.1,0.9-0.3,1.3-0.4c0.4-0.2,0.8-0.4,1.1-0.8c0.4-0.5,0.5-1.1,0.4-1.7c-0.1-0.8-0.5-1.5-1.4-1.8c-0.6-0.2-1.3-0.2-1.9-0.1
						c-0.8,0.1-1.6,0.4-2.4,0.5c-0.2,0-0.2,0.1-0.2,0.3C271.2,173.8,271.3,174.5,271.5,175.2z"/>
					<path class="st3" d="M278.7,176.2c0.3,0,0.5,0.1,0.7,0.1c1.4,0.2,2.6,0.9,3.5,2.1c0.5,0.8,0.8,1.6,0.9,2.5
						c0.1,1.8-0.7,3.3-2.1,4.4c-0.6,0.5-1.3,0.9-2,1.2c-0.3,0.1-0.5,0.2-0.8,0.3c-0.1,0.1-0.2,0.1-0.1,0.3c0.2,0.8,0.4,1.6,0.6,2.4
						c0.1,0.3,0.1,0.3-0.2,0.3c-0.6,0.1-1.1,0.3-1.7,0.4c-0.2,0.1-0.2,0.1-0.3-0.2c-0.2-0.8-0.4-1.6-0.6-2.4c0-0.1-0.1-0.2-0.2-0.1
						c-0.5,0.1-0.9,0.2-1.4,0.3c-0.1,0-0.2,0.1-0.1,0.2c0.2,0.8,0.4,1.5,0.6,2.3c0.1,0.2,0.1,0.2-0.2,0.3c-0.6,0.1-1.1,0.3-1.7,0.4
						c-0.2,0-0.2,0-0.2-0.2c-0.2-0.8-0.4-1.5-0.5-2.3c-0.1-0.3-0.1-0.3-0.3-0.2c-1.4,0.3-2.8,0.7-4.2,1c-0.2,0-0.2,0-0.2-0.1
						c-0.2-0.8-0.4-1.7-0.6-2.5c0-0.2,0-0.2,0.2-0.3c0.6-0.1,1.3-0.3,1.9-0.5c0.5-0.1,0.6-0.3,0.5-0.8c-0.2-0.7-0.3-1.4-0.5-2.1
						c-0.7-2.9-1.4-5.9-2.1-8.8c-0.1-0.4-0.2-0.8-0.3-1.2c-0.1-0.5-0.3-0.6-0.8-0.5c-0.6,0.2-1.3,0.3-1.9,0.5c-0.2,0-0.2,0-0.3-0.2
						c-0.2-0.8-0.4-1.7-0.6-2.5c0-0.2,0-0.2,0.2-0.3c1.4-0.3,2.8-0.7,4.3-1c0.2-0.1,0.2-0.1,0.2-0.3c-0.2-0.8-0.4-1.6-0.6-2.5
						c0-0.1,0-0.2,0.1-0.2c0.6-0.1,1.2-0.3,1.8-0.4c0.1,0,0.1,0.1,0.1,0.1c0.2,0.8,0.4,1.6,0.6,2.5c0.1,0.2,0.1,0.2,0.3,0.2
						c0.4-0.1,0.9-0.2,1.3-0.3c0.1,0,0.2-0.1,0.1-0.2c-0.2-0.8-0.4-1.6-0.6-2.5c-0.1-0.2-0.1-0.2,0.2-0.3c0.6-0.1,1.2-0.3,1.7-0.4
						c0.1,0,0.2,0,0.2,0.1c0.2,0.9,0.4,1.7,0.6,2.6c0.1,0.2,0.1,0.2,0.3,0.2c1.8-0.3,3.5,0.1,4.8,1.4c0.6,0.5,0.9,1.2,1.1,1.9
						c0.2,0.6,0.3,1.2,0.2,1.9c-0.1,1.1-0.5,2-1.3,2.7C279,175.9,278.8,176.1,278.7,176.2z M273.3,182.4c0.2,0.8,0.4,1.7,0.6,2.5
						c0,0.1,0.1,0.2,0.2,0.1c1.1-0.3,2.2-0.6,3.3-0.9c0.4-0.1,0.7-0.3,1-0.5c0.9-0.5,1.3-1.3,1.2-2.4c0-0.5-0.2-1-0.5-1.4
						c-0.6-0.7-1.4-1-2.2-1c-0.6,0-1.3,0.1-1.9,0.2c-0.7,0.1-1.4,0.3-2.2,0.5c-0.2,0.1-0.2,0.1-0.2,0.3
						C272.9,180.7,273.1,181.6,273.3,182.4z M271.2,174c0.2,0.7,0.3,1.4,0.5,2.1c0,0.1,0.1,0.2,0.2,0.1c0.6-0.1,1.2-0.3,1.7-0.4
						c0.4-0.1,0.9-0.3,1.3-0.4c0.4-0.2,0.8-0.4,1.1-0.8c0.4-0.5,0.5-1.1,0.4-1.7c-0.1-0.8-0.5-1.5-1.4-1.8c-0.6-0.2-1.3-0.2-1.9-0.1
						c-0.8,0.1-1.6,0.4-2.4,0.5c-0.2,0-0.2,0.1-0.2,0.3C270.9,172.6,271,173.3,271.2,174z"/>
				</g>
			</g>
			<g>
				<path class="st22" d="M313.7,116.5C313.7,116.5,313.7,116.6,313.7,116.5C313.7,116.6,313.7,116.5,313.7,116.5z"/>
				<path class="st22" d="M298,118.1c0.5,0.2,1.1,0,1.4-0.4c1.6-2.2,4.5-5.3,8.1-4.8c5,0.7,6,3.1,6.1,3.6
					c-0.6-2-10.8-35.7-48.8-32.5C294.3,87,297.7,111.5,298,118.1z"/>
			</g>
			<path class="st22" d="M264.9,84c-34.9,3-40.4,32.7-41.2,39.2c0,0.3,0.3,0.4,0.4,0.2c0.7-1.1,2.3-2.7,5.2-3.4c3.4-0.8,6,1,7.6,2.8
				c0.3,0.3,0.7,0.4,1.1,0.4C235.2,90.6,264.9,84,264.9,84z"/>
			<path class="st22" d="M256,121.1c0.4,0,0.8-0.2,1-0.6c1.4-2.7,4.6-7.4,10.7-8.1c6.1-0.7,9.7,3.9,11.2,6.6
				c0.2,0.4,0.5,0.5,0.9,0.6c-1.2-30.5-15-35.6-15-35.6C252.7,93,255.2,115.5,256,121.1z"/>
		</g>
		<g>
			<polyline class="st16" points="359.6,211.1 392.5,227.9 416.9,200.4 			"/>
			<polyline class="st16" points="364.2,211.4 392.5,227.9 412.1,202 			"/>
			<polyline class="st16" points="368.6,210 392.5,227.9 407.4,202.4 			"/>
			<polyline class="st16" points="374.1,208.7 392.5,227.9 401.6,203.6 			"/>
			<line class="st16" x1="387.7" y1="205.3" x2="392.4" y2="226.5"/>
			<polyline class="st16" points="380.1,207.4 392.5,227.9 395.5,204.8 			"/>
			<path class="st17" d="M359.5,211.2c0,0,2.8-0.7,4.8,0.2c0,0,3.7-5.4,9.9-2.6c0,0,6.6-6.7,13.6-3.4c0,0,7.1-6.2,13.9-1.7
				c0,0,5.4-4.8,10.5-1.4c0,0,1.7-3.7,5-1.8l-6.6-8.1l-43.4,7.4C367.2,199.7,359.9,205.5,359.5,211.2z"/>
			<path class="st18" d="M359.4,209.1c-0.1,0.7,0.8,1.1,1.3,0.6c0.5-0.4,1.2-0.9,2-1.2c2.1-0.7,4,0.2,5.1,1.3
				c0.4,0.4,1.1,0.2,1.2-0.3c0.5-1.4,1.6-3.6,4.4-4.2c2.8-0.6,4.9,0.8,6,1.9c0.4,0.4,1.1,0.3,1.3-0.3c0.7-1.9,2.4-5.1,6.4-6
				c3.9-0.9,6.5,1.8,7.7,3.5c0.3,0.5,1.1,0.4,1.3-0.1c0.9-1.8,2.8-4.7,6.1-4.4c2.6,0.3,3.9,1.4,4.5,2.3c0.3,0.5,1,0.4,1.3-0.1
				c0.9-1.5,2.6-3.7,4.9-3.7c3.6,0.1,4.2,2,4.2,2s-8.7-22.6-33.9-17.7C363.3,186.7,360,202.6,359.4,209.1z"/>
			<g>
				<g>
					<g>
						<g>
							<g>
								<circle class="st19" cx="395.1" cy="243.3" r="20.2"/>
							</g>
						</g>
					</g>
				</g>
				<g>
					<g>
						<g>
							<g>
								<circle class="st20" cx="394.7" cy="243.1" r="15.3"/>
							</g>
						</g>
					</g>
				</g>
				<g>
					<g>
						<g>
							<g>
								<circle class="st7" cx="395.5" cy="243.5" r="15.1"/>
							</g>
						</g>
					</g>
				</g>
				<g>
					<g>
						<g>
							<g>
								<circle class="st21" cx="395.5" cy="243.5" r="15.1"/>
							</g>
						</g>
					</g>
				</g>
				<g>
					<path class="st20" d="M398.9,242.3c0.2,0,0.3,0,0.5,0c0.9,0.1,1.8,0.4,2.4,1.1c0.4,0.5,0.6,1,0.7,1.6c0.2,1.2-0.2,2.2-1,3
						c-0.4,0.4-0.8,0.7-1.2,0.9c-0.2,0.1-0.3,0.2-0.5,0.3c-0.1,0-0.1,0.1-0.1,0.2c0.2,0.5,0.4,1,0.5,1.5c0.1,0.2,0.1,0.2-0.1,0.2
						c-0.4,0.1-0.7,0.2-1.1,0.4c-0.1,0.1-0.1,0.1-0.2-0.1c-0.2-0.5-0.4-1-0.5-1.5c0-0.1-0.1-0.1-0.2-0.1c-0.3,0.1-0.6,0.2-0.9,0.3
						c-0.1,0-0.1,0.1-0.1,0.2c0.2,0.5,0.3,1,0.5,1.5c0.1,0.2,0.1,0.2-0.1,0.2c-0.4,0.1-0.7,0.3-1.1,0.4c-0.1,0-0.1,0-0.2-0.1
						c-0.2-0.5-0.3-1-0.5-1.4c-0.1-0.2-0.1-0.2-0.2-0.1c-0.9,0.3-1.8,0.6-2.7,1c-0.1,0-0.1,0-0.2-0.1c-0.2-0.5-0.4-1.1-0.6-1.6
						c0-0.1,0-0.1,0.1-0.2c0.4-0.1,0.8-0.3,1.2-0.4c0.3-0.1,0.3-0.3,0.2-0.5c-0.2-0.4-0.3-0.9-0.5-1.3c-0.7-1.9-1.3-3.7-2-5.6
						c-0.1-0.3-0.2-0.5-0.3-0.8c-0.1-0.3-0.2-0.3-0.5-0.2c-0.4,0.1-0.8,0.3-1.2,0.4c-0.1,0-0.1,0-0.2-0.1c-0.2-0.5-0.4-1.1-0.6-1.6
						c0-0.1,0-0.1,0.1-0.2c0.9-0.3,1.8-0.6,2.7-1c0.1,0,0.1,0,0.1-0.2c-0.2-0.5-0.4-1-0.6-1.5c0-0.1,0-0.1,0.1-0.2
						c0.4-0.1,0.8-0.3,1.2-0.4c0.1,0,0.1,0,0.1,0.1c0.2,0.5,0.4,1,0.6,1.6c0.1,0.1,0.1,0.1,0.2,0.1c0.3-0.1,0.6-0.2,0.8-0.3
						c0.1,0,0.1-0.1,0.1-0.2c-0.2-0.5-0.4-1-0.6-1.5c0-0.1,0-0.1,0.1-0.2c0.4-0.1,0.7-0.3,1.1-0.4c0.1,0,0.1,0,0.2,0.1
						c0.2,0.5,0.4,1.1,0.6,1.6c0.1,0.2,0.1,0.2,0.2,0.1c1.2-0.3,2.3-0.2,3.2,0.6c0.4,0.3,0.7,0.7,0.9,1.1c0.2,0.4,0.3,0.8,0.3,1.2
						c0,0.7-0.2,1.3-0.7,1.8C399.1,242.1,399,242.2,398.9,242.3z M395.8,246.7c0.2,0.5,0.4,1.1,0.6,1.6c0,0.1,0.1,0.1,0.1,0.1
						c0.7-0.3,1.4-0.5,2.1-0.8c0.2-0.1,0.5-0.2,0.6-0.4c0.5-0.4,0.8-1,0.6-1.6c-0.1-0.3-0.2-0.6-0.4-0.9c-0.4-0.4-0.9-0.6-1.5-0.5
						c-0.4,0.1-0.8,0.2-1.2,0.3c-0.5,0.1-0.9,0.3-1.4,0.5c-0.1,0-0.1,0.1-0.1,0.2C395.4,245.6,395.6,246.2,395.8,246.7z
						 M393.9,241.4c0.2,0.4,0.3,0.9,0.5,1.3c0,0.1,0.1,0.1,0.2,0.1c0.4-0.1,0.7-0.3,1.1-0.4c0.3-0.1,0.6-0.2,0.8-0.4
						c0.3-0.1,0.5-0.3,0.7-0.6c0.2-0.3,0.3-0.7,0.2-1.1c-0.1-0.5-0.4-0.9-1-1c-0.4-0.1-0.8,0-1.2,0.1c-0.5,0.2-1,0.3-1.5,0.5
						c-0.1,0-0.1,0.1-0.1,0.2C393.6,240.5,393.7,241,393.9,241.4z"/>
					<path class="st3" d="M398.6,241.6c0.2,0,0.3,0,0.5,0c0.9,0.1,1.8,0.4,2.4,1.1c0.4,0.5,0.6,1,0.7,1.6c0.2,1.2-0.2,2.2-1,3
						c-0.4,0.4-0.8,0.7-1.2,0.9c-0.2,0.1-0.3,0.2-0.5,0.3c-0.1,0-0.1,0.1-0.1,0.2c0.2,0.5,0.4,1,0.5,1.5c0.1,0.2,0.1,0.2-0.1,0.2
						c-0.4,0.1-0.7,0.2-1.1,0.4c-0.1,0.1-0.1,0.1-0.2-0.1c-0.2-0.5-0.4-1-0.5-1.5c0-0.1-0.1-0.1-0.2-0.1c-0.3,0.1-0.6,0.2-0.9,0.3
						c-0.1,0-0.1,0.1-0.1,0.2c0.2,0.5,0.3,1,0.5,1.5c0.1,0.2,0.1,0.2-0.1,0.2c-0.4,0.1-0.7,0.3-1.1,0.4c-0.1,0-0.1,0-0.2-0.1
						c-0.2-0.5-0.3-1-0.5-1.4c-0.1-0.2-0.1-0.2-0.2-0.1c-0.9,0.3-1.8,0.6-2.7,1c-0.1,0-0.1,0-0.2-0.1c-0.2-0.5-0.4-1.1-0.6-1.6
						c0-0.1,0-0.1,0.1-0.2c0.4-0.1,0.8-0.3,1.2-0.4c0.3-0.1,0.3-0.3,0.2-0.5c-0.2-0.4-0.3-0.9-0.5-1.3c-0.7-1.9-1.3-3.7-2-5.6
						c-0.1-0.3-0.2-0.5-0.3-0.8c-0.1-0.3-0.2-0.3-0.5-0.2c-0.4,0.1-0.8,0.3-1.2,0.4c-0.1,0-0.1,0-0.2-0.1c-0.2-0.5-0.4-1.1-0.6-1.6
						c0-0.1,0-0.1,0.1-0.2c0.9-0.3,1.8-0.6,2.7-1c0.1,0,0.1,0,0.1-0.2c-0.2-0.5-0.4-1-0.6-1.5c0-0.1,0-0.1,0.1-0.2
						c0.4-0.1,0.8-0.3,1.2-0.4c0.1,0,0.1,0,0.1,0.1c0.2,0.5,0.4,1,0.6,1.6c0.1,0.1,0.1,0.1,0.2,0.1c0.3-0.1,0.6-0.2,0.8-0.3
						c0.1,0,0.1-0.1,0.1-0.2c-0.2-0.5-0.4-1-0.6-1.5c0-0.1,0-0.1,0.1-0.2c0.4-0.1,0.7-0.3,1.1-0.4c0.1,0,0.1,0,0.2,0.1
						c0.2,0.5,0.4,1.1,0.6,1.6c0.1,0.2,0.1,0.2,0.2,0.1c1.2-0.3,2.3-0.2,3.2,0.6c0.4,0.3,0.7,0.7,0.9,1.1c0.2,0.4,0.3,0.8,0.3,1.2
						c0,0.7-0.2,1.3-0.7,1.8C398.8,241.4,398.7,241.5,398.6,241.6z M395.5,245.9c0.2,0.5,0.4,1.1,0.6,1.6c0,0.1,0.1,0.1,0.1,0.1
						c0.7-0.3,1.4-0.5,2.1-0.8c0.2-0.1,0.5-0.2,0.6-0.4c0.5-0.4,0.8-1,0.6-1.6c-0.1-0.3-0.2-0.6-0.4-0.9c-0.4-0.4-0.9-0.6-1.5-0.5
						c-0.4,0.1-0.8,0.2-1.2,0.3c-0.5,0.1-0.9,0.3-1.4,0.5c-0.1,0-0.1,0.1-0.1,0.2C395.2,244.9,395.3,245.4,395.5,245.9z
						 M393.6,240.6c0.2,0.4,0.3,0.9,0.5,1.3c0,0.1,0.1,0.1,0.2,0.1c0.4-0.1,0.7-0.3,1.1-0.4c0.3-0.1,0.6-0.2,0.8-0.4
						c0.3-0.1,0.5-0.3,0.7-0.6c0.2-0.3,0.3-0.7,0.2-1.1c-0.1-0.5-0.4-0.9-1-1c-0.4-0.1-0.8,0-1.2,0.1c-0.5,0.2-1,0.3-1.5,0.5
						c-0.1,0-0.1,0.1-0.1,0.2C393.3,239.8,393.5,240.2,393.6,240.6z"/>
				</g>
			</g>
			<g>
				<path class="st22" d="M417.1,200.4C417.2,200.5,417.2,200.5,417.1,200.4C417.2,200.5,417.2,200.5,417.1,200.4z"/>
				<path class="st22" d="M407.1,202.6c0.3,0.1,0.7-0.1,0.9-0.4c0.9-1.5,2.6-3.7,4.9-3.7c3.3,0.1,4.1,1.6,4.2,1.9
					c-0.5-1.2-9.4-22.4-33.9-17.6C402.5,182.7,406.4,198.3,407.1,202.6z"/>
			</g>
			<path class="st22" d="M383.3,182.8c-22.4,4.4-23.9,24-24,28.2c0,0.2,0.2,0.2,0.3,0.1c0.4-0.8,1.3-1.9,3.1-2.5
				c2.1-0.7,4,0.2,5.1,1.3c0.2,0.2,0.5,0.2,0.7,0.2C364.5,189.1,383.3,182.8,383.3,182.8z"/>
			<path class="st22" d="M380.1,207.4c0.3,0,0.5-0.2,0.6-0.5c0.7-1.9,2.4-5.1,6.4-6c3.9-0.9,6.5,1.8,7.7,3.5
				c0.2,0.2,0.4,0.3,0.6,0.3c-2.9-19.6-12.2-22-12.2-22C376,189.5,379.2,203.9,380.1,207.4z"/>
		</g>
		<g>
			<polyline class="st16" points="79.3,113.3 100.5,143.6 134.9,130.7 			"/>
			<polyline class="st16" points="83.2,115.7 100.5,143.6 129.9,129.9 			"/>
			<polyline class="st16" points="87.8,116.6 100.5,143.6 125.5,128.1 			"/>
			<polyline class="st16" points="93.2,118 100.5,143.6 119.9,126.5 			"/>
			<line class="st16" x1="106.8" y1="121.4" x2="101" y2="142.3"/>
			<polyline class="st16" points="99.1,119.7 100.5,143.6 113.9,124.6 			"/>
			<path class="st17" d="M79.1,113.3c0,0,2.8,0.7,4.1,2.4c0,0,5.8-3,10,2.3c0,0,9-2.8,13.6,3.4c0,0,9.2-2.1,13.1,5
				c0,0,7-1.7,9.9,3.7c0,0,3.2-2.4,5.3,0.8l-2-10.3l-41.8-13.8C91.3,106.8,82.2,108.5,79.1,113.3z"/>
			<path class="st18" d="M80.1,111.5c-0.4,0.6,0.2,1.3,0.8,1.2c0.6-0.2,1.4-0.2,2.3-0.1c2.2,0.4,3.4,2.1,3.9,3.6
				c0.2,0.5,0.9,0.7,1.2,0.3c1.1-1.1,3.1-2.4,5.8-1.6c2.8,0.8,3.9,3,4.4,4.5c0.2,0.5,0.8,0.7,1.2,0.4c1.5-1.3,4.6-3.4,8.4-2.3
				c3.9,1.1,4.9,4.7,5.2,6.7c0.1,0.6,0.7,0.9,1.2,0.5c1.6-1.2,4.7-2.8,7.4-1c2.1,1.5,2.8,3,2.9,4.1c0.1,0.6,0.7,0.8,1.2,0.5
				c1.5-0.9,4-2.1,6.1-0.9c3.2,1.8,2.8,3.7,2.8,3.7s2.9-24.1-21.6-31.5C94.1,93.5,83.6,106,80.1,111.5z"/>
			<g>
				<g>
					<g>
						<g>
							<g>
								<circle class="st19" cx="95.5" cy="158.4" r="20.2"/>
							</g>
						</g>
					</g>
				</g>
				<g>
					<g>
						<g>
							<g>
								<circle class="st20" cx="95.3" cy="158" r="15.3"/>
							</g>
						</g>
					</g>
				</g>
				<g>
					<g>
						<g>
							<g>
								<circle class="st7" cx="95.8" cy="158.8" r="15.1"/>
							</g>
						</g>
					</g>
				</g>
				<g>
					<g>
						<g>
							<g>
								<circle class="st21" cx="95.8" cy="158.8" r="15.1"/>
							</g>
						</g>
					</g>
				</g>
				<g>
					<path class="st20" d="M99.3,159.3c0.1,0.1,0.3,0.2,0.4,0.2c0.8,0.5,1.4,1.2,1.6,2.1c0.1,0.6,0.1,1.2-0.1,1.7
						c-0.4,1.1-1.2,1.8-2.3,2.2c-0.5,0.1-1,0.2-1.5,0.2c-0.2,0-0.4,0-0.6,0c-0.1,0-0.1,0-0.1,0.1c-0.1,0.5-0.2,1.1-0.2,1.6
						c0,0.2,0,0.2-0.2,0.1c-0.4-0.1-0.7-0.1-1.1-0.2c-0.2,0-0.2,0-0.1-0.2c0.1-0.5,0.2-1,0.2-1.6c0-0.1,0-0.1-0.1-0.1
						c-0.3,0-0.6-0.1-0.9-0.1c-0.1,0-0.1,0-0.1,0.1c-0.1,0.5-0.2,1-0.2,1.5c0,0.2,0,0.2-0.2,0.1c-0.4-0.1-0.8-0.1-1.1-0.2
						c-0.1,0-0.1-0.1-0.1-0.2c0.1-0.5,0.2-1,0.2-1.5c0-0.2,0-0.2-0.1-0.2c-0.9-0.1-1.9-0.3-2.8-0.4c-0.1,0-0.1,0-0.1-0.2
						c0.1-0.6,0.2-1.1,0.2-1.7c0-0.1,0.1-0.1,0.2-0.1c0.4,0.1,0.8,0.1,1.3,0.2c0.3,0,0.4-0.1,0.5-0.4c0.1-0.5,0.1-0.9,0.2-1.4
						c0.3-1.9,0.6-3.9,0.9-5.8c0-0.3,0.1-0.5,0.1-0.8c0-0.3,0-0.4-0.3-0.5c-0.4-0.1-0.8-0.1-1.3-0.2c-0.1,0-0.1-0.1-0.1-0.2
						c0.1-0.6,0.2-1.1,0.2-1.7c0-0.1,0-0.1,0.2-0.1c0.9,0.1,1.9,0.3,2.8,0.4c0.1,0,0.1,0,0.2-0.1c0.1-0.5,0.2-1.1,0.2-1.6
						c0-0.1,0-0.1,0.1-0.1c0.4,0.1,0.8,0.1,1.2,0.2c0.1,0,0.1,0.1,0.1,0.1c-0.1,0.5-0.2,1.1-0.2,1.6c0,0.2,0,0.2,0.1,0.2
						c0.3,0,0.6,0.1,0.9,0.1c0.1,0,0.1,0,0.1-0.1c0.1-0.5,0.2-1.1,0.2-1.6c0-0.1,0-0.1,0.2-0.1c0.4,0.1,0.8,0.1,1.2,0.2
						c0.1,0,0.1,0,0.1,0.1c-0.1,0.6-0.2,1.1-0.3,1.7c0,0.2,0,0.2,0.1,0.2c1.2,0.3,2.1,0.9,2.6,2c0.2,0.4,0.3,0.9,0.2,1.4
						c0,0.4-0.1,0.8-0.3,1.2c-0.3,0.6-0.8,1.1-1.4,1.3C99.6,159.2,99.4,159.3,99.3,159.3z M94.5,161.7c-0.1,0.6-0.2,1.1-0.3,1.7
						c0,0.1,0,0.1,0.1,0.1c0.7,0.1,1.5,0.2,2.2,0.3c0.2,0,0.5,0,0.7,0c0.7-0.1,1.1-0.5,1.3-1.2c0.1-0.3,0.1-0.6,0-1
						c-0.2-0.6-0.6-0.9-1.1-1.2c-0.4-0.1-0.8-0.2-1.2-0.3c-0.5-0.1-1-0.1-1.4-0.2c-0.1,0-0.1,0-0.2,0.1
						C94.7,160.6,94.6,161.2,94.5,161.7z M95.3,156.2c-0.1,0.5-0.1,0.9-0.2,1.4c0,0.1,0,0.1,0.1,0.1c0.4,0.1,0.8,0.1,1.1,0.2
						c0.3,0,0.6,0,0.9,0.1c0.3,0,0.6,0,0.8-0.2c0.4-0.2,0.6-0.5,0.7-0.9c0.1-0.5,0-1-0.4-1.4c-0.3-0.3-0.7-0.4-1.1-0.5
						c-0.5-0.1-1.1-0.2-1.6-0.3c-0.1,0-0.1,0-0.2,0.1C95.5,155.2,95.4,155.7,95.3,156.2z"/>
					<path class="st3" d="M99.4,158.5c0.1,0.1,0.3,0.2,0.4,0.2c0.8,0.5,1.4,1.2,1.6,2.1c0.1,0.6,0.1,1.2-0.1,1.7
						c-0.4,1.1-1.2,1.8-2.3,2.2c-0.5,0.1-1,0.2-1.5,0.2c-0.2,0-0.4,0-0.6,0c-0.1,0-0.1,0-0.1,0.1c-0.1,0.5-0.2,1.1-0.2,1.6
						c0,0.2,0,0.2-0.2,0.1c-0.4-0.1-0.7-0.1-1.1-0.2c-0.2,0-0.2,0-0.1-0.2c0.1-0.5,0.2-1,0.2-1.6c0-0.1,0-0.1-0.1-0.1
						c-0.3,0-0.6-0.1-0.9-0.1c-0.1,0-0.1,0-0.1,0.1c-0.1,0.5-0.2,1-0.2,1.5c0,0.2,0,0.2-0.2,0.1c-0.4-0.1-0.8-0.1-1.1-0.2
						c-0.1,0-0.1-0.1-0.1-0.2c0.1-0.5,0.2-1,0.2-1.5c0-0.2,0-0.2-0.1-0.2c-0.9-0.1-1.9-0.3-2.8-0.4c-0.1,0-0.1,0-0.1-0.2
						c0.1-0.6,0.2-1.1,0.2-1.7c0-0.1,0.1-0.1,0.2-0.1c0.4,0.1,0.8,0.1,1.3,0.2c0.3,0,0.4-0.1,0.5-0.4c0.1-0.5,0.1-0.9,0.2-1.4
						c0.3-1.9,0.6-3.9,0.9-5.8c0-0.3,0.1-0.5,0.1-0.8c0-0.3,0-0.4-0.3-0.5c-0.4-0.1-0.8-0.1-1.3-0.2c-0.1,0-0.1-0.1-0.1-0.2
						c0.1-0.6,0.2-1.1,0.2-1.7c0-0.1,0-0.1,0.2-0.1c0.9,0.1,1.9,0.3,2.8,0.4c0.1,0,0.1,0,0.2-0.1c0.1-0.5,0.2-1.1,0.2-1.6
						c0-0.1,0-0.1,0.1-0.1c0.4,0.1,0.8,0.1,1.2,0.2c0.1,0,0.1,0.1,0.1,0.1c-0.1,0.5-0.2,1.1-0.2,1.6c0,0.2,0,0.2,0.1,0.2
						c0.3,0,0.6,0.1,0.9,0.1c0.1,0,0.1,0,0.1-0.1c0.1-0.5,0.2-1.1,0.2-1.6c0-0.1,0-0.1,0.2-0.1c0.4,0.1,0.8,0.1,1.2,0.2
						c0.1,0,0.1,0,0.1,0.1c-0.1,0.6-0.2,1.1-0.3,1.7c0,0.2,0,0.2,0.1,0.2c1.2,0.3,2.1,0.9,2.6,2c0.2,0.4,0.3,0.9,0.2,1.4
						c0,0.4-0.1,0.8-0.3,1.2c-0.3,0.6-0.8,1.1-1.4,1.3C99.7,158.4,99.5,158.5,99.4,158.5z M94.6,160.9c-0.1,0.6-0.2,1.1-0.3,1.7
						c0,0.1,0,0.1,0.1,0.1c0.7,0.1,1.5,0.2,2.2,0.3c0.2,0,0.5,0,0.7,0c0.7-0.1,1.1-0.5,1.3-1.2c0.1-0.3,0.1-0.6,0-1
						c-0.2-0.6-0.6-0.9-1.1-1.2c-0.4-0.1-0.8-0.2-1.2-0.3c-0.5-0.1-1-0.1-1.4-0.2c-0.1,0-0.1,0-0.2,0.1
						C94.8,159.8,94.7,160.4,94.6,160.9z M95.4,155.4c-0.1,0.5-0.1,0.9-0.2,1.4c0,0.1,0,0.1,0.1,0.1c0.4,0.1,0.8,0.1,1.1,0.2
						c0.3,0,0.6,0,0.9,0.1c0.3,0,0.6,0,0.8-0.2c0.4-0.2,0.6-0.5,0.7-0.9c0.1-0.5,0-1-0.4-1.4c-0.3-0.3-0.7-0.4-1.1-0.5
						c-0.5-0.1-1.1-0.2-1.6-0.3c-0.1,0-0.1,0-0.2,0.1C95.6,154.4,95.5,154.9,95.4,155.4z"/>
				</g>
			</g>
			<g>
				<path class="st22" d="M135.1,130.9C135.1,131,135.1,131,135.1,130.9C135.1,131,135.1,131,135.1,130.9z"/>
				<path class="st22" d="M125.2,128.1c0.2,0.2,0.6,0.3,0.9,0.1c1.5-0.9,4-2.1,6.1-0.9c2.8,1.6,2.8,3.3,2.8,3.7
					c0.1-1.3,2.2-24.2-21.6-31.5C130.5,108.4,126.6,124,125.2,128.1z"/>
			</g>
			<path class="st22" d="M113.5,99.4c-21.8-6.7-32.4,10-34.4,13.7c-0.1,0.1,0.1,0.3,0.2,0.2c0.7-0.5,2-1.1,3.9-0.8
				c2.2,0.4,3.4,2.1,3.9,3.6c0.1,0.3,0.3,0.4,0.6,0.5C94,96.2,113.5,99.4,113.5,99.4z"/>
			<path class="st22" d="M99.1,119.7c0.3,0.1,0.5,0.1,0.8-0.1c1.5-1.3,4.6-3.4,8.4-2.3c3.9,1.1,4.9,4.7,5.2,6.7
				c0,0.3,0.2,0.5,0.4,0.6c6.7-18.7-0.4-25.1-0.4-25.1C103.9,101.9,100,116.1,99.1,119.7z"/>
		</g>
	</g>
	<g>
		<path class="st23" d="M331,279.8c0,0,2.9-5.5,1.4-8.6c-1.5-3.1-9,0.9-15.4,7.3c-6.4,6.4-11.3-13.6-19.3-10.9c-8,2.6-6,12.7-6,12.7
			l24.3,10.1L331,279.8z"/>
		<path class="st21" d="M295.4,298.8c0,0-4.7-11.2-8.6-17.6c-3.9-6.4-0.3-11.7,5.6-8.4c5.9,3.3,12,8.4,20.6,2
			c8.6-6.4,8.4-6.7,11.4-1.7c3.1,5,5.6,4.7,9.8,2.5c4.2-2.2,5.3-2.8,6.1,1.1c0.8,3.9-1.7,8.4-6.7,13.1c-5,4.7-5.3,7.8-1.7,10.3
			c3.6,2.5,26.5,18.6,32.2,35.2c5.6,16.6,15.9,60.8-23,73.7c-38.9,12.8-86.8-3.4-82.3-40C263.4,332.5,295.4,298.8,295.4,298.8z"/>
		<path class="st3" d="M327.5,357.2c0.5,0.2,1,0.3,1.5,0.5c2.9,1.1,5.2,3,6.5,5.9c0.8,1.8,1.1,3.7,0.8,5.7c-0.6,3.9-2.8,6.7-6.2,8.4
			c-1.5,0.8-3.1,1.4-4.8,1.7c-0.6,0.1-1.2,0.2-1.8,0.3c-0.3,0-0.4,0.2-0.4,0.5c0.1,1.8,0.2,3.6,0.2,5.3c0,0.6,0,0.6-0.5,0.6
			c-1.2,0-2.5,0.1-3.7,0.2c-0.5,0-0.5,0-0.5-0.5c-0.1-1.7-0.2-3.5-0.2-5.2c0-0.3-0.1-0.4-0.4-0.4c-1,0.1-2.1,0.1-3.1,0.1
			c-0.3,0-0.4,0.1-0.4,0.4c0.1,1.7,0.1,3.4,0.2,5.1c0,0.5,0,0.5-0.5,0.6c-1.3,0-2.5,0.1-3.8,0.2c-0.3,0-0.4-0.1-0.5-0.4
			c-0.1-1.7-0.1-3.4-0.2-5.1c0-0.6,0-0.6-0.6-0.6c-3.1,0.1-6.3,0.2-9.4,0.4c-0.3,0-0.5-0.1-0.5-0.4c-0.1-1.9-0.1-3.7-0.2-5.6
			c0-0.4,0.1-0.5,0.5-0.5c1.4,0,2.8-0.1,4.3-0.2c1,0,1.3-0.5,1.3-1.5c-0.1-1.6-0.1-3.1-0.2-4.7c-0.3-6.5-0.5-13-0.8-19.5
			c0-0.9-0.1-1.8-0.1-2.7c0-1-0.4-1.3-1.4-1.3c-1.4,0.1-2.8,0.1-4.3,0.2c-0.4,0-0.5-0.1-0.5-0.4c-0.1-1.8-0.1-3.7-0.2-5.5
			c0-0.5,0-0.5,0.5-0.5c3.1-0.1,6.3-0.3,9.4-0.4c0.5,0,0.5,0,0.5-0.5c-0.1-1.8-0.1-3.6-0.2-5.4c0-0.3,0-0.5,0.4-0.5
			c1.4,0,2.7-0.1,4.1-0.2c0.3,0,0.2,0.2,0.3,0.4c0.1,1.8,0.1,3.6,0.2,5.5c0,0.5,0,0.5,0.5,0.5c1,0,2-0.1,3-0.1
			c0.3,0,0.4-0.1,0.4-0.4c-0.1-1.8-0.2-3.6-0.2-5.4c0-0.5,0-0.5,0.5-0.5c1.3-0.1,2.6-0.1,3.9-0.2c0.3,0,0.4,0.1,0.4,0.4
			c0.1,1.9,0.1,3.8,0.2,5.7c0,0.5,0,0.5,0.6,0.6c4,0.1,7.2,1.7,9.6,5c0.9,1.3,1.5,2.8,1.6,4.5c0.1,1.4,0.1,2.7-0.3,4.1
			c-0.7,2.2-1.9,3.9-3.9,5.1C328.3,356.7,327.9,356.9,327.5,357.2z M313.5,367.9c0.1,1.9,0.2,3.7,0.2,5.6c0,0.3,0,0.4,0.4,0.4
			c2.4-0.2,4.9-0.3,7.3-0.5c0.8-0.1,1.6-0.3,2.4-0.6c2.1-0.8,3.4-2.3,3.6-4.6c0.1-1.1,0-2.2-0.5-3.2c-0.9-1.8-2.4-2.7-4.3-3
			c-1.3-0.2-2.7-0.3-4.1-0.3c-1.6,0-3.2,0.1-4.8,0.2c-0.5,0-0.5,0-0.5,0.5C313.4,364.2,313.4,366.1,313.5,367.9z M312.7,349.3
			c0.1,1.6,0.1,3.1,0.2,4.7c0,0.3,0.1,0.4,0.4,0.4c1.3-0.1,2.6-0.1,3.8-0.2c1-0.1,2-0.2,2.9-0.4c1-0.2,1.9-0.5,2.6-1.1
			c1.1-0.9,1.5-2,1.6-3.4c0.1-1.8-0.5-3.4-2.2-4.3c-1.2-0.7-2.6-0.9-3.9-0.9c-1.8,0-3.5,0.1-5.3,0.1c-0.4,0-0.4,0.1-0.4,0.5
			C312.6,346.2,312.6,347.8,312.7,349.3z"/>
		<path class="st20" d="M295.4,298.8c0,0,21.6,1.6,33.4-2.4c0.3-0.1,0.7,0,0.9,0.2l0.6,0.7c0.4,0.4,0.2,1.1-0.3,1.3
			c-3.5,1.5-16,5.9-35.5,2c-0.7-0.1-0.9-1-0.4-1.5l0.5-0.4L295.4,298.8z"/>
		<path class="st24" d="M301.9,295c0,0-5.5-6.7-6.4-13.1"/>
		<path class="st24" d="M311.7,293.4c0,0,8-8,8.1-15.8"/>
		<path class="st24" d="M332.4,283.3c0,0-5.8,9-11,11.5"/>
		<path class="st24" d="M270.9,385.6c4.5,10,14.9,17.6,35.7,20.4"/>
		<path class="st24" d="M296.9,309c0,0-24,27.7-27.7,49.8"/>
	</g>
	<g>
		<path class="st14" d="M185.9,409.5l-3.2,6.1c0,0,7.6,6.6,7.9,6.8c0.3,0.2,3.8-1.6,3.8-1.6l2.5-9.8L185.9,409.5z"/>
		<polygon class="st14" points="122,379.3 111.8,387.7 117,397.5 121.2,394.5 129.8,388.8 		"/>
		<path class="st25" d="M190.4,166.9c0,0,11.3,31.5-4,34.9c-15.3,3.4-20.1-8.8-20.1-8.8s-4.7,1.7-6.3-2.6c-1-2.5,1.7-6.7,3.2-4.6
			l-2.4-22.1l15.2-3.9L190.4,166.9z"/>
		<path class="st25" d="M165.7,190.4l5.5,21.1l2.8,2.2c5.3,4.3,13.7,3.5,14.6-3.3l-0.4-2.4L186,198L165.7,190.4z"/>
		<path class="st26" d="M186.8,201.7c0,0-1,0.7-7,0.4c0,0,2.8,3.2,7.4,1.6L186.8,201.7z"/>
		<path class="st27" d="M160.6,164c0,0,0.8-8.3,6.5-8.4c5.7-0.1,8.5-4.9,16-2.8c8.3,2.4,13.7,8.2,11.1,12.9c-3.4,6.4-8.3,4.5-11,3.1
			c-1.1-0.6-2.5-0.3-3.2,0.8c-0.8,1.3-2.4,2.7-5.6,2c-13.8-3.2,0.1,9.6-8.1,15.1c-1.1,0.8-2.7,0.4-3.5-0.7
			C159.4,181,151.1,167.3,160.6,164z"/>
		<path class="st18" d="M220.1,223.1C220.1,223.1,220.1,223,220.1,223.1c-1.1-0.7-20.3-12.3-32.1-15.1c-12.1-2.8-28.6-1.7-29.1,12.2
			c-0.5,12.2-0.7,53.9-0.7,64.3c0,1.3,1,2.3,2.3,2.3h47c1,0,1.9-0.8,1.9-1.9l0-40.3c0-0.1,0.1-0.1,0.2-0.1l6.8,1.7
			c0.1,0,0.1,0,0.1-0.1C217,244.9,221,230.8,220.1,223.1z"/>
		<path class="st18" d="M194.9,211.7l25.9-1.7c0,0,2,12.5,1.1,16.4l-24.9-6.4L194.9,211.7z"/>
		<path class="st28" d="M121,374l34.7-32.5c0.6-0.5,0.9-1.3,1-2.1l2.6-51.7c0-0.6,0.6-1.1,1.2-1.1l46.1,0.3c1.6,0,2.9,1.3,3.1,2.9
			l4.1,58.8c0,0.3,0,0.5-0.1,0.8l-11.9,60.3c-0.3,1.7-2,2.8-3.7,2.4l-12.2-2.6c-1.5-0.3-2.6-1.8-2.4-3.3l5.6-54.2c0-0.3,0-0.5,0-0.8
			l-5.3-35.2c0,0-0.1,0-0.1,0l-2.5,33.6c-0.1,0.8-0.4,1.5-1,2.1l-45,40.5c-1.3,1.2-3.4,1-4.5-0.4l-10.2-13.5
			C119.7,376.9,119.9,375.1,121,374z"/>
		<path class="st14" d="M217.1,244.7l13.6,2c3.5,0.5,6.9-1,8.9-3.9l21.6-32.1l6.6-7.9l-11.6-3.1l-23.3,27.9l-12.7-3L217.1,244.7z"/>
		<g>
			<g>
				<g>
					<path class="st14" d="M253.5,202.1l3.4-3.8c1.6-6.4,4.7-18.1,5.8-17.8c1.2,0.3,1.7,1.4,1.5,3.9c-0.5,5.9,0.9,8.4,4,7.5
						c1.1-0.3,10.3-2.4,10.3-2.4s2.7,1.5,0.2,4.4c0,0,1.4,3.6-2,4.6c0,0-0.2,4.1-2.8,4.4c0,0-2.7,1.8-8.4,4.4l-4.5,3.3L253.5,202.1z
						"/>
				</g>
			</g>
		</g>
		<path class="st29" d="M278.1,193.9c-1.9,0.7-4.8,1.7-6.6,1.7"/>
		<path class="st29" d="M276.3,198.6c0,0-3.3,1.4-5.7,1.3"/>
		<path class="st16" d="M179.4,222.8c1.9,11.9,30.1,21.8,30.1,21.8"/>
		<path class="st16" d="M200.8,213c0,0-13.9-5.8-19.7,3.4"/>
		<path class="st16" d="M216,227.8c-0.2,0.5-2.4,15.3-2.4,15.3"/>
		<line class="st16" x1="212.1" y1="235.2" x2="211" y2="243.3"/>
		<line class="st16" x1="163.9" y1="278.1" x2="171.9" y2="278.5"/>
		<line class="st16" x1="167.1" y1="281.6" x2="185.8" y2="281.9"/>
		<polyline class="st29" points="239.2,220.1 233,227 221.1,224.7 		"/>
		<polyline class="st30" points="187.2,300.2 187.5,312.6 183.8,315.7 		"/>
		<path class="st30" d="M171.3,290.5c0,0,1.3,7.3-8.6,14.2"/>
		<path class="st30" d="M198.3,290.8c0,0,1.5,8.1,10.9,13"/>
		<path class="st30" d="M179,342.9c0,0-6.1,3.8-6,10.8"/>
		<path class="st30" d="M210.6,342.7c0,0-5.3,1.6-1.7,11.5"/>
		<line class="st30" x1="125.9" y1="378.3" x2="133.6" y2="389.1"/>
		<line class="st30" x1="127.9" y1="374.9" x2="130.9" y2="378.5"/>
		<path class="st30" d="M187.1,406.1c0,0,5.6,2.5,11.6,3"/>
		<path class="st30" d="M187.7,403.1c0.5,0.2,5.1,1.7,5.1,1.7"/>
		<g>
			<path class="st31" d="M194.6,418.6c0,0-3.3,3.7-11.6-4.2c0,0-5.3,4.9-10,6.2c-4.7,1.3,0.1,10.1,6.8,12.2c6.7,2.1,8,9.1,13.9,12.2
				c5.9,3.1,17.9,2.7,16.2-1.1c-1.7-3.8-13-12.5-12.4-18.3C198.1,419.9,194.6,418.6,194.6,418.6z"/>
			<path class="st24" d="M174.5,423.2c0,0,0.3,3.7,5.2,6.5c4.9,2.7,8.9,6.4,12.8,11.3c3.9,5,13.6,3.1,13.6,3.1"/>
			<path class="st24" d="M201.9,437.2c0,0-2.8-2.3-10.8,1.9"/>
			<path class="st24" d="M180.7,420.2c0,0,4.9,8.2,16.5,9.2"/>
		</g>
		<g>
			<path class="st31" d="M121.2,394.5c0,0-4.6,2.1-8.9-8.6c0,0-6.9,2.3-11.6,1.6c-4.8-0.7-4,9.3,1.3,13.9c5.3,4.7,3.6,11.5,7.7,16.8
				c4.1,5.3,15.2,9.7,15.3,5.6c0-4.2-6.9-16.7-3.9-21.7C124,397.1,121.2,394.5,121.2,394.5z"/>
			<path class="st24" d="M101.1,390.5c0,0-1.2,3.6,2.1,8c3.4,4.5,5.5,9.4,7.1,15.6c1.6,6.1,11.1,8.3,11.1,8.3"/>
			<path class="st24" d="M120.4,414.5c0,0-1.6-3.3-10.7-2.6"/>
			<path class="st24" d="M107.9,390.4c0,0,1.1,9.5,11.3,15.1"/>
		</g>
		<line class="st16" x1="220.1" y1="223.1" x2="205.1" y2="214.8"/>
	</g>
	<g>
		<g>
			<ellipse class="st9" cx="380.3" cy="408.5" rx="20.8" ry="4.6"/>
			<rect x="359.6" y="347.8" class="st9" width="41.5" height="60.8"/>
			<ellipse class="st10" cx="380.3" cy="347.8" rx="20.8" ry="4.6"/>
			<g>
				<defs>
					<rect id="SVGID_5_" x="359.6" y="348.9" width="41.5" height="59.7"/>
				</defs>
				<clipPath id="SVGID_6_">
					<use xlink:href="#SVGID_5_"  style="overflow:visible;"/>
				</clipPath>
				<path class="st32" d="M358.7,357.4c0,2.5,9.7,4.6,21.7,4.6c12,0,21.7-2,21.7-4.6"/>
				<path class="st32" d="M358.7,368.4c0,2.5,9.7,4.6,21.7,4.6c12,0,21.7-2,21.7-4.6"/>
				<path class="st32" d="M358.7,378.8c0,2.5,9.7,4.6,21.7,4.6c12,0,21.7-2,21.7-4.6"/>
				<path class="st32" d="M358.7,388.8c0,2.5,9.7,4.6,21.7,4.6c12,0,21.7-2,21.7-4.6"/>
				<path class="st32" d="M358.7,398.8c0,2.5,9.7,4.6,21.7,4.6c12,0,21.7-2,21.7-4.6"/>
			</g>
			<line class="st12" x1="363.8" y1="403.1" x2="363.8" y2="409.4"/>
			<line class="st12" x1="363.8" y1="393" x2="363.8" y2="400"/>
			<line class="st12" x1="363.8" y1="383.2" x2="363.8" y2="390.5"/>
			<line class="st12" x1="363.8" y1="372.8" x2="363.8" y2="380.1"/>
			<line class="st12" x1="363.8" y1="361.5" x2="363.8" y2="370.1"/>
			<line class="st12" x1="363.8" y1="352.7" x2="363.8" y2="358.2"/>
			<line class="st12" x1="367.7" y1="404.2" x2="367.7" y2="410.5"/>
			<line class="st12" x1="367.7" y1="394.1" x2="367.7" y2="401.1"/>
			<line class="st12" x1="367.7" y1="384.3" x2="367.7" y2="391.6"/>
			<line class="st12" x1="367.7" y1="373.9" x2="367.7" y2="381.2"/>
			<line class="st12" x1="367.7" y1="362.6" x2="367.7" y2="371.2"/>
			<line class="st12" x1="367.7" y1="353.8" x2="367.7" y2="359.3"/>
			<line class="st12" x1="372.1" y1="404.8" x2="372.1" y2="411.2"/>
			<line class="st12" x1="372.1" y1="394.7" x2="372.1" y2="401.8"/>
			<line class="st12" x1="372.1" y1="384.9" x2="372.1" y2="392.2"/>
			<line class="st12" x1="372.1" y1="374.6" x2="372.1" y2="381.8"/>
			<line class="st12" x1="372.1" y1="363.2" x2="372.1" y2="371.8"/>
			<line class="st12" x1="372.1" y1="354.5" x2="372.1" y2="360"/>
			<line class="st12" x1="397.3" y1="403.1" x2="397.3" y2="409.5"/>
			<line class="st12" x1="397.3" y1="393" x2="397.3" y2="400.1"/>
			<line class="st12" x1="397.3" y1="383.2" x2="397.3" y2="390.5"/>
			<line class="st12" x1="397.3" y1="372.8" x2="397.3" y2="380.1"/>
			<line class="st12" x1="397.3" y1="361.5" x2="397.3" y2="370.1"/>
			<line class="st12" x1="397.3" y1="352.8" x2="397.3" y2="358.3"/>
			<line class="st12" x1="393" y1="404.1" x2="393" y2="410.4"/>
			<line class="st12" x1="393" y1="394" x2="393" y2="401"/>
			<line class="st12" x1="393" y1="384.2" x2="393" y2="391.5"/>
			<line class="st12" x1="393" y1="373.8" x2="393" y2="381.1"/>
			<line class="st12" x1="393" y1="362.5" x2="393" y2="371.1"/>
			<line class="st12" x1="393" y1="353.7" x2="393" y2="359.3"/>
			<line class="st12" x1="388.1" y1="404.6" x2="388.1" y2="410.9"/>
			<line class="st12" x1="388.1" y1="394.5" x2="388.1" y2="401.5"/>
			<line class="st12" x1="388.1" y1="384.7" x2="388.1" y2="392"/>
			<line class="st12" x1="388.1" y1="374.3" x2="388.1" y2="381.6"/>
			<line class="st12" x1="388.1" y1="363" x2="388.1" y2="371.6"/>
			<line class="st12" x1="388.1" y1="354.2" x2="388.1" y2="359.7"/>
			<line class="st12" x1="383.1" y1="404.8" x2="383.1" y2="411.2"/>
			<line class="st12" x1="383.1" y1="394.7" x2="383.1" y2="401.8"/>
			<line class="st12" x1="383.1" y1="384.9" x2="383.1" y2="392.2"/>
			<line class="st12" x1="383.1" y1="374.6" x2="383.1" y2="381.8"/>
			<line class="st12" x1="383.1" y1="363.2" x2="383.1" y2="371.8"/>
			<line class="st12" x1="383.1" y1="354.5" x2="383.1" y2="360"/>
			<line class="st12" x1="377.7" y1="404.7" x2="377.7" y2="411.1"/>
			<line class="st12" x1="377.7" y1="394.6" x2="377.7" y2="401.6"/>
			<line class="st12" x1="377.7" y1="384.8" x2="377.7" y2="392.1"/>
			<line class="st12" x1="377.7" y1="374.4" x2="377.7" y2="381.7"/>
			<line class="st12" x1="377.7" y1="363.1" x2="377.7" y2="371.7"/>
			<line class="st12" x1="377.7" y1="354.4" x2="377.7" y2="359.9"/>
		</g>
		<path class="st33" d="M398,414.1c0,0-12-0.7-18.5-1c0,0-2.9-22.1,1.4-26.4C385.2,382.4,398,414.1,398,414.1z"/>
		<g>
			<g>
				<g>
					<g>
						<g>
							<circle class="st8" cx="398.3" cy="394.6" r="19.4"/>
						</g>
					</g>
				</g>
			</g>
			<g>
				<g>
					<g>
						<g>
							<circle class="st6" cx="398.1" cy="394.3" r="14.8"/>
						</g>
					</g>
				</g>
			</g>
			<g>
				<g>
					<g>
						<g>
							<circle class="st7" cx="398.5" cy="395" r="14.6"/>
						</g>
					</g>
				</g>
			</g>
			<g>
				<g>
					<g>
						<g>
							<circle class="st10" cx="398.5" cy="395" r="14.6"/>
						</g>
					</g>
				</g>
			</g>
		</g>
		<g>
			<path class="st6" d="M402.1,395c0.2,0.1,0.3,0.1,0.4,0.2c0.9,0.4,1.5,1,1.9,1.9c0.2,0.6,0.3,1.1,0.1,1.7c-0.2,1.2-0.9,2-2,2.4
				c-0.5,0.2-1,0.4-1.5,0.4c-0.2,0-0.4,0.1-0.6,0.1c-0.1,0-0.1,0.1-0.1,0.1c0,0.5,0,1.1,0,1.6c0,0.2,0,0.2-0.2,0.2
				c-0.4,0-0.7,0-1.1,0c-0.2,0-0.2,0-0.2-0.2c0-0.5,0-1.1,0-1.6c0-0.1,0-0.1-0.1-0.1c-0.3,0-0.6,0-0.9,0c-0.1,0-0.1,0-0.1,0.1
				c0,0.5,0,1,0,1.6c0,0.2,0,0.2-0.2,0.2c-0.4,0-0.8,0-1.1,0c-0.1,0-0.1,0-0.1-0.1c0-0.5,0-1,0-1.5c0-0.2,0-0.2-0.2-0.2
				c-0.9,0-1.9,0-2.8,0c-0.1,0-0.1,0-0.1-0.1c0-0.6,0-1.1,0-1.7c0-0.1,0-0.1,0.1-0.1c0.4,0,0.9,0,1.3,0c0.3,0,0.4-0.1,0.4-0.4
				c0-0.5,0-1,0-1.4c0-2,0.1-3.9,0.1-5.9c0-0.3,0-0.6,0-0.8c0-0.3-0.1-0.4-0.4-0.4c-0.4,0-0.9,0-1.3,0c-0.1,0-0.1,0-0.1-0.1
				c0-0.6,0-1.1,0-1.7c0-0.1,0-0.1,0.1-0.1c1,0,1.9,0,2.9,0c0.1,0,0.1,0,0.1-0.1c0-0.5,0-1.1,0-1.6c0-0.1,0-0.1,0.1-0.1
				c0.4,0,0.8,0,1.2,0c0.1,0,0.1,0.1,0.1,0.1c0,0.6,0,1.1,0,1.7c0,0.2,0,0.2,0.2,0.2c0.3,0,0.6,0,0.9,0c0.1,0,0.1,0,0.1-0.1
				c0-0.5,0-1.1,0-1.6c0-0.1,0-0.2,0.2-0.1c0.4,0,0.8,0,1.2,0c0.1,0,0.1,0,0.1,0.1c0,0.6,0,1.2,0,1.7c0,0.2,0,0.2,0.2,0.2
				c1.2,0.1,2.2,0.6,2.8,1.7c0.3,0.4,0.4,0.9,0.4,1.4c0,0.4,0,0.8-0.2,1.2c-0.2,0.6-0.7,1.1-1.3,1.5
				C402.4,394.9,402.2,394.9,402.1,395z M397.7,398c0,0.6,0,1.1,0,1.7c0,0.1,0,0.1,0.1,0.1c0.7,0,1.5,0,2.2,0c0.2,0,0.5-0.1,0.7-0.1
				c0.6-0.2,1.1-0.6,1.2-1.3c0.1-0.3,0-0.7-0.1-1c-0.2-0.6-0.7-0.9-1.3-1c-0.4-0.1-0.8-0.1-1.2-0.2c-0.5,0-1,0-1.4,0
				c-0.1,0-0.1,0-0.2,0.1C397.7,396.9,397.7,397.5,397.7,398z M397.7,392.4c0,0.5,0,0.9,0,1.4c0,0.1,0,0.1,0.1,0.1
				c0.4,0,0.8,0,1.2,0c0.3,0,0.6,0,0.9-0.1c0.3,0,0.6-0.1,0.8-0.3c0.3-0.2,0.5-0.6,0.5-1c0.1-0.6-0.1-1-0.6-1.3
				c-0.4-0.2-0.8-0.3-1.2-0.4c-0.5,0-1.1,0-1.6-0.1c-0.1,0-0.1,0-0.1,0.1C397.8,391.5,397.7,391.9,397.7,392.4z"/>
			<path class="st3" d="M402.1,394.2c0.2,0.1,0.3,0.1,0.4,0.2c0.9,0.4,1.5,1,1.9,1.9c0.2,0.6,0.3,1.1,0.1,1.7c-0.2,1.2-0.9,2-2,2.4
				c-0.5,0.2-1,0.4-1.5,0.4c-0.2,0-0.4,0.1-0.6,0.1c-0.1,0-0.1,0.1-0.1,0.1c0,0.5,0,1.1,0,1.6c0,0.2,0,0.2-0.2,0.2
				c-0.4,0-0.7,0-1.1,0c-0.2,0-0.2,0-0.2-0.2c0-0.5,0-1.1,0-1.6c0-0.1,0-0.1-0.1-0.1c-0.3,0-0.6,0-0.9,0c-0.1,0-0.1,0-0.1,0.1
				c0,0.5,0,1,0,1.6c0,0.2,0,0.2-0.2,0.2c-0.4,0-0.8,0-1.1,0c-0.1,0-0.1,0-0.1-0.1c0-0.5,0-1,0-1.5c0-0.2,0-0.2-0.2-0.2
				c-0.9,0-1.9,0-2.8,0c-0.1,0-0.1,0-0.1-0.1c0-0.6,0-1.1,0-1.7c0-0.1,0-0.1,0.1-0.1c0.4,0,0.9,0,1.3,0c0.3,0,0.4-0.1,0.4-0.4
				c0-0.5,0-1,0-1.4c0-2,0.1-3.9,0.1-5.9c0-0.3,0-0.6,0-0.8c0-0.3-0.1-0.4-0.4-0.4c-0.4,0-0.9,0-1.3,0c-0.1,0-0.1,0-0.1-0.1
				c0-0.6,0-1.1,0-1.7c0-0.1,0-0.1,0.1-0.1c1,0,1.9,0,2.9,0c0.1,0,0.1,0,0.1-0.1c0-0.5,0-1.1,0-1.6c0-0.1,0-0.1,0.1-0.1
				c0.4,0,0.8,0,1.2,0c0.1,0,0.1,0.1,0.1,0.1c0,0.6,0,1.1,0,1.7c0,0.2,0,0.2,0.2,0.2c0.3,0,0.6,0,0.9,0c0.1,0,0.1,0,0.1-0.1
				c0-0.5,0-1.1,0-1.6c0-0.1,0-0.2,0.2-0.1c0.4,0,0.8,0,1.2,0c0.1,0,0.1,0,0.1,0.1c0,0.6,0,1.2,0,1.7c0,0.2,0,0.2,0.2,0.2
				c1.2,0.1,2.2,0.6,2.8,1.7c0.3,0.4,0.4,0.9,0.4,1.4c0,0.4,0,0.8-0.2,1.2c-0.2,0.6-0.7,1.1-1.3,1.5
				C402.4,394.1,402.2,394.1,402.1,394.2z M397.7,397.2c0,0.6,0,1.1,0,1.7c0,0.1,0,0.1,0.1,0.1c0.7,0,1.5,0,2.2,0
				c0.2,0,0.5-0.1,0.7-0.1c0.6-0.2,1.1-0.6,1.2-1.3c0.1-0.3,0-0.7-0.1-1c-0.2-0.6-0.7-0.9-1.3-1c-0.4-0.1-0.8-0.1-1.2-0.2
				c-0.5,0-1,0-1.4,0c-0.1,0-0.1,0-0.2,0.1C397.7,396.1,397.7,396.7,397.7,397.2z M397.8,391.6c0,0.5,0,0.9,0,1.4
				c0,0.1,0,0.1,0.1,0.1c0.4,0,0.8,0,1.2,0c0.3,0,0.6,0,0.9-0.1c0.3,0,0.6-0.1,0.8-0.3c0.3-0.2,0.5-0.6,0.5-1c0.1-0.6-0.1-1-0.6-1.3
				c-0.4-0.2-0.8-0.3-1.2-0.4c-0.5,0-1.1,0-1.6-0.1c-0.1,0-0.1,0-0.1,0.1C397.8,390.7,397.8,391.1,397.8,391.6z"/>
		</g>
	</g>
</g>
</svg>
